<mxfile host="app.diagrams.net" agent="Mozilla/5.0 (Windows NT 10.0; Win64; x64) AppleWebKit/537.36 (KHTML, like Gecko) Chrome/140.0.0.0 Safari/537.36 Edg/140.0.0.0" version="28.0.3" pages="5">
  <diagram name="Twolayer" id="jx20daNcxE-V6-6aqqzY">
    <mxGraphModel dx="745" dy="518" grid="0" gridSize="10" guides="1" tooltips="1" connect="1" arrows="1" fold="1" page="1" pageScale="1" pageWidth="1100" pageHeight="850" math="0" shadow="0">
      <root>
        <mxCell id="0" />
        <mxCell id="1" parent="0" />
        <mxCell id="pe_mHa2sRCJW_RPM9Tu3-1" value="&lt;font style=&quot;font-size: 9px;&quot;&gt;Availability zone us-east-1a&lt;/font&gt;" style="sketch=0;outlineConnect=0;gradientColor=none;html=1;whiteSpace=wrap;fontSize=12;fontStyle=0;shape=mxgraph.aws4.group;grIcon=mxgraph.aws4.group_availability_zone;strokeColor=#545B64;fillColor=none;verticalAlign=top;align=left;spacingLeft=30;fontColor=#545B64;dashed=1;" parent="1" vertex="1">
          <mxGeometry x="208" y="186" width="201" height="403" as="geometry" />
        </mxCell>
        <mxCell id="pe_mHa2sRCJW_RPM9Tu3-3" value="&lt;font style=&quot;font-size: 9px;&quot;&gt;Public subnet&lt;/font&gt;" style="points=[[0,0],[0.25,0],[0.5,0],[0.75,0],[1,0],[1,0.25],[1,0.5],[1,0.75],[1,1],[0.75,1],[0.5,1],[0.25,1],[0,1],[0,0.75],[0,0.5],[0,0.25]];outlineConnect=0;gradientColor=none;html=1;whiteSpace=wrap;fontSize=12;fontStyle=0;container=1;pointerEvents=0;collapsible=0;recursiveResize=0;shape=mxgraph.aws4.group;grIcon=mxgraph.aws4.group_security_group;grStroke=0;strokeColor=#7AA116;fillColor=#F2F6E8;verticalAlign=top;align=left;spacingLeft=30;fontColor=#248814;dashed=0;" parent="1" vertex="1">
          <mxGeometry x="245.75" y="224" width="128.25" height="70" as="geometry" />
        </mxCell>
        <mxCell id="pe_mHa2sRCJW_RPM9Tu3-5" value="" style="sketch=0;outlineConnect=0;fontColor=#232F3E;gradientColor=none;fillColor=#8C4FFF;strokeColor=none;dashed=0;verticalLabelPosition=bottom;verticalAlign=top;align=center;html=1;fontSize=12;fontStyle=0;aspect=fixed;pointerEvents=1;shape=mxgraph.aws4.nat_gateway;" parent="pe_mHa2sRCJW_RPM9Tu3-3" vertex="1">
          <mxGeometry x="42.25" y="31" width="29" height="29" as="geometry" />
        </mxCell>
        <mxCell id="pe_mHa2sRCJW_RPM9Tu3-42" value="&lt;font style=&quot;font-size: 9px;&quot;&gt;NAT Gateway&lt;/font&gt;" style="text;html=1;align=center;verticalAlign=middle;whiteSpace=wrap;rounded=0;" parent="pe_mHa2sRCJW_RPM9Tu3-3" vertex="1">
          <mxGeometry x="-3" y="48" width="54.25" height="15" as="geometry" />
        </mxCell>
        <mxCell id="pe_mHa2sRCJW_RPM9Tu3-8" value="" style="sketch=0;outlineConnect=0;fontColor=#232F3E;gradientColor=none;fillColor=#8C4FFF;strokeColor=none;dashed=0;verticalLabelPosition=bottom;verticalAlign=top;align=center;html=1;fontSize=12;fontStyle=0;aspect=fixed;pointerEvents=1;shape=mxgraph.aws4.application_load_balancer;" parent="1" vertex="1">
          <mxGeometry x="472" y="253" width="26" height="26" as="geometry" />
        </mxCell>
        <mxCell id="pe_mHa2sRCJW_RPM9Tu3-9" value="&lt;font style=&quot;font-size: 9px;&quot;&gt;Private Web Subnet&lt;/font&gt;" style="points=[[0,0],[0.25,0],[0.5,0],[0.75,0],[1,0],[1,0.25],[1,0.5],[1,0.75],[1,1],[0.75,1],[0.5,1],[0.25,1],[0,1],[0,0.75],[0,0.5],[0,0.25]];outlineConnect=0;gradientColor=none;html=1;whiteSpace=wrap;fontSize=12;fontStyle=0;container=1;pointerEvents=0;collapsible=0;recursiveResize=0;shape=mxgraph.aws4.group;grIcon=mxgraph.aws4.group_security_group;grStroke=0;strokeColor=#00A4A6;fillColor=#E6F6F7;verticalAlign=top;align=left;spacingLeft=30;fontColor=#147EBA;dashed=0;" parent="1" vertex="1">
          <mxGeometry x="249" y="345" width="126" height="89" as="geometry" />
        </mxCell>
        <mxCell id="pe_mHa2sRCJW_RPM9Tu3-10" value="" style="sketch=0;points=[[0,0,0],[0.25,0,0],[0.5,0,0],[0.75,0,0],[1,0,0],[0,1,0],[0.25,1,0],[0.5,1,0],[0.75,1,0],[1,1,0],[0,0.25,0],[0,0.5,0],[0,0.75,0],[1,0.25,0],[1,0.5,0],[1,0.75,0]];outlineConnect=0;fontColor=#232F3E;fillColor=#ED7100;strokeColor=#ffffff;dashed=0;verticalLabelPosition=bottom;verticalAlign=top;align=center;html=1;fontSize=12;fontStyle=0;aspect=fixed;shape=mxgraph.aws4.resourceIcon;resIcon=mxgraph.aws4.ec2;" parent="1" vertex="1">
          <mxGeometry x="293" y="395" width="30" height="30" as="geometry" />
        </mxCell>
        <mxCell id="pe_mHa2sRCJW_RPM9Tu3-11" value="" style="sketch=0;outlineConnect=0;fontColor=#232F3E;gradientColor=none;fillColor=#ED7100;strokeColor=none;dashed=0;verticalLabelPosition=bottom;verticalAlign=top;align=center;html=1;fontSize=12;fontStyle=0;aspect=fixed;pointerEvents=1;shape=mxgraph.aws4.auto_scaling2;" parent="1" vertex="1">
          <mxGeometry x="462" y="383" width="36" height="36" as="geometry" />
        </mxCell>
        <mxCell id="pe_mHa2sRCJW_RPM9Tu3-14" value="&lt;font style=&quot;font-size: 9px;&quot;&gt;Private RDS DB Subnet&lt;/font&gt;" style="points=[[0,0],[0.25,0],[0.5,0],[0.75,0],[1,0],[1,0.25],[1,0.5],[1,0.75],[1,1],[0.75,1],[0.5,1],[0.25,1],[0,1],[0,0.75],[0,0.5],[0,0.25]];outlineConnect=0;gradientColor=none;html=1;whiteSpace=wrap;fontSize=12;fontStyle=0;container=1;pointerEvents=0;collapsible=0;recursiveResize=0;shape=mxgraph.aws4.group;grIcon=mxgraph.aws4.group_security_group;grStroke=0;strokeColor=#00A4A6;fillColor=#E6F6F7;verticalAlign=top;align=left;spacingLeft=30;fontColor=#147EBA;dashed=0;" parent="1" vertex="1">
          <mxGeometry x="249" y="477" width="134" height="89" as="geometry" />
        </mxCell>
        <mxCell id="pe_mHa2sRCJW_RPM9Tu3-15" value="" style="sketch=0;points=[[0,0,0],[0.25,0,0],[0.5,0,0],[0.75,0,0],[1,0,0],[0,1,0],[0.25,1,0],[0.5,1,0],[0.75,1,0],[1,1,0],[0,0.25,0],[0,0.5,0],[0,0.75,0],[1,0.25,0],[1,0.5,0],[1,0.75,0]];outlineConnect=0;fontColor=#232F3E;fillColor=#C925D1;strokeColor=#ffffff;dashed=0;verticalLabelPosition=bottom;verticalAlign=top;align=center;html=1;fontSize=12;fontStyle=0;aspect=fixed;shape=mxgraph.aws4.resourceIcon;resIcon=mxgraph.aws4.rds;" parent="pe_mHa2sRCJW_RPM9Tu3-14" vertex="1">
          <mxGeometry x="44" y="39" width="30" height="30" as="geometry" />
        </mxCell>
        <mxCell id="pe_mHa2sRCJW_RPM9Tu3-34" value="&lt;font style=&quot;font-size: 9px;&quot;&gt;Primary&lt;/font&gt;" style="text;html=1;align=center;verticalAlign=middle;whiteSpace=wrap;rounded=0;" parent="pe_mHa2sRCJW_RPM9Tu3-14" vertex="1">
          <mxGeometry x="66" y="59" width="60" height="30" as="geometry" />
        </mxCell>
        <mxCell id="pe_mHa2sRCJW_RPM9Tu3-18" value="&lt;font style=&quot;font-size: 9px;&quot;&gt;Availability zone us-east-1b&lt;/font&gt;" style="sketch=0;outlineConnect=0;gradientColor=none;html=1;whiteSpace=wrap;fontSize=12;fontStyle=0;shape=mxgraph.aws4.group;grIcon=mxgraph.aws4.group_availability_zone;strokeColor=#545B64;fillColor=none;verticalAlign=top;align=left;spacingLeft=30;fontColor=#545B64;dashed=1;" parent="1" vertex="1">
          <mxGeometry x="574" y="189" width="197" height="400" as="geometry" />
        </mxCell>
        <mxCell id="pe_mHa2sRCJW_RPM9Tu3-19" value="&lt;font style=&quot;font-size: 9px;&quot;&gt;Public subnet&lt;/font&gt;" style="points=[[0,0],[0.25,0],[0.5,0],[0.75,0],[1,0],[1,0.25],[1,0.5],[1,0.75],[1,1],[0.75,1],[0.5,1],[0.25,1],[0,1],[0,0.75],[0,0.5],[0,0.25]];outlineConnect=0;gradientColor=none;html=1;whiteSpace=wrap;fontSize=12;fontStyle=0;container=1;pointerEvents=0;collapsible=0;recursiveResize=0;shape=mxgraph.aws4.group;grIcon=mxgraph.aws4.group_security_group;grStroke=0;strokeColor=#7AA116;fillColor=#F2F6E8;verticalAlign=top;align=left;spacingLeft=30;fontColor=#248814;dashed=0;" parent="1" vertex="1">
          <mxGeometry x="611.75" y="224" width="131.5" height="70" as="geometry" />
        </mxCell>
        <mxCell id="pe_mHa2sRCJW_RPM9Tu3-20" value="" style="sketch=0;outlineConnect=0;fontColor=#232F3E;gradientColor=none;fillColor=#8C4FFF;strokeColor=none;dashed=0;verticalLabelPosition=bottom;verticalAlign=top;align=center;html=1;fontSize=12;fontStyle=0;aspect=fixed;pointerEvents=1;shape=mxgraph.aws4.nat_gateway;" parent="pe_mHa2sRCJW_RPM9Tu3-19" vertex="1">
          <mxGeometry x="42.25" y="31" width="29" height="29" as="geometry" />
        </mxCell>
        <mxCell id="pe_mHa2sRCJW_RPM9Tu3-43" value="&lt;font style=&quot;font-size: 9px;&quot;&gt;NAT Gateway&lt;/font&gt;" style="text;html=1;align=center;verticalAlign=middle;whiteSpace=wrap;rounded=0;" parent="pe_mHa2sRCJW_RPM9Tu3-19" vertex="1">
          <mxGeometry x="77.25" y="45" width="54.25" height="15" as="geometry" />
        </mxCell>
        <mxCell id="pe_mHa2sRCJW_RPM9Tu3-22" value="&lt;font style=&quot;font-size: 9px;&quot;&gt;Private Web Subnet&lt;/font&gt;" style="points=[[0,0],[0.25,0],[0.5,0],[0.75,0],[1,0],[1,0.25],[1,0.5],[1,0.75],[1,1],[0.75,1],[0.5,1],[0.25,1],[0,1],[0,0.75],[0,0.5],[0,0.25]];outlineConnect=0;gradientColor=none;html=1;whiteSpace=wrap;fontSize=12;fontStyle=0;container=1;pointerEvents=0;collapsible=0;recursiveResize=0;shape=mxgraph.aws4.group;grIcon=mxgraph.aws4.group_security_group;grStroke=0;strokeColor=#00A4A6;fillColor=#E6F6F7;verticalAlign=top;align=left;spacingLeft=30;fontColor=#147EBA;dashed=0;" parent="1" vertex="1">
          <mxGeometry x="615" y="345" width="126" height="89" as="geometry" />
        </mxCell>
        <mxCell id="pe_mHa2sRCJW_RPM9Tu3-23" value="" style="sketch=0;points=[[0,0,0],[0.25,0,0],[0.5,0,0],[0.75,0,0],[1,0,0],[0,1,0],[0.25,1,0],[0.5,1,0],[0.75,1,0],[1,1,0],[0,0.25,0],[0,0.5,0],[0,0.75,0],[1,0.25,0],[1,0.5,0],[1,0.75,0]];outlineConnect=0;fontColor=#232F3E;fillColor=#ED7100;strokeColor=#ffffff;dashed=0;verticalLabelPosition=bottom;verticalAlign=top;align=center;html=1;fontSize=12;fontStyle=0;aspect=fixed;shape=mxgraph.aws4.resourceIcon;resIcon=mxgraph.aws4.ec2;" parent="1" vertex="1">
          <mxGeometry x="659" y="395" width="30" height="30" as="geometry" />
        </mxCell>
        <mxCell id="pe_mHa2sRCJW_RPM9Tu3-25" value="&lt;font style=&quot;font-size: 9px;&quot;&gt;Private RDS DB Subnet&lt;/font&gt;" style="points=[[0,0],[0.25,0],[0.5,0],[0.75,0],[1,0],[1,0.25],[1,0.5],[1,0.75],[1,1],[0.75,1],[0.5,1],[0.25,1],[0,1],[0,0.75],[0,0.5],[0,0.25]];outlineConnect=0;gradientColor=none;html=1;whiteSpace=wrap;fontSize=12;fontStyle=0;container=1;pointerEvents=0;collapsible=0;recursiveResize=0;shape=mxgraph.aws4.group;grIcon=mxgraph.aws4.group_security_group;grStroke=0;strokeColor=#00A4A6;fillColor=#E6F6F7;verticalAlign=top;align=left;spacingLeft=30;fontColor=#147EBA;dashed=0;" parent="1" vertex="1">
          <mxGeometry x="615" y="477" width="135" height="89" as="geometry" />
        </mxCell>
        <mxCell id="pe_mHa2sRCJW_RPM9Tu3-28" value="" style="rounded=0;whiteSpace=wrap;html=1;fillColor=none;dashed=1;dashPattern=8 8;strokeColor=light-dark(#B3431B,#EDEDED);" parent="1" vertex="1">
          <mxGeometry x="262" y="386" width="473" height="45" as="geometry" />
        </mxCell>
        <mxCell id="pe_mHa2sRCJW_RPM9Tu3-29" value="&lt;font style=&quot;font-size: 8px;&quot;&gt;&lt;b style=&quot;&quot;&gt;EC2 Autoscale&lt;/b&gt;&lt;/font&gt;" style="text;html=1;align=center;verticalAlign=middle;whiteSpace=wrap;rounded=0;" parent="1" vertex="1">
          <mxGeometry x="456" y="410" width="60" height="30" as="geometry" />
        </mxCell>
        <mxCell id="pe_mHa2sRCJW_RPM9Tu3-31" value="&lt;font style=&quot;font-size: 9px;&quot;&gt;EC2 Web Server&lt;/font&gt;" style="text;html=1;align=center;verticalAlign=middle;whiteSpace=wrap;rounded=0;" parent="1" vertex="1">
          <mxGeometry x="325" y="399" width="53" height="24" as="geometry" />
        </mxCell>
        <mxCell id="pe_mHa2sRCJW_RPM9Tu3-32" value="&lt;font style=&quot;font-size: 9px;&quot;&gt;EC2 Web Server&lt;/font&gt;" style="text;html=1;align=center;verticalAlign=middle;whiteSpace=wrap;rounded=0;" parent="1" vertex="1">
          <mxGeometry x="689" y="398" width="53" height="24" as="geometry" />
        </mxCell>
        <mxCell id="pe_mHa2sRCJW_RPM9Tu3-33" value="" style="rounded=0;whiteSpace=wrap;html=1;fillColor=none;dashed=1;dashPattern=8 8;strokeColor=light-dark(#B3431B,#EDEDED);" parent="1" vertex="1">
          <mxGeometry x="327" y="252" width="308" height="30" as="geometry" />
        </mxCell>
        <mxCell id="pe_mHa2sRCJW_RPM9Tu3-36" value="" style="sketch=0;points=[[0,0,0],[0.25,0,0],[0.5,0,0],[0.75,0,0],[1,0,0],[0,1,0],[0.25,1,0],[0.5,1,0],[0.75,1,0],[1,1,0],[0,0.25,0],[0,0.5,0],[0,0.75,0],[1,0.25,0],[1,0.5,0],[1,0.75,0]];outlineConnect=0;fontColor=#232F3E;fillColor=#8C4FFF;strokeColor=#ffffff;dashed=0;verticalLabelPosition=bottom;verticalAlign=top;align=center;html=1;fontSize=12;fontStyle=0;aspect=fixed;shape=mxgraph.aws4.resourceIcon;resIcon=mxgraph.aws4.cloudfront;" parent="1" vertex="1">
          <mxGeometry x="463.5" y="95" width="41" height="41" as="geometry" />
        </mxCell>
        <mxCell id="pe_mHa2sRCJW_RPM9Tu3-37" value="" style="sketch=0;points=[[0,0,0],[0.25,0,0],[0.5,0,0],[0.75,0,0],[1,0,0],[0,1,0],[0.25,1,0],[0.5,1,0],[0.75,1,0],[1,1,0],[0,0.25,0],[0,0.5,0],[0,0.75,0],[1,0.25,0],[1,0.5,0],[1,0.75,0]];outlineConnect=0;fontColor=#232F3E;fillColor=#8C4FFF;strokeColor=#ffffff;dashed=0;verticalLabelPosition=bottom;verticalAlign=top;align=center;html=1;fontSize=12;fontStyle=0;aspect=fixed;shape=mxgraph.aws4.resourceIcon;resIcon=mxgraph.aws4.route_53;" parent="1" vertex="1">
          <mxGeometry x="347" y="95" width="41" height="41" as="geometry" />
        </mxCell>
        <mxCell id="pe_mHa2sRCJW_RPM9Tu3-38" value="&lt;font style=&quot;font-size: 9px;&quot;&gt;Cloudfront CDN&lt;/font&gt;" style="text;html=1;align=center;verticalAlign=middle;whiteSpace=wrap;rounded=0;" parent="1" vertex="1">
          <mxGeometry x="516" y="109" width="72" height="18" as="geometry" />
        </mxCell>
        <mxCell id="pe_mHa2sRCJW_RPM9Tu3-39" value="&lt;font style=&quot;font-size: 9px;&quot;&gt;Route53 DNS&lt;/font&gt;" style="text;html=1;align=center;verticalAlign=middle;whiteSpace=wrap;rounded=0;" parent="1" vertex="1">
          <mxGeometry x="286" y="100.5" width="60" height="30" as="geometry" />
        </mxCell>
        <mxCell id="pe_mHa2sRCJW_RPM9Tu3-41" value="&lt;font style=&quot;font-size: 9px;&quot;&gt;Application Load Balancer&lt;/font&gt;" style="text;html=1;align=center;verticalAlign=middle;whiteSpace=wrap;rounded=0;" parent="1" vertex="1">
          <mxGeometry x="504" y="251" width="60" height="30" as="geometry" />
        </mxCell>
        <mxCell id="pe_mHa2sRCJW_RPM9Tu3-44" value="&lt;font style=&quot;font-size: 10px;&quot;&gt;AWS Private VPC&lt;/font&gt;&lt;div&gt;&lt;font style=&quot;font-size: 10px;&quot;&gt;&lt;b&gt;10.0.0.0/16&lt;/b&gt;&lt;/font&gt;&lt;/div&gt;" style="points=[[0,0],[0.25,0],[0.5,0],[0.75,0],[1,0],[1,0.25],[1,0.5],[1,0.75],[1,1],[0.75,1],[0.5,1],[0.25,1],[0,1],[0,0.75],[0,0.5],[0,0.25]];outlineConnect=0;gradientColor=none;html=1;whiteSpace=wrap;fontSize=12;fontStyle=0;container=1;pointerEvents=0;collapsible=0;recursiveResize=0;shape=mxgraph.aws4.group;grIcon=mxgraph.aws4.group_aws_cloud;strokeColor=#232F3E;fillColor=none;verticalAlign=top;align=left;spacingLeft=30;fontColor=#232F3E;dashed=0;" parent="1" vertex="1">
          <mxGeometry x="183" y="145" width="626" height="465" as="geometry" />
        </mxCell>
        <mxCell id="pe_mHa2sRCJW_RPM9Tu3-35" value="&lt;font style=&quot;font-size: 9px;&quot;&gt;Standby&lt;/font&gt;" style="text;html=1;align=center;verticalAlign=middle;whiteSpace=wrap;rounded=0;" parent="pe_mHa2sRCJW_RPM9Tu3-44" vertex="1">
          <mxGeometry x="463" y="416" width="60" height="30" as="geometry" />
        </mxCell>
        <mxCell id="pe_mHa2sRCJW_RPM9Tu3-69" value="&lt;font style=&quot;font-size: 9px;&quot;&gt;10.0.6.0/24&lt;/font&gt;" style="text;html=1;align=center;verticalAlign=middle;whiteSpace=wrap;rounded=0;" parent="pe_mHa2sRCJW_RPM9Tu3-44" vertex="1">
          <mxGeometry x="468" y="305" width="60" height="30" as="geometry" />
        </mxCell>
        <mxCell id="pe_mHa2sRCJW_RPM9Tu3-45" value="" style="sketch=0;outlineConnect=0;fontColor=#232F3E;gradientColor=none;fillColor=#232F3D;strokeColor=none;dashed=0;verticalLabelPosition=bottom;verticalAlign=top;align=center;html=1;fontSize=12;fontStyle=0;aspect=fixed;pointerEvents=1;shape=mxgraph.aws4.client;" parent="1" vertex="1">
          <mxGeometry x="194" y="13" width="46.18" height="45" as="geometry" />
        </mxCell>
        <mxCell id="pe_mHa2sRCJW_RPM9Tu3-47" value="" style="line;strokeWidth=1;html=1;dashed=1;opacity=70;" parent="1" vertex="1">
          <mxGeometry x="236" y="24" width="133" height="10" as="geometry" />
        </mxCell>
        <mxCell id="pe_mHa2sRCJW_RPM9Tu3-50" value="" style="endArrow=classic;html=1;rounded=0;fontSize=12;startSize=1;endSize=8;curved=1;exitX=1;exitY=0.5;exitDx=0;exitDy=0;exitPerimeter=0;dashed=1;opacity=70;" parent="1" source="pe_mHa2sRCJW_RPM9Tu3-47" edge="1">
          <mxGeometry width="50" height="50" relative="1" as="geometry">
            <mxPoint x="367.42499999999995" y="45.629999999999995" as="sourcePoint" />
            <mxPoint x="365" y="91" as="targetPoint" />
          </mxGeometry>
        </mxCell>
        <mxCell id="pe_mHa2sRCJW_RPM9Tu3-51" value="" style="endArrow=classic;html=1;rounded=0;fontSize=12;startSize=1;endSize=8;curved=1;exitX=1;exitY=0.5;exitDx=0;exitDy=0;exitPerimeter=0;dashed=1;opacity=70;" parent="1" source="pe_mHa2sRCJW_RPM9Tu3-37" edge="1">
          <mxGeometry width="50" height="50" relative="1" as="geometry">
            <mxPoint x="449" y="196" as="sourcePoint" />
            <mxPoint x="460" y="116" as="targetPoint" />
          </mxGeometry>
        </mxCell>
        <mxCell id="pe_mHa2sRCJW_RPM9Tu3-52" value="" style="endArrow=classic;html=1;rounded=0;fontSize=12;startSize=1;endSize=8;curved=1;exitX=0.5;exitY=1;exitDx=0;exitDy=0;exitPerimeter=0;entryX=0.5;entryY=0;entryDx=0;entryDy=0;entryPerimeter=0;dashed=1;opacity=70;" parent="1" source="pe_mHa2sRCJW_RPM9Tu3-36" edge="1">
          <mxGeometry width="50" height="50" relative="1" as="geometry">
            <mxPoint x="482" y="208" as="sourcePoint" />
            <mxPoint x="482" y="246" as="targetPoint" />
          </mxGeometry>
        </mxCell>
        <mxCell id="pe_mHa2sRCJW_RPM9Tu3-53" value="" style="endArrow=classic;html=1;rounded=0;fontSize=12;startSize=1;endSize=8;curved=1;exitX=0.5;exitY=1;exitDx=0;exitDy=0;dashed=1;opacity=70;" parent="1" source="pe_mHa2sRCJW_RPM9Tu3-33" edge="1">
          <mxGeometry width="50" height="50" relative="1" as="geometry">
            <mxPoint x="495" y="338" as="sourcePoint" />
            <mxPoint x="481" y="353" as="targetPoint" />
          </mxGeometry>
        </mxCell>
        <mxCell id="pe_mHa2sRCJW_RPM9Tu3-54" value="" style="edgeStyle=segmentEdgeStyle;endArrow=classic;html=1;curved=0;rounded=0;endSize=8;startSize=3;fontSize=12;entryX=0.888;entryY=0.082;entryDx=0;entryDy=0;entryPerimeter=0;dashed=1;opacity=70;" parent="1" edge="1">
          <mxGeometry width="50" height="50" relative="1" as="geometry">
            <mxPoint x="479" y="353" as="sourcePoint" />
            <mxPoint x="674.0239999999999" y="389.69000000000005" as="targetPoint" />
          </mxGeometry>
        </mxCell>
        <mxCell id="pe_mHa2sRCJW_RPM9Tu3-55" value="" style="edgeStyle=segmentEdgeStyle;endArrow=classic;html=1;curved=0;rounded=0;endSize=8;startSize=3;fontSize=12;dashed=1;opacity=70;" parent="1" edge="1">
          <mxGeometry width="50" height="50" relative="1" as="geometry">
            <mxPoint x="479" y="354" as="sourcePoint" />
            <mxPoint x="306" y="388" as="targetPoint" />
          </mxGeometry>
        </mxCell>
        <mxCell id="pe_mHa2sRCJW_RPM9Tu3-59" value="" style="edgeStyle=elbowEdgeStyle;elbow=horizontal;endArrow=classic;html=1;curved=0;rounded=0;endSize=8;startSize=8;fontSize=12;exitX=0;exitY=0.5;exitDx=0;exitDy=0;dashed=1;opacity=70;" parent="1" source="pe_mHa2sRCJW_RPM9Tu3-31" edge="1">
          <mxGeometry width="50" height="50" relative="1" as="geometry">
            <mxPoint x="568" y="296" as="sourcePoint" />
            <mxPoint x="325" y="528" as="targetPoint" />
            <Array as="points">
              <mxPoint x="386" y="459" />
            </Array>
          </mxGeometry>
        </mxCell>
        <mxCell id="pe_mHa2sRCJW_RPM9Tu3-60" value="" style="endArrow=classic;html=1;rounded=0;fontSize=12;startSize=8;endSize=6;curved=1;dashed=1;opacity=70;" parent="1" edge="1">
          <mxGeometry width="50" height="50" relative="1" as="geometry">
            <mxPoint x="327" y="532" as="sourcePoint" />
            <mxPoint x="651" y="532" as="targetPoint" />
          </mxGeometry>
        </mxCell>
        <mxCell id="pe_mHa2sRCJW_RPM9Tu3-63" value="&lt;font style=&quot;font-size: 9px;&quot;&gt;Client&lt;/font&gt;" style="text;html=1;align=center;verticalAlign=middle;whiteSpace=wrap;rounded=0;" parent="1" vertex="1">
          <mxGeometry x="262" y="40" width="60" height="30" as="geometry" />
        </mxCell>
        <mxCell id="pe_mHa2sRCJW_RPM9Tu3-68" value="&lt;font style=&quot;font-size: 9px;&quot;&gt;10.0.4.0/24&lt;/font&gt;" style="text;html=1;align=center;verticalAlign=middle;whiteSpace=wrap;rounded=0;" parent="1" vertex="1">
          <mxGeometry x="648" y="320" width="60" height="30" as="geometry" />
        </mxCell>
        <mxCell id="u13Z2D1SPmZEKFeQ43Ei-1" value="" style="shape=image;verticalLabelPosition=bottom;labelBackgroundColor=default;verticalAlign=top;aspect=fixed;imageAspect=0;image=data:image/png,iVBORw0KGgoAAAANSUhEUgAAAK8AAACiCAYAAAA3DJ2rAAAAAXNSR0IArs4c6QAAAARnQU1BAACxjwv8YQUAAAAJcEhZcwAAEzEAABMxAatIXmQAAA01SURBVHhe7d15XNR1HsfxN/chDKczSJmlayueeYSpmym2Ra0btnkUg5aCgYiogOAFagpYgEdogiei4pW2qPuwxdjyemSG6XpmiVYqKMcMIMcA6uwf+GvtKyjHb2Z+35nP88/5PPThY3zJ4+f385vfmGm1Wi0I4ZA5+wIhvKB4CbcoXsItipdwi+Il3KJ4CbcoXsItipdwS7R4E+aV4uLZOvZlQnRGtHgBIDG2BEmLVChX32NHhIhO1HgB4OwPGoR9cBtZG8vZESGiEj1ewcHsKoz3K8Dhr6rZESGi0Fm8gvWpZYiZWoQrl+l6mIhL5/ECQMGNu1gUXYKVS1W4U36fHRPSKnqJV5D3rQahE25hT9YddkRIi+k1XsE/d97BpDGFOHG0hh0R0mwGiRcA6uu0WJ2sRmxEMa7+TNfDpOUMFq/gl/x6LIgqQdqKMlRV0vUwaT6Dxys4/nU1QpS3sH8PXQ+T5pFMvIJdmXcwJeAWTh6n62HyeJKLFwAq79xH6idqLJlTgl/y69kxIYBU4xVcvliH2IhiZKwpR3U1fciZ/JGk4xXkflmF4PcK8a8vKtkRMWFcxCvYkVGB6YG3kfethh0RE8RVvACgKrmHlUtVSFqkwm/X6HrYlHEXr+DsDxrMm1GMzWll0GjoetgUcRuv4KuD1Zg8rhAHs+l62NRwH68ga2MFYqYW4dR3dD1sKowmXjy49XJFggopi1W48dtddkyMjFHFKziTp8GcaUXYsq4cdXV0PWysjDJeQc6BKoQob+Hf+6vYETECRh0vHtx6uXV9OS6dq2VHhHNGHy8xXiYbL93wwz+Tjff6r/VI/USFm9fpVKKtjh27haCgw6io0O8PBJONFwBOHtdgdlgRdmVW4G49nUq0VH5+BRYsyENs7PfIz69gxzpn0vEK9u+pRETwbXxziB6Q0hwazT2kpV1EUNBhHDlSyI71huJ9QF16HxtWlSF+bgku0slEk/bt+xX+/rnYuTOfHekdxcv48UIdEueXYt2nZSgtpgcGCvLyihEWdgzLl5+FWi2Nf9wUbxOO5FYjMvg2sneb9g0/hYXVSEw8jVmzTuDCBTU7NiiK9zHu3QM+31qB6NAik3xAyubNP8HfPxc5OTfYkSRQvM1QePMuVierkfyRCld/1u9xkCHk5NyAUvkfZGRcZkeSQvG2wH9PabAgqhhb1pWj8o7xPSDlwgUVZs06gcTE0ygokP79IBRvK+QcqEJkcJHR3PCjVtdi+fKzCAs7jry8YnYsWRRvK1VX3cfW9eWIiyzB6ZP83gC/c2c+/P1zsW/fr+xI8ijeNrp2pQ7L4lXcrZqPHm1Y6aalXYRGw+eRIMUrkodXzfUSXjXn51cgLi4PcXGGWemKieIV2f49lYiU4Kq5puYu1qxpWOkePWq4la6YKF4dkNqqOTv7F/j752LXLsOvdMVE8eqQoVfNwkp3xYpzKCszvgd4U7x6cCS3GhHBt5G9Wz/PHi4oqEZCgjRXumKiePXk/j3g8613dLpq1mq12LTpMpTKXBw6JM2VrpgoXj3T1ao5J+c6AgK+RmbmT+zIaFG8BvLwqrkt38Vx/rwKUVHfIjHxDBcrXTGJFu9LL9vC3l60385k5ByoQsSHLV81q1S1WLbsLKZNO45Tp0rYsUkQrTYf33b4bKsCvm85sCPyBL+vmiOKceb7Jx+t7djRsNLdv5+/la6YRIsXACwszKAMlCHxUzn69Ldlx+QJruXXI2VJKVYlqXHz+qPXw0eOFCIw8DDS0y+itlb/R29SI2q8gqc7WSIqzhXhMa6QKyzYMXmC747VYN/uRy8jEhJO4+pVvle6YtJJvIIXB9siZa0Co5WO7IiQNtNpvAK/sY5Ys9UDQ4bZsSNCWk0v8QKAg6M5Qma6YF68G7p0tWbHhLSY3uIVdOtpg4XJ7pg4xYmO1kibGKweH992SN/uQUdrpNUMFq9AGShDSrqCjtZIixk8XgCQe1ggKs4VM+fR0RppPknEK+jn3XC0NiZAxo4IeYSk4hW8NcYBGXs96WiNPJYk4wUACwsgZKYLlixvT0drpFGSjVfQqbMVFia7I2SmCx2tkT/gpoYhw+yQvt0DI/9BR2ukATfxCsa9L8PqTA86WiP8xQsAMidzRMW5Ys4SNzpaM2Fcxivo3ssGKWsVGD+ZjtZMEdfxCl4b6YAt2Z7w8W3HjogRM4p4BROnOCE5TY7nvehozRQYVbwAoOhgidil7pgxx5WO1oyc0f7t9n/JFunbPehTHEbMaOMV+I11xKbPO7AvEyNg9PECgKWVGbx62bAvE86ZRLzEOJlsvN16WmPoCHv2ZdIKlpbmCArqBpnMih3plMnG215uicnhzpj9kRv+3J2O1lrrzTefQVbWCCiVXdmRzplsvIIefWwwP9EdgVOd4eJKq+bm6tvXHStWDMasWX3Qvr1h7jMx+XgFw16zR3K6HCPfobvWHkcut0N09AtYtmwQ+vRxY8d6RfE+xNraDOMmyLA0VQ7vwfQpDlZAQFds2+aDN97oyI4MwmTjvXSuFmfyGn8i41PPWGJajAtmznNFp876/U+IFPn4eCIzczgCA7vB0lI6yUjnT2IAKYtLkTCvFKUljT9xsZ+3LZYsbw9loAx29mbs2Oh5eblg6VJvxMb2R8eO0rucMul4AeDS+VrMCLyNLevK2dHvfN9yQEq6Aq++aRp3rclk1ggP74XPPvsLBg5UsGPJMPl4BTkHqjDerwCHDz36aFEAcJSZ4/1gJyxMcjfqT3GMHt0Z27b54O23n2VHkkPxMtavKkdMWDGuXXn04c4A0OV5a0TFuWJKhDM8PC3ZMbcGD1Zg7dqhmDq1Bxwc+LjOp3gbUXC9HnGRxVidpEZ1deNfdjL4FXskrZFjtFIGc47fxU6dHLBgQX/Ex3uja1cndixpHL/tunfiWA2C37uFfY/58j+/sQ5IWavAy5ytmq2tLTB5cjdkZAzHsGGe7JgLFG8z7N56ByHKQpw+qWFHAAD39hb4MNwZcxbzsWoeObITtm3zgb+//le6YqJ4m6mqUotl8SokzCtF4c277BgA0L13w6p50lRnuLhK763t29cdK1cOQWRkb7i78/+fTum9wxJ36XwtokOLsGVdObRadtpg+Gv2SElXSGbVrFDYISamYaXbu7crO+YWxdtKOQeqMGFUAb7JqWZHAACrB6vmxFQ5vAcb7qfc+PFdkZU1Ar6+0ljpionibaMNq8sQE1aMS+caXzU//YwlpsU0PHv42S76ux4eMeIpZGYOx6RJ3WBubpzbQYpXBAXX65EwvxSrk9RQqxo/WuvnbYvFy9yhnCSDfTvdve1eXi74+OOBmD+/nyRXumLS3btogk4cq0H4xFv4YkfTR2u+fg5ITpPjr38Td9Xs5GSN6dMbVrre3nJ2bJQoXh3Yu73haO3E0Rp2BDxYNU/40AmLktuLsmoeM6YzsrJGYNQo6a90xUTx6khVpRark9VImFeKa/mNr5o7d7VCVJwrQiNdWrVqHjLEA2vXDkVoaA/Y27f81/OO4tWxS+drERdRjIy0cmhqGj9bGzTU7sGq2bFZq+bnnnPEokUDsGTJi9ytdMXUjLeKiCH3YBUmv1uIL7Mr2dHv/MY6PnHVHBzshY0bh2HoUHqQiplW29RRu3G7dK4WCfNL2Zf1wrOjFd77QIYXBjT9IJSLZ2vRvfcf56WlGri5tf0a2VhQvAbUf6At3v1A1qrrXUKXDQZ16jsNZk0pws7NFeyINAPFKwEH9lYiRFmIbw41vmomjaN4JaKqUosNq8qwKLoEP16oY8ekERSvxFy5XIf4uSVIW65mR4RB8UqUqqTxeyTI/1G8hFsUL+EWxUu4RfESblG8hFsUL+EWxUu4RfESblG8hFsUL+EWxUu4RfESblG8hFsUL+EWxUu4RfESblG8hFsUL+EWxUu4RfESblG8hFsmHa+ziwX7EuGIycbr1csGqRkK+I1xZEeEEyYbr2B0gCNS0hV4cRA9fZE3Jh8vAMg9LBA+2xVRsa54+hl6YiMvKN6H9Blgi8RUOZSTZLCwMM6vfzImFG8jfP0csG6HB3xeF/cbe4i4KN4mWFmbYWKoEz5KaQ+vnk0/wZwYDsX7BM/9yQpz490QMsOFjtYkhuJtpiHD7ehoTWIo3hYaHeCIVZs96GhNAijeVnByNkf4bFfMXuxGR2sGRPG2QY/eNkhMlSMgyImO1gyA4hXB639vh4y9HehoTc8oXhFNDHVC0hoFHa3pCcUrMg9PC8yNd8P02a50tKZjFK+ODBhki9QMBd7xp6M1XaF4dWzUOEds2NUB3kPs2BFpI4pXD6xtzDAt2gULk9zpaE1EFK8edXneGompcgRNc6ajNRFQvAbwyqv2yNjbAW/4ObAj0gIUrwH5T5IhNUOBXn3paK01KF4Dc3axQPRCN8QscoOLKx2ttQTFKxE9X7DBp5sUUE6SsSPSBIpXYnz9HLAl2xNyD/op/CRmWq1Wy75ICA/oJy/hFsVLuEXxEm5RvIRbFC/h1v8AlfH0zSfoAbIAAAAASUVORK5CYII=;" parent="1" vertex="1">
          <mxGeometry x="897" y="282" width="71.3" height="66" as="geometry" />
        </mxCell>
        <mxCell id="u13Z2D1SPmZEKFeQ43Ei-2" style="edgeStyle=none;curved=1;rounded=0;orthogonalLoop=1;jettySize=auto;html=1;exitX=0.5;exitY=0;exitDx=0;exitDy=0;fontSize=12;startSize=8;endSize=8;" parent="1" source="pe_mHa2sRCJW_RPM9Tu3-63" target="pe_mHa2sRCJW_RPM9Tu3-63" edge="1">
          <mxGeometry relative="1" as="geometry" />
        </mxCell>
        <mxCell id="u13Z2D1SPmZEKFeQ43Ei-3" value="AWS Cloud" style="points=[[0,0],[0.25,0],[0.5,0],[0.75,0],[1,0],[1,0.25],[1,0.5],[1,0.75],[1,1],[0.75,1],[0.5,1],[0.25,1],[0,1],[0,0.75],[0,0.5],[0,0.25]];outlineConnect=0;gradientColor=none;html=1;whiteSpace=wrap;fontSize=12;fontStyle=0;container=1;pointerEvents=0;collapsible=0;recursiveResize=0;shape=mxgraph.aws4.group;grIcon=mxgraph.aws4.group_aws_cloud;strokeColor=#232F3E;fillColor=none;verticalAlign=top;align=left;spacingLeft=30;fontColor=#232F3E;dashed=0;" parent="1" vertex="1">
          <mxGeometry x="164" y="71" width="677" height="576" as="geometry" />
        </mxCell>
        <mxCell id="pe_mHa2sRCJW_RPM9Tu3-70" value="&lt;font style=&quot;font-size: 9px;&quot;&gt;10.0.5.0/24&lt;/font&gt;" style="text;html=1;align=center;verticalAlign=middle;whiteSpace=wrap;rounded=0;" parent="u13Z2D1SPmZEKFeQ43Ei-3" vertex="1">
          <mxGeometry x="119" y="384" width="60" height="30" as="geometry" />
        </mxCell>
        <mxCell id="pe_mHa2sRCJW_RPM9Tu3-26" value="" style="sketch=0;points=[[0,0,0],[0.25,0,0],[0.5,0,0],[0.75,0,0],[1,0,0],[0,1,0],[0.25,1,0],[0.5,1,0],[0.75,1,0],[1,1,0],[0,0.25,0],[0,0.5,0],[0,0.75,0],[1,0.25,0],[1,0.5,0],[1,0.75,0]];outlineConnect=0;fontColor=#232F3E;fillColor=#C925D1;strokeColor=#ffffff;dashed=0;verticalLabelPosition=bottom;verticalAlign=top;align=center;html=1;fontSize=12;fontStyle=0;aspect=fixed;shape=mxgraph.aws4.resourceIcon;resIcon=mxgraph.aws4.rds;" parent="u13Z2D1SPmZEKFeQ43Ei-3" vertex="1">
          <mxGeometry x="502" y="425" width="30" height="30" as="geometry" />
        </mxCell>
        <mxCell id="u13Z2D1SPmZEKFeQ43Ei-4" value="" style="sketch=0;points=[[0,0,0],[0.25,0,0],[0.5,0,0],[0.75,0,0],[1,0,0],[0,1,0],[0.25,1,0],[0.5,1,0],[0.75,1,0],[1,1,0],[0,0.25,0],[0,0.5,0],[0,0.75,0],[1,0.25,0],[1,0.5,0],[1,0.75,0]];outlineConnect=0;fontColor=#232F3E;fillColor=#DD344C;strokeColor=#ffffff;dashed=0;verticalLabelPosition=bottom;verticalAlign=top;align=center;html=1;fontSize=12;fontStyle=0;aspect=fixed;shape=mxgraph.aws4.resourceIcon;resIcon=mxgraph.aws4.certificate_manager_3;" parent="u13Z2D1SPmZEKFeQ43Ei-3" vertex="1">
          <mxGeometry x="242" y="5" width="31" height="31" as="geometry" />
        </mxCell>
        <mxCell id="pe_mHa2sRCJW_RPM9Tu3-67" value="&lt;font style=&quot;font-size: 9px;&quot;&gt;10.0.3.0/24&lt;/font&gt;" style="text;html=1;align=center;verticalAlign=middle;whiteSpace=wrap;rounded=0;" parent="u13Z2D1SPmZEKFeQ43Ei-3" vertex="1">
          <mxGeometry x="119" y="248" width="60" height="30" as="geometry" />
        </mxCell>
        <mxCell id="pe_mHa2sRCJW_RPM9Tu3-65" value="&lt;span style=&quot;font-size: 9px;&quot;&gt;10.0.2.0/24&lt;/span&gt;" style="text;html=1;align=center;verticalAlign=middle;whiteSpace=wrap;rounded=0;" parent="u13Z2D1SPmZEKFeQ43Ei-3" vertex="1">
          <mxGeometry x="476" y="133" width="60" height="30" as="geometry" />
        </mxCell>
        <mxCell id="pe_mHa2sRCJW_RPM9Tu3-64" value="&lt;font style=&quot;font-size: 9px;&quot;&gt;10.0.1.0/24&lt;/font&gt;" style="text;html=1;align=center;verticalAlign=middle;whiteSpace=wrap;rounded=0;" parent="u13Z2D1SPmZEKFeQ43Ei-3" vertex="1">
          <mxGeometry x="113" y="133" width="60" height="30" as="geometry" />
        </mxCell>
        <mxCell id="pe_mHa2sRCJW_RPM9Tu3-58" value="" style="edgeStyle=elbowEdgeStyle;elbow=horizontal;endArrow=classic;html=1;curved=0;rounded=0;endSize=8;startSize=6;fontSize=12;exitX=0.822;exitY=0.556;exitDx=0;exitDy=0;exitPerimeter=0;dashed=1;entryX=0.167;entryY=0.267;entryDx=0;entryDy=0;entryPerimeter=0;" parent="1" source="pe_mHa2sRCJW_RPM9Tu3-28" target="pe_mHa2sRCJW_RPM9Tu3-34" edge="1">
          <mxGeometry width="50" height="50" relative="1" as="geometry">
            <mxPoint x="719.003" y="490" as="sourcePoint" />
            <mxPoint x="382.6700000000001" y="608.56" as="targetPoint" />
            <Array as="points">
              <mxPoint x="428" y="490" />
            </Array>
          </mxGeometry>
        </mxCell>
        <mxCell id="u13Z2D1SPmZEKFeQ43Ei-5" value="" style="endArrow=classic;startArrow=classic;html=1;rounded=0;fontSize=12;entryX=0;entryY=0.194;entryDx=0;entryDy=0;entryPerimeter=0;strokeWidth=0;jumpSize=4;" parent="1" target="u13Z2D1SPmZEKFeQ43Ei-4" edge="1">
          <mxGeometry width="50" height="50" relative="1" as="geometry">
            <mxPoint x="384" y="99" as="sourcePoint" />
            <mxPoint x="408" y="74" as="targetPoint" />
          </mxGeometry>
        </mxCell>
        <mxCell id="u13Z2D1SPmZEKFeQ43Ei-6" value="" style="endArrow=classic;startArrow=classic;html=1;rounded=0;fontSize=12;entryX=1;entryY=0.25;entryDx=0;entryDy=0;entryPerimeter=0;strokeWidth=0;jumpSize=4;" parent="1" target="u13Z2D1SPmZEKFeQ43Ei-4" edge="1">
          <mxGeometry width="50" height="50" relative="1" as="geometry">
            <mxPoint x="462" y="103" as="sourcePoint" />
            <mxPoint x="473" y="71" as="targetPoint" />
          </mxGeometry>
        </mxCell>
        <mxCell id="u13Z2D1SPmZEKFeQ43Ei-9" value="" style="endArrow=classic;html=1;rounded=0;fontSize=12;startSize=8;endSize=8;curved=1;exitX=0.011;exitY=0.398;exitDx=0;exitDy=0;exitPerimeter=0;" parent="1" source="u13Z2D1SPmZEKFeQ43Ei-1" edge="1">
          <mxGeometry width="50" height="50" relative="1" as="geometry">
            <mxPoint x="477" y="355" as="sourcePoint" />
            <mxPoint x="840" y="308" as="targetPoint" />
          </mxGeometry>
        </mxCell>
        <mxCell id="u13Z2D1SPmZEKFeQ43Ei-10" value="&lt;font style=&quot;font-size: 9px;&quot;&gt;Terraform Apply&lt;/font&gt;" style="text;html=1;align=center;verticalAlign=middle;whiteSpace=wrap;rounded=0;" parent="1" vertex="1">
          <mxGeometry x="843" y="313" width="60" height="30" as="geometry" />
        </mxCell>
      </root>
    </mxGraphModel>
  </diagram>
  <diagram id="LwrJPB7s6QAL5fXxn8lV" name="PipelineEC2">
    <mxGraphModel dx="1381" dy="1035" grid="0" gridSize="10" guides="1" tooltips="1" connect="1" arrows="1" fold="1" page="0" pageScale="1" pageWidth="1100" pageHeight="850" math="0" shadow="0">
      <root>
        <mxCell id="0" />
        <mxCell id="1" parent="0" />
        <mxCell id="IOD7RoUm0oGl3qsd1A9J-1" value="" style="shape=image;verticalLabelPosition=bottom;labelBackgroundColor=default;verticalAlign=top;aspect=fixed;imageAspect=0;editableCssRules=.*;image=data:image/svg+xml,PHN2ZyB4bWxuczp4bGluaz0iaHR0cDovL3d3dy53My5vcmcvMTk5OS94bGluayIgeG1sbnM9Imh0dHA6Ly93d3cudzMub3JnLzIwMDAvc3ZnIiBzdHlsZT0iY29sb3I6IHJnYigwLCAwLCAwKTsgZm9udC1zaXplOiBtZWRpdW07IGZvbnQtc3R5bGU6IG5vcm1hbDsgZm9udC12YXJpYW50LWxpZ2F0dXJlczogbm9ybWFsOyBmb250LXZhcmlhbnQtY2Fwczogbm9ybWFsOyBmb250LXdlaWdodDogNDAwOyBsZXR0ZXItc3BhY2luZzogbm9ybWFsOyBvcnBoYW5zOiAyOyB0ZXh0LWFsaWduOiBzdGFydDsgdGV4dC1pbmRlbnQ6IDBweDsgdGV4dC10cmFuc2Zvcm06IG5vbmU7IHdpZG93czogMjsgd29yZC1zcGFjaW5nOiAwcHg7IC13ZWJraXQtdGV4dC1zdHJva2Utd2lkdGg6IDBweDsgd2hpdGUtc3BhY2U6IG5vcm1hbDsgdGV4dC1kZWNvcmF0aW9uLXRoaWNrbmVzczogaW5pdGlhbDsgdGV4dC1kZWNvcmF0aW9uLXN0eWxlOiBpbml0aWFsOyB0ZXh0LWRlY29yYXRpb24tY29sb3I6IGluaXRpYWw7IiBvdmVyZmxvdz0iaGlkZGVuIiB4bWw6c3BhY2U9InByZXNlcnZlIiBoZWlnaHQ9IjYwMi4wMDIwNzUxOTUzMTI1IiB3aWR0aD0iNDA5LjAwMDU0OTMxNjQwNjI1IiB2aWV3Qm94PSItMC4wMDAwNjEwMzUxNTYyNSAwIDQwOS4wMDA1NDkzMTY0MDYyNSA2MDIuMDAyMDc1MTk1MzEyNSI+PGRlZnM+PGNsaXBQYXRoIGlkPSJjbGlwMCI+PHJlY3QgaGVpZ2h0PSI2MDIiIHdpZHRoPSI0MDkiIHk9IjgzIiB4PSI4MzIiLz48L2NsaXBQYXRoPjxjbGlwUGF0aCBpZD0iY2xpcDEiPjxyZWN0IGhlaWdodD0iNTczNDA1MCIgd2lkdGg9IjM4OTU3MjUiIHk9IjAiIHg9IjAiLz48L2NsaXBQYXRoPjxpbWFnZSBpZD0iaW1nMiIgcHJlc2VydmVBc3BlY3RSYXRpbz0ibm9uZSIgeGxpbms6aHJlZj0iZGF0YTppbWFnZS9qcGVnO2Jhc2U2NCwvOWovNEFBUVNrWkpSZ0FCQVFFQVlBQmdBQUQvMndCREFBTUNBZ01DQWdNREF3TUVBd01FQlFnRkJRUUVCUW9IQndZSURBb01EQXNLQ3dzTkRoSVFEUTRSRGdzTEVCWVFFUk1VRlJVVkRBOFhHQllVR0JJVUZSVC8yd0JEQVFNRUJBVUVCUWtGQlFrVURRc05GQlFVRkJRVUZCUVVGQlFVRkJRVUZCUVVGQlFVRkJRVUZCUVVGQlFVRkJRVUZCUVVGQlFVRkJRVUZCUVVGQlFVRkJUL3dBQVJDQUlEQVpzREFTSUFBaEVCQXhFQi84UUFId0FBQVFVQkFRRUJBUUVBQUFBQUFBQUFBQUVDQXdRRkJnY0lDUW9MLzhRQXRSQUFBZ0VEQXdJRUF3VUZCQVFBQUFGOUFRSURBQVFSQlJJaE1VRUdFMUZoQnlKeEZES0JrYUVJSTBLeHdSVlMwZkFrTTJKeWdna0tGaGNZR1JvbEppY29LU28wTlRZM09EazZRMFJGUmtkSVNVcFRWRlZXVjFoWldtTmtaV1puYUdscWMzUjFkbmQ0ZVhxRGhJV0doNGlKaXBLVGxKV1dsNWlabXFLanBLV21wNmlwcXJLenRMVzJ0N2k1dXNMRHhNWEd4OGpKeXRMVDFOWFcxOWpaMnVIaTQrVGw1dWZvNmVyeDh2UDA5ZmIzK1BuNi84UUFId0VBQXdFQkFRRUJBUUVCQVFBQUFBQUFBQUVDQXdRRkJnY0lDUW9MLzhRQXRSRUFBZ0VDQkFRREJBY0ZCQVFBQVFKM0FBRUNBeEVFQlNFeEJoSkJVUWRoY1JNaU1vRUlGRUtSb2JIQkNTTXpVdkFWWW5MUkNoWWtOT0VsOFJjWUdSb21KeWdwS2pVMk56ZzVPa05FUlVaSFNFbEtVMVJWVmxkWVdWcGpaR1ZtWjJocGFuTjBkWFozZUhsNmdvT0VoWWFIaUltS2twT1VsWmFYbUptYW9xT2twYWFucUttcXNyTzB0YmEzdUxtNndzUEV4Y2JIeU1uSzB0UFUxZGJYMk5uYTR1UGs1ZWJuNk9ucTh2UDA5ZmIzK1BuNi85b0FEQU1CQUFJUkF4RUFQd0Q1eThKYTM4V1BIUG1EUlBGdXMzY3Nad1lHOFIrVk1jREpLeHZNck1xamtzQVFvQkpJQUpyU2p0ZmpjODhNTGExNGx0M2xpYWRmdE91TkNBaW1ZTXpGNVFGQSt6VGs1eHhHVzZZTlovdzcrSW1zNk40SjFIdzdwTjdwVnMxdzF6dWl2cEh0M2xXNGc4aVRENzFpZkNqSytieWhKS2ZlYXVuMWY0dCtOdGIxVzB2UEVGNTRlaWp0NzlkUWU1ZzFGVWZlbHVJRUFOck9Kc0tOekFJUWQ3dVRuSkZkazhUUmhKeGswbXVqMytTM2Z5T2VOQ3BLS2trMnUvVDV2cDh6emk3K0tuajZ4dTVyZVh4dHJ4a2hjeHNZdFpsa1FrSEJ3eXVWWWU0SkI3VkczeGI4ZUtGSjhhK0lmbUdSL3dBVFdmMXgvZjhBYXFIajdVbzlhOFk2dHFTWGlYeHZwamR5VFJRR0ZQTWtBZDFDbG1JQ3N6TG5KempQZXNTYi9Wd2Y3bi9zeHJxZzR6aXBKYitWdndldjNuUEpPTGNYMFBUdkNPcGZHWHg3QmNUZUhkVzhZNnpEYnp3VzB6MmQvY3lDT1daaXNLSERjRjJCQUhjMVg4U2VJdmk1NE90YkM1MXZYUEYybHdYNW1XMWt1dFF1RVdZeFA1Y29VbHVkcmdxZlExM0g3TUhpRFJORjBiWEUxWFU5QXNKSDFqUjVJeHJPb1hWc3pJazdGMlFROEZGSExzM0tqbGVheC9qdHJ1bFgyaWVDUDdPdjlHdkpiYWZVMm1YVEx1NHVYUU5lRms4MVpqdEFLOHJ0Kzh2TGMwZmF0WU9sN25CZjhMZThkLzhBUTYrSXYvQnJQLzhBRjBmOExlOGQvd0RRNitJdi9CclAvd0RGMTY1ZWZIWDRlWHQ1Y1g5OTRTL3R2VXBzUFBQcU5nc2l6T0V3Z2lWcmh2c3lJMy9MTUdSV0RFWVVCQXVkQjhiZkFiZUVQN0xQZ3FHeDFLWjRidTR2STdLRzRoKzFyQlBFN3Jic3lwc08rSXFuQVZqSXc3Q2tubzd4RHFsZmY4RHpUL2hiM2p2L0FLSFh4Ri80TlovL0FJdXREUXZpajQwdnIyVmJueHA0bU1FTnJjM1RyRnJFeXM0aWhlWGFHTEVET3pHY0hHZWhycGZpajhTZkFQaXJRdFF0ZkRuaFdEUVpua2lOb0xmVEk0bmpSV1k3Wlp6TEl6a0lRdVVXUGVRR2ZKcnpQdzEveDk2aC93QmdyVWYvQUVqbXB2WnV3ZHRUcGRIK04vaXZ4RmRtMTBxZjRnYW5jaERJWWJQeEpMSzRVZFcyckFUZ2V0VVQrMFhyS2tnNnY0MkJIQkI4VnY4QS9HYTUzNGRlT2RPMER3N3JlaDZoZDZyb3k2aGMydDJtcTZJcXRjS1lmTS9jbFM2WlJ2TjNaM2NOR3B3M2FoOFhkVjByeEQ0KzFQV3RHdlRlV09xUDlzQWxqWkpvV2ZsbzVjZ0F5QTV5eTVWczVCNXdPWG1aMGNxT3cvNGFOMWovQUtESGpiL3dxMy8rTTBmOE5HNngvd0JCanh0LzRWYi9BUHhtcytIeDM0WWwwdTFYVkxXNDFTK3RyVDdQREd5YmJSQnRSY2lKbVlCeXFuTEx0eVNHR0c1TWR4NHY4RnJOR3R2cEVaVERSK1pMWUlBaUw1eGlPQStXT1doRGtuTENNODgwN3N6K1JxbjlveldSai9pYitOdWVuL0ZWdi84QUdhVC9BSWFOMWovb01lTnYvQ3JmL3dDTTF5SGpMeFhwV3Q2UmFXZGxacWtsc0lnazR0VWhQS3UwNCtVbkNtV1E3VjZBS01ZSk5jWlEyMDJpNHBOWGFQWXYrR2pkWS82REhqYi9BTUt0L3dENHpSL3cwYnJIL1FZOGJmOEFoVnYvQVBHYThkb3Bjekh5bzlpLzRhTjFqL29NZU52L0FBcTMvd0RqTkgvRFJ1c2Y5Qmp4dC80VmIvOEF4bXZIYUtPWmh5bzlpLzRhTjFqL0FLREhqYi93cTMvK00wZjhORzZ4L3dCQmp4dC80VmIvQVB4bXZIYUtPWmh5bzlpLzRhTjFqL29NZU52L0FBcTMvd0RqTkgvRFJ1c2Y5Qmp4dC80VmIvOEF4bXZIYUtPWmh5bzlpLzRhTjFqL0FLREhqYi93cTMvK00wZjhORzZ4L3dCQmp4dC80VmIvQVB4bXZIYUtPWmh5bzlpLzRhTjFqL29NZU52L0FBcTMvd0RqTkgvRFJ1c2Y5Qmp4dC80VmIvOEF4bXZIYUtPWmh5bzlpLzRhTjFqL0FLREhqYi93cTMvK00wZjhORzZ4L3dCQmp4dC80VmIvQVB4bXZIYUtPWmh5bzlpLzRhTjFqL29NZU52L0FBcTMvd0RqTkgvRFJ1c2Y5Qmp4dC80VmIvOEF4bXZIYUtPWmh5bzlpLzRhTjFqL0FLREhqYi93cTMvK00wZjhORzZ4L3dCQmp4dC80VmIvQVB4bXZIYUtPWmh5bzlpLzRhTjFqL29NZU52L0FBcTMvd0RqTkgvRFJ1c2Y5Qmp4dC80VmIvOEF4bXZIYUtPWmh5bzlpLzRhTjFqL0FLREhqYi93cTMvK00wZjhORzZ4L3dCQmp4dC80VmIvQVB4bXZIYUtPWmh5bzlpLzRhTjFqL29NZU52L0FBcTMvd0RqTkgvRFJ1cy85Qmp4dC80VmIvOEF4bXZIYW1zbldPOGdkamhWa1VrK2d6VHV3Y1Vldkg5b25XMWZZZFc4Ymh2N3A4VlBuLzBUVGY4QWhvM1dQK2d4NDIvOEt0Ly9BSXpVaS9FanczcE45ZVcxMUJlYWhQSnF6YW0ycHd5eHlMdkV2N3RWVWpMQVE1R2Q0d1hJMjhBMXk5NTQ2MGhwZk5oMHEzYTQreVdNY1V4dEVqRUVzUVh6RzJxY09DVkp5ZVNEZzhVb3liU2JNL2tkTi93MFZyV3pmL2EzamZabkc3L2hLM3huMC8xTldOUitMZmpOYmhHdGZHWGlhS0NXR0taRW0xbVoyWGZHcllMQXFEamQxd0t3dkYvaXpUTmE4QzZxbHZmVHkzVjFxZGxPMEZ6SzdGbVNLNVdSNHc3TXdRQjRWK1ppYzU3RGpPdk9sbi8xNVd2L0FLSVN0S2J2SnBpa3JKTkhTLzhBQzN2SGYvUTYrSXYvQUFhei93RHhkSC9DM3ZIZi9RNitJdjhBd2F6L0FQeGRjbFJYVFpkaks3T3Qvd0NGdmVPLytoMThSZjhBZzFuL0FQaTZQK0Z2ZU8vK2gxOFJmK0RXZi80dXVTb29zdXdYWjF2L0FBdDd4My8wT3ZpTC93QUdzLzhBOFhSL3d0N3gzLzBPdmlML0FNR3Mvd0Q4WFhKVVVXWFlMczYzL2hiM2p2OEE2SFh4Ri80TlovOEE0dWovQUlXOTQ3LzZIWHhGL3dDRFdmOEErTHJrcUtMTHNGMmZUWC9EdUg0OC93RFFxV24vQUlON1gvNDVSL3c3aCtQUC9RcVduL2czdGY4QTQ1WDdMVVY1L3dCWW1kZnNZbjQwL3dERHVINDgvd0RRcVduL0FJTjdYLzQ1Uy84QUR1SDQ5SC9tVmJUL0FNRzlyLzhBSEsvWldpajZ4TVBZeFB4cC93Q0hjUHg1L3dDaFV0UC9BQWIydi94eWovaDNEOGVmK2hVdFAvQnZhLzhBeHl2MldvbytzVEQyTVQ4YWYrSGNQeDUvNkZTMC93REJ2YS8vQUJ5ai9oM0Q4ZWYraFV0UC9CdmEvd0R4eXYyV29vK3NURDJNVDhhZitIY1B4NS82RlMwLzhHOXIvd0RIS3RhZi93QUU4UGo3cHR3MHFlRXJHVGRGSkM2U2F0YTdYU1JHUjFPSlFlVllqSUlQUEZmc1pSUjlZbVAyVVQ4YnYrSGJ2eGovQU9pYTZOLzRQRi8rU2FQK0hidnhqLzZKcm8zL0FJUEYvd0RrbXYyUm9xZmF2c2grelhkbjQzZjhPM2ZqSC8wVFhSdi9BQWVML3dESk5IL0R0MzR4L3dEUk5kRy84SGkvL0pOZnNqUlI3VjlrSHMxM1orTjMvRHQzNHgvOUUxMGIvd0FIaS84QXlUUi93N2QrTWY4QTBUWFJ2L0I0di95VFg3STBVZTFmWkI3TmQyZmpkL3c3ZCtNZi9STmRHLzhBQjR2L0FNazFBZjhBZ25YOFhGZGxQdzQwYmNwd1IvYlk2LzhBZ1RYN01WZ1RmOGZWeC8xMFA4aFI3VjlrSndYZG41Qy84TzdQaTUvMFRqUnYvQjJQL2ttai9oM1o4WFAraWNhTi93Q0RzZjhBeVRYNjgxNVYrMUxlYXRZZkFQeGZObzd5eDNBdDBXNGxnSldTTzBNcUM2ZFNPUVZnTXB5T1JqSTVGSjFtbGV5S2pUNXBKWFB6RXQvMkhQSHQzZDZoYXdlRlBDczExcHdKdllJL0UwYlBhZ2RUSW91c3Avd0xGVDZ4K3dmOFJ2RDJuZjJocXZnencxcGxoa0Q3VmVlSTBpaXllbnpOZEFjMStqL3hTOEhlQzlBL1o1OGRYSGhUUmRFc0xjK0ZMNUxhZlNyYUpBMEJ0bUlDdWc1VTRVOWNIQU5ZM2hUU05EOFQvSGpWclh4WmFXR28zTm40VzBwOUJ0TlJSWlZXM2Z6dnRVa1NPQ054a0Vhc3c1d0VCNFBOZTFkMnJiVzZldjhBa1p1S1ZuZmUvd0NuK1orZWx4K3d4OFFMU1Myam44SmVGb1pMbFE4Q3llSlkxTXFub1ZCdXZtQjdFVnEvOE83UGk1LzBUblJ2L0IyUC9rbXZ2K1h3bDRiMUw5cDY5c2IvQUViU3JyVExmd1JiTERiWE5yRThNUy9iWnhoVkl3QmpqaXRYOWxTV1NUNGQ2dEhBL20rSFlQRVdwd2FDNGJjaDA5YmxoRUVQZU1IZXFZNDJxdU9NVlhPN1hzdHIvallsTFZyczB2d3VmbTFxMzdDUHhGMEJvbDFQd2I0WjA1cFFUR0x2eEhIRVh4MXh1dWhuR1IrZEpjZnNKL0VPMDBSdFpuOEhlR0lkSVZkNTFDVHhKR3R1Qm5HVElicmJqUEhXdjBVK0xta1hlcy9IendaRFo2VG9Hc1NMNGMxVmpENGh6NUNqN1RZZk11RWY1dWNkT2hQTlVyclF0UDFIOXBQUU5EOFVhVm83YURiZUVEY2FKcHp3bzFsOXZOemk4YUJHVUF1c2ZrZ0hHNEs3ZE56VkVhcmtsb3RiL2hmL0FDTkhDemxydGI4YmY1bjU0MzM3RVBqclROSXQ5VnZQQy9oTzAwdTVJV0crbjhUeEpCS1QwQ3VicmFjOXNHdGhmK0NkM3hiWlF5L0RuUmlDTWdqV3h6LzVNMStrSHhXWHduNGIwVFQ5SnNmQ1dpYTU0aXZsbXRkQjBaN09MeXl6RUdWeWRwRVVLa2g1SHgyQTVZcUQyWHd2OElmOElCOE92RFhobzNoMUJ0SjArR3phNlA4QXkxS0lGTEQwR1FjRHNNQ243VjJidC9YOWZtTGt0YlUvSzcvaDNaOFhQK2ljYU4vNE94LzhrMVZUOWdING5TYW5McHErQlBEN2FqRkV0eEphRHhBcG1TTml5cTVUN1RrS1NyQUhHQ1ZQb2EvUkR4TDRrOFM2ejhVUGlKb3RyNHp1ZkMybmVIdERzZFJ0RGJXMW82K2JJTGt1WlRORTVaUDNLWkFLbkdjRVY1MzRxK08zaXlEd1BxdmltMlcxMGJXMzhEZUc5VzNmWW8yZUdlN3ZabzVnUzRMRk5vNFZpUXZKNEpOS0ZWelYwbDIvUC9KbWlvdVQ1VSszNXhYL0FMY2o0OS80ZDJmRnovb25HamYrRHNmL0FDVFdmcm43QnZ4SjhNMkszbXJlQi9EK25XalRSVzRtdWRlVkZNa2poSTB5Ym5xenNxZ2R5UUsrOXZpYjhVL0Yvd0FIYnp4amFXZXEzbmpOSWZEQzYxYnkzdHZhaVhUNXpkQzM1TVNRbzBaVnpJQS9QN2g4dmc4Y3g4V05SOGEzZncvdjA4UjJldlFhS3V2ZUdIc1p2RXJhV2JvekhWWXhNcS9ZSEtlWHRFSkc4QnNsdVNPalZSdHgwV3R2enQraGxLUExGeXZ0ZjhrLzFSOGFXWDdBdnhNMUs3dnJXejhEK0hicTVzSkJEZHd3ZUlVZDdlUXFIQ1NLTHJLTVZaV3djSERBOURWei9oM1o4WFAraWNhTi93Q0RzZjhBeVRYMng0eCtLUGlYUnZFdmpPMDBpOHR0TGtQeEQwVFFWdW9iR0V5ZlpybTB0V2wzRXFkNzVrYkROa2dZSFFZcFBHdnhaOGJmRDY0OFphSEJxdW9lSlpMZnhKb3VsMmQ4MXRaSmUyOE41R3J5QVpXRzNMWnlxTklBQVhYZHV4eWUwZG91eTFzdm0wbitwZnM5OWU3K1NiWDZIeFIvdzdzK0xuL1JPTkcvOEhZLytTYVArSGRueGMvNkp4bzMvZzdIL3dBazErbXZ3YnZ2R041WjY2UEZscHFkdEZIZkFhWTJ0R3grMnZibUpDM20vWW5hSGlUekFDTUVydHlNOG4wU2s2clhSRThubXo4aHYrSGRueGMvNkp4bzMvZzdIL3lUUi93N3MrTG4vUk9ORy84QUIyUC9BSkpyOWVhS1BhdnNnNVBNL0liL0FJZDJmRnovQUtKeG8zL2c3SC95VFIvdzdzK0xuL1JPTkcvOEhZLytTYS9YbWlqMnI3SU9UelB5Ry80ZDJmRnovb25HamY4QWc3SC9BTWswZjhPN1BpNS8wVGpSdi9CMlAva212MTVvbzlxK3lEazh6OGh2K0hkbnhjLzZKeG8zL2c3SC93QWswdDMvQU1FK2ZqbGRUQng0VHNZVlZFaldPUFZyZmFxcW9WUU15RTlBT3BOZnJ4UlRWYVMyU0IwMDl6OGdmK0hlSHh5LzZGaTAvd0RCcmJmL0FCeWovaDNoOGN2K2hZdFAvQnJiZi9ISy9YNmluOVltTDJVVDhnZitIZUh4eS82RmkwLzhHdHQvOGNvLzRkNGZITC9vV0xUL0FNR3R0LzhBSEsvWDZpajZ4TVBaUlB5Qi93Q0hlSHh5L3dDaFl0UC9BQWEyMy94eWovaDNoOGN2K2hZdFAvQnJiZjhBeHl2MStvbytzVEQyVVQ4Z2YrSGVIeHkvNkZpMC93REJyYmYvQUJ5ai9oM2g4Y3YraFl0UC9CcmJmL0hLL1g2aWo2eE1QWlJPZ3JEOFozdDFwK2hHYTBOeUpCYzI2dWJPM004b2lNeUNRcWdWaWNJVzZBNEdUMnJjckM4Y2VOTk0rSHZoZTkxL1YzbFd4dGRpbGJlSXl5eU83ckhIR2lEbG5aM1ZRQjFMQ3VWblN0emlkSzhkK0xyZVJZcjdRNTVZSVE4anlOWXplZFBiQ1J0c3E3QnQ4MHhBWmgyaHR4N2NJV1h2anJ4bXR4dVhRSnliWmc3V2NGcElETis0ZGxYelR1VXEwaFZjZ0FvVjV6azQ2RzErTG1nd1FhV1BFVW4vQUFoT282cE1ZTExTdkVWeGJ3WFU3QWdmSXF5dUd5V1VEQnpsZ09DUUt6TG45b1B3TGJlT3B2REgvQ1E2YkpQYVdGM2Y2aGRwZlErUnA0dDVZSW5TZHQrWTJMWEM0Qkg4RGc0SXhSSmN6MC9xMnY1RXg5M2ZYK3JGWWZFZnhHczF0Q21rbThuSkRlVW1tM01MWEtGbFVzQTUvY0JkeE9aTWh2TE9QdkRHNzRNOFErSVBFY2pycUZtTEMyRUFmelRaeXdTTTdNNDJoWkNkcFVLTS9lemtIak9CeTNpajlwM3dUNFh2cmQ5MTFxK2xQcDhlcFRhOXBDeFhObGJXejNCZ0RPNGszSDk0Q0NFVnNkK2hyZTA3NDZlQ3ByU3prMUx4RnBHaFhGNWN5MjF0YVgrcTJ2bVRGTGg0QVYyU01EdWRDQUFjZy9LUUdCQUVucDUzL0QvSWJWdGZUK3Y2N21mRDRzOFdhUTBVRDZaZDZveFdhVEUxbzRhWEVzeXFva1JRa2UxWTR6ODRKZnpSajNZbmp6eFNxenp0cFZ6S3FTUXhvWTlKdUFKNDl6ZVk2Uk1ReXR5cTRkeDkwc001Q25UMTM0NGVFdEp1a3RMWFZiWFc3NGF2YWFMYzJtbTNNVXN0cE5jUytVaGxYZGxRR3pudjhwR01qRk9zdmpoNE1heHNadFQ4UmFUb1U5N08wRnZhWCtxVzNteU41N3dMdDJTTUczUEd3R0NlUVFjRUVCcnAxdjhBOEQvTmZlUzFyYSszL0JYNkhlMFZpYUg0MjhQK0o5UjFQVDlJMXZUOVV2dE1rOHE5dDdPNVNXUzJmSkcyUlZKS25Lc09lNmtkUWEyNkNnb29vb0FLS0tLQUVQUTg0OTY4YThFL0VMWE5aOFhhZHBtb2FvcTZFSlp4cCt0QzFFWThRbFFjUmpJd213WkpLNDgzWnVUQ2hoWHMxTThtUGFnMkxoUHVqSDNlM0hwVEVQckFtLzQrcmovcm9mNUN0K3NDYi9qNnVQOEFyb2Y1Q2tERXBza2FUUnNqcUhSZ1ZaV0dRUWVvSXAxWUhqZnhkYitDTkRHcFhYa2lJM0VOdnZ1YmdRUklaSkFnWjNJSVVBdDFvMzBKMjFNL1RQZzk0RDBWNzF0UDhFK0hyRnIyQ1MydWpiNlZBbm54UC9ySTN3bnpLM2RUd2U5WHZFdnc4OEsrTTRMU0hYL0RXa2EzRmFmOGU2YWhZeFRpSGpIeWJsTzNqaml1YjhQL0FCeThQNnhhVFQzUG5hY0lwSVVrU1NKM01Ba1NGbE1wQzdVNXVFR1FTTUVIT000YzN4dTBCcmlReHUzMktGSTVKYmlWSkVLaDBlUVlUWmsvSW9iL0FJRmpnakZWWnRwZDdmOEFBQytqZmIrbitocDZoOEhQQU9yTFpyZmVCL0RkNnRsYnJhMm91Tkp0NVBJaFVrckdtVU8xQVNTRkdBTTFQNGg4RjNtcHBaUmFQNG8xVHdsYTJzZmxDMjBlM3N6R3c0eGtUUVNZd0JnQmNEMm9zZmlYb09vNjBkSml1SmhxQ3pDQ1NHUzNrUXh1VlpsRFpIRzVWWWoxL0VWUUh4ajhOUldON2RYYzl4WXJheVR4c2s5dTI5eERMTEU3SUZCM0FHQ1FuSElBQklHYUxTZHY2M0VtdWdYSHdmOEFEbmlHd3M0ZkdkaFpmRUc3dERKNUYvNG0weXpubWlWeUN5cnRoVlZIeXIwVVp3TTV4V2plL0Mvd2JxWGgreTBHNzhKNkhjNkpaSGRhNmJMcDBMVzl1YzV6SEdWMm9jazlBT3RWbStLL2h4YjZheE54Y0crZ0lXZTFTemxlV0luZHNESUZKeSswN1JqNXVNZFJXaDRsOGQ2UDRRMUhSN1BWcmcyajZzODBWdEs2bnl5OFVMek9yTjBVK1hISXd6MTJHazlyOVA2WTdlOWJxWk43OEQvaHpxVnJZMjEzNEE4TDNkdFlvMGRwRlBvMXM2MjZzMjVsakJUQ2d0OHhBNm5rODFGY2ZDeHJOSUxYd3g0bTFId1BvMEVleUxSL0Q5anA4ZHBHZHhabVZaTFp5Q1NTVGc0OXV0V3REK0tlazYvcldrNlpEYTZqYnk2dHAvOEFhZGxOYzJwU09hSUxHekFIUERLSm84Z2djbkdTUVFPeG9zMW9GMHp5ZXgvWjQwTzU4Y2F4NGg4VS9aZkc4bDlZMlZtbjl1NmJieXlSdEFaaVpNaEFtVzgwRENvbytRZGExL2pCOEg5TytLbmdqV3REVVd1bDNtcHcyMXRKcVF0RmtrOG1HY1RKRWVoWkFkK0ZKd043SEhKekxvL3hmMGkrc29MdTllT3hodWJsclcyQ3Uwck5JdVNVYkNBSzIwRnNaUHlxeHpoVFdqYmZFN1FMc1NHSzVsUGxGQkwvQUtPNDhyZVZFZTdqamNXWEgxOWpVcXlWMXR2K3BTazRTVFcvK1gvREZyUS9oNTRXOE5XbC9iYVQ0YjBqVExmVUJpOGlzN0dLSkxrWUl4SUZVQitDUnpuZzFUcy9oSDRHMC9SNzdTYmJ3ZG9NR2wzd1FYVmttbXdpR2NJY29IVGJoZ3A1QUk0N1lxQ1Q0c2FISHFGN2JGNUVpc1haTGk1bGpaWXh0VzRMQk1BbGlwdFpBUndQUW5vZEd5OGZhUHFGL2JXVVVzMzJtZVF3aEdnY2JKQjV2eU1jWVUvdUpldjkzM0dYdUpwcmNuazhEZUc1WGtkL0QrbHU4bDNGZnV6V1VaTFhNU3FzVXgrWG1SRlJBcjlWQ2dBakFxUy84SGFEcXNXcVIzdWlhZGR4NnFFRitrOXBHNHV3b3d2bWdqNThBQURkbkFIRlpWNThVdkQybjNGekZjWEU4WDJmUG15RzFrMkx6S3VjN2VjdEJLQjZsZmNabzZyOFpOQTB4WE82ZC9zMDZRM3dlQ1JQc1lZdHpKbGVEaFdJWHFSZ2pxTXV6bHB2L1NYNnI4Q2JxUDhBWHEvOHpwUERmaEhRL0J0azlub09qMk9qV3J2NWp3Mk51a0tzMkFOeENnWk9BQmsrZ3JYckwwSHhIWmVJNFpaYkl6RlltS1A1c0R4NFlNeWtaWUFFZ3FlbWV4N2pQQ2FwKzBYNFAwYTMxQzd1NUwrTFRiUVh3WFVEYU41RjFKWnJJMXpIQzM4YklJWmV3QjJOdEp3YU5SbnA5RmVhK0lmMmdmQ3Zoelc3ZlNKdnQxeHFWeExCREZCQkFQbWFhM2x1RUc1bUNqOTNESVRrOWdPcHBOYS9hRThJZUh0Tmt2cjZhOGhpanZMNndkZnN4TExOYVcwbHpPdUI2Und2Zzl5QU85RFRpN1ArdjZ1aHg5KzNMcmYrdjBaNlhSWG1ONyswSjRhMHpUTFBVTHkxMWEzdExpeXVOU01ndFBOOG0waE1Ra25jSXpZUWVjblRKNm5IQnIwdUtWSjRrbGpZUEc2aGxZZENEME5GbUs0K2lpaWtBVVVVVUFGRkZGQUJSUlJRQVVVVVVBRkZGRkFIUVZ5dnhPOEF3ZkUzd1hlNkJQZXo2WThza054YjM5cUZNdHRjUXpKTkRLb1lFRXJKR2h3Umc0eDNycC9Pai92citkSG5SLzMxL09ndTlqd1h4ZCt6RHFmeERkcC9FM2pocjY4dnRQOEE3RjFhYTIwcElCZFdBdUZuV09KZk1Qa3lCbGJNbnpaRC9kRzFTTWk0L1l2dDdpMHVySC9oTXJ4Tk9qajFCZExqUzBWSmJOcnJVYmZVQ3pTcTRhVGJOYmdEN3BLdGpJSTNWOUkrZEgvZlg4NlBPai92citkVXBOSkpQUlgvQUIzQnUrL2wrR3g0bDRNL1pROEs2QnJtbGFyck5ycHZpRzQwNnlhQ0dPNDA4dEhITzEzSmROY3I1MGtyaHk4aHlTeE9SblBZY2hmZnNqNmpkNnBQb3FlSXZJOEpYbW5Ud2FoY2ZaRWE0dVBPMVNXOWVGQVcvZEVDUUtKUG00enhuQkgwNTUwZjk5ZnpvODZQKyt2NTFueXE4WmZ5M3Q4OS93QXgzMGE3Mi9EWStkOUkvWTZzL0Q5eGRTYWQ0bGxqSzZ0QnF1bnkzRnZKUExiZVhlbTc4bGk4eFJrTEVqNUVqUGNsanliTi93RHNpV0Y5NFp2ZEhieEhPb3VZSVlQTyt5S1N2bDZySnFPUU4zZHBQTCtnejdWNy93Q2RIL2ZYODZQT2ovdnIrZFV0SEZyN043ZlBmOGhYMWI3Mi9EVkhsSHdaL1orcy9nM3JtdDN0cHFiNmpEZTdrdGhjTEtacmVKcHBKdkxMdEt5bFEwaHhzU1AxT1NjMTYxVFBPai92citkSG5SLzMxL09qb2wwUWRXK3JIMFV6em8vNzYvblI1MGY5OWZ6b0FmUlRQT2ovQUw2L25SNTBmOTlmem9BZlJUUE9qL3ZyK2RIblIvMzEvT2dCOVlFMy9IMWNmOWREL0lWdWVkSC9BSDEvT3NPVWhybTRJT1I1aDVINFVDWWxaSGlXMlM1c29ON1dpZVhjeFNxMTZTRURLd1pjWUkrYklHUGV0ZXZFdjJ0ditTZWFKLzJNV25mK2phNThSV2VIcFNxcFg1ZGZ1T2F2VTlsU2xPMTdJNnE4K0ZWcGYrS2JqV2JpRzBjM0Z5MDg4QWttRVU1Vll4QzhpQjlyc1BKanlHQlg1QVFvUE5STDhKTEpiS0tBMmxsS0k3VXdvazkxZHlJckhJMmdOS2NSaENRcS93QU80NHhrNTlhd1BRVVlIb0s2VTJyVzZIUnk3K1o1M0Q0SEZ0NGxsMXlDS3p0NytXZEhsbGltdUU4NU5tMXZNUVB0ZGgvRHVCQzVKQXlTYXc5VytFUTFmN1NyeTJzRU05dnFVUmppM255NUx2NzhzWmN0c0o1eUJoZm1ZNHlhOWd3UFFVWUhvS0x0QW9wYkhsSy9DMkMyTXM5ckhCRGZ2YmhHdWhmWGdsbmRpZC9uU0NYZEtvRE5zM0VsTThFVnFmRkw0WWFKOFh2Q1V2aDdYV3VFczNrU1VTMmNvam1RaklZSzVCd0hSbmpiSEpXUmdDTTVyMExBOUJSZ2Vnb3ZlM2tPMW5jODEwNzRYMittZkVpNjhZUmVJTldhU2UxanNocEVodG1zb1lVWENwSCs1ODFCdStjZ1NZTGRjZ0FEdG1iNVR0STNZNHpXcGdlZ293UFFVWEZZOG10dmhUQmJSWU1OcmNFS1pZNHJ1OXZMaUdDNDh3Tm1KSkptRVNiUmpDQWRTUHVraXA1ZmhkYVBCOW1DSWJaU2tTaHRRdkM1ZzZzcGJ6Y2txM01lZUVQSXdlYTlTd1BRVVlIb0tYU3c3SGwwUHd4dEV6dnM3Qi9Nam1qbTNUWERDVGQ1MjFqdWtPV1AyaVhjeHl4M25CSEdMZW5lQzVkSmpoTnJGcHd1SU5raVN6UFBLNW16SVhkbVp5elo4K1hCSkp5L0pQRmVqWUhvS01EMEZPOWdzZWQzdmdTMzFDVzRXNHN0TW1nbm14SXJDWExRNWxZQS9OamR1bWxPZW56bmpwV1NQaEhZdkFGbnNyR2VSb0hFL20zRjA2M014WmlyVGJwVDVvQVk4eWJtR1RnZ2NWNjFnZWdvd1BRVUoyMkU0cDduSCtGOUJrOFByTkNaZk10OWtheGI3cWVlVElCTDdtbGRqOTVqakhPTUE1d0s4MjFQOW1yU3RTMWhZcmpWcm0rOEh1Mm95dDRidkFwaXQ1cnhKVW5sZ2xYYTY1RTh3MnVYQTgxdHUzakh2T0I2Q2pBOUJSY2FWdGp3TFVmMld0QzFjV1U5NTRuMSs0MWUwdlk3eE5WbEZqSk0zbDIwbHRIRXlQYkdKa1dPVjhaajNiamtzVFZ2WHYyWi9EZmlTNTFNMzJyNnpKWjNvdlpCWXBKQXNVRnpkV3JXdHhkUjRpM2VZMGJ2d3pNZ0xzUW5USHVXQjZDakE5QlEyM3EvNi9xeUNQdVc1ZExIaFUvN05HajNXazZmcHMvaW54QTlwYTJOMXBjcVIvWVlQdGRuY0dJeXdTK1ZiTGhUNUsvTkhzZmxzc2M4ZXZXOFVWckJIREVBa1VhaEVVZEFBTUFWcjRIb0tNRDBGRjJ4V3RvWm00ZW9vM0QxRmFlQjZDakE5QlNIWXpOdzlSUnVIcUswOEQwRkdCNkNnTEdadUhxS053OVJXbmdlZ293UFFVQll6Tnc5UlJ1SHFLMDhEMEZHQjZDZ0xHWnVIcUtOdzlSV25nZWdvd1BRVUJZek53OVJSdUhxSzA4RDBGR0I2Q2dMRjNGR0tXc1R4cjR1c2ZBWGhUVlBFT3BDVnJEVG9UUE1JRkRQdEhYQUpHVCtOQXpheFJpc0R3djQzMG54MTRUaDhRZUhiMkhVYkM0aU1rTXBZb3VRUHV2a1pVZzhFRVpGZWE2UCswQkxIWmFZbW8yY0Y5cUU5MjF0Y216ZElvMElhM1hiQVZrbFc0Yk55aCtWeDhvZklWbEswdXRoTjJWejJuRkdLOGJ0djJsTEMrdEpybTAwUzR2SW9MQnRRbSt6WENPVVZMZUNaMXgzWmZQQzQ5Vk9jZHRud2g4YVkvRlhpeTcwTWFXcXZhMlgycVM1czd4Ym1ObTJvMjFDRkc5U0pBQTQ2c3JBZ1lCTldkN0M1azlUMHZGR0s0SFQvaWl2aUx3UHBmaUsxdExqdzdCZlhYMmR6NGh0L0phMVVNNEx5SnZHQVNnQStZZmZYNlZUaytNOXZGZXRacEZaM2JINVlyd1hxeHdFcTZvV21PRzhsV0xaajVmZU9tS1hrTnRMVm5wV0tNVjQzNFcrT3R4NGowYlJXa2lzdE5udWJlMmU3MUM0ay9jV3JQRXJzWGpMS1ZWaXlyR2Q1QjNja2ZLRzJSOFpZMzFaTkxzN09EVkxpWGVrRTBGMnFvN0l5cVdrQURHSkdMaGtPWDNLR1BZWmJUV2pCdXphN2YxK2g2WGlqRmVWMlh4dm4xQ0d4ZUh3L3dEOGZjVnZjb0h2UU5zVTV0MWpKK1EvTm01VEs5QUZiQlBBT2g0YitLRjNydmpLMTBlU3d0cldDYU9ZdXpYSjNySkhGYk9VUWJjU2Y2OXVmbE9GempqbWI2MjlmdzMvQUNIdmYrdjYzUFJNVVlwYUtZQ1lveFMwVUFKaXNHYi9BSStyai9yb2Y1Q3Qrc0NiL2o2dVArdWgva0tCTVN2RXYydHYrU2VhSi8yTVduZitqYTl0cnhMOXJiL2tubWlmOWpGcDMvbzJ1REgvQU82MVBSbkJqZjhBZHAraDcvV1BxM2pMdy9vRjVIYWFucm1tNmRkeUFNa0YzZHh4T3dKd0NGWWdubml0aXZCZGMwZlh0QzhYNi9iM1ZucTE5cHV0Nmg5cWROSzAxYnIrMDRnaUNPM2tuWTR0MVhhWTJFZzJsTUZXVWxxMXhGV1ZKSnhWNy8xL1grZWh2WHF5cEpPS3YvWDlmMW9lejY5NG8wYnd0WnBkNjFxOWpwRnE3QkZudjdsSUVaajBBWmlBVDdWZnQ3aUs3dDQ1NEpVbWdsVVBISkd3WlhVaklJSTRJSTcxNDM0bStHdmlDZjRYZUQ5UHM0YmcrSzlFZ0gyZStzTlNXQnJLYnlTbUEwaU1KSStkaEJHU3ZQV3VkMVg0WWZGYlVyK1dWOVpDNmxMSGw5VnQ5VGtpaUNIVHpFMXV0dUFGWE56KzhEZ0RHYzhFWXJtbGlxc1gvRGIyMjgvUCt2VXdsaUtzWC9EYjIvcit2dlBvcWl2QS9EM3cyK0lXcGVKOU11ZkVGOWRXbWtKTkFibTF0OWJtM0ZJN0F4RTVRcm5kT0ZjalBPY25QTlp1cGZDNzRrWHZoclNMRVhOOWIza0VrNjZuZDIvaUNWcEwxMlVpTzVqM0VCQ3BHUW5BQllZQjJDajYzVXMycVQvcTNsNS9ndytzMUxYOW0vNnQ1ZWY0TStqcUtnc0lwSWJDM2ptZHBKa2lWWGR6bG1ZRGtrK3RjaXNIaTJ5c1o0TFFKTElONGdtdTVBek1jTHRhVDVteGs3aGhlT2h3dWNWNmExTys1MnRGY1pjVy9pOHZEOW11eWlyS3BjM01VTW01QW93Q0ZLNDNIZHVJUEIyN1JqSXJNdjhBVGZIMHEyQmcxRWVaRmd5dVk0a0RBK1lISlFFaG1VRk5neUZKR1dGT3dYUFJxSzV2dzFhYTlIcWwxTnE5eTAwVFFSb2lBSWtZY0Zzc3FLU1JrRmM3bWJuSUJ4aXVrcERDaWlpZ0Fvb29vQUtLS0tBQ2lpaWdBb29vb0FLS0tLQUNpaWlnQW9vb29BS0tLS0FDaWlpZ0M5V2ZyK2dhZjRwMGE3MG5WYlZMM1RydU14VDI4bWRzaW5xRGl0Q2lnQ3RwdW0ybWpXRnZZMkZ0RloyZHVnamh0NEVDSkdvNkJRT0FLbkNLTVlBR09uSFNuVVVBSUJqcHhRQUIwQTlLQ3dIVWowcGFBRTYwWUhwUzBVQUpnSFBIV2pBem52UVRqclMwQUZGRklDQ01nNUZBQzBVVVVBRkZGRkFCV0JOL3g5WEgvWFEveUZiOVlFMy9BQjlYSC9YUS93QWhRSmlWNGwrMXQveVR6UlAreGkwNy93QkcxN2JYaVg3VzMvSlBORS83R0xUdi9SdGNHUDhBOTFxZWpPREcvd0M3VDlEMytxYytzNmZiU3l4elgxdEZKRUEwaVBNb0tBNHdTQ2VCeVB6RlhLOHExNzRNVDZ2NHI4UmVJWXRTOGkvdTJqTmdxYlZXTEVLUk96c0Uza2tLMkFHMjhnNHp6WG9JNzJlcTFXdGRUczc2UjB0cnVDNGRGRE1zVWdZcUNTQVNBZWhLc1B3UHBYalZ0OE5mSHQ5YitmTHJEMkxOY0tXc3Y3Vm0zTW9NMzcweWJIQ05oNC8zWUJYOTJNblBTUzUrRHZpMmEydVlJTmZqc0l6YlBEQ3RyZHp4NGZiZWJISlVESHpUd01SenpHZXVCbDJYY0xudFZGZVU2VjhPZkdObnBYaXkzdVBFanozdW9KdHNyczNzaFZUNWpzQVUyZnVzS3dqM0l6WkFCd0NNVlJId3Y4Y0xiemxmRVp3OXZIR3RsSnFNemhYV1pIWStkNVlQem9HaXpzNENxY0VzK1MzbUZ6MlNvamRRaTVXM00wWXVHVXVzVzRiaW9JQklIWEFKQXo3aXZHOVcrR0hqMmExYU93OFFJbHdkdysxVDZwY2J5aldiUTdTb2oyNWprSWtEQUF1UmtoVHpVaWZDUHhQWXRlL1k5VmlFY2x4UGNiRHFGd2h1Zk11SUpTanNGSmkrV09STXBuN3dPT1NLTEx1RjJleTlLcXc2clpYTTRnaXZJSlppdThScEtwWXI2NEJ6ajNyemp3ZDhOL0ZPaDYxcDE3cWZpV1RVbGhSbzUwYTVtS3lLYmFLTURZZmxKRXFPMlR5ZDJjNUpGY3hvM3dGMXpTNTdiTW1rT1lMZTIyM3FTekpjaDRiVm9URXJLb1pJM0xaTEJzNDZEUElMTHVGMmU4VVY1OThRSlBGRWVwYWNtaWVIN2pVSW83V1V0Zld0NURHOFV6SXlvTnNycVdBemsvOEFBVGs0SVBJM0IrSTF6Yy9ONGIxaGJaRVh5a0dwV1RFdUF1QysrVmd3SHpnZ0JTd0tra01NMTIwOEo3U0tsenhWKzdYK1o1OVhHZXprNCt6azdkay84ajIraXZIcmwvSHE2dk5jMnVqYTJJSnJueml2bTJTbEJ4amczYkJnQUN1d2JRMmM1REFHcE5BbjhjNlRjUXBjYUZybHpieHBJUE0rMFdXU1dsZHZtUnJvaGlWWlJuY01Zd09PcmVFWExkVkkvZWlWalh6V2RLWDNQL0k5ZG9yeEs1ZjRpSnVHbmVHTlZzbGU1bm5ZdHFObTdBT29Dci9yZ3BHYzR5dnk0R0N4em14NGJqOFo2WGYyOGx4NFcxb1JSZmFHWEdvV2MrenpKUyt6YTF3QTJBZnZrNTV4akFxbmdrbzM5cEg3MS9tU3NjM0szc3BmK0F2L0FDUFphSzhPMTYwK0lONXAxN1oydWc2cy93QnJlZG5ta3VyV0lnU1FxZ1hiOXJjWTNCai9BTFBHMzByVzhQNmw0K3M3OW52L0FBMXJCdC9Ma0NxdDVaekVabERScVExeUFkcWJsMzhGc2pJeU0wUEJwUjVsVWo5Ni93QXh4eHpjdVYwcEw1UC9BQ1BXNks4THViZjRnM2VIazhNYXZ2S01ySWRUczJUR1N3VlNadDZuY2Z2N2pnY2JUZ0d0VFEzOGJXbDdMUGQrSE5iRHZFNm1WTHF4bFk3dkwyb1ExeUJoQWpBUDFiZVNRRG5JOEVrciswajk2L3pGSEhOdTNzcGYrQXYvQUNQWUtLOFEremVPREFrQThIYXBDbXlYOTdIcWRwdmlkb1JHQVAzM3pLU0djaktrTTJlZHZMYjdUZkZ1cnpRUTNmZ2ZWSTlQWGFXV0hWYlRPMzdVc3pSRmZPQWRRaWhGT1IxYkl3ZUg5U1Y5YWtmdmovbUw2L0t6dFNsOTB2OEE1RTl4b3J6Q1c1OFFiNE5uZ3JXM1NGN3FVYnIyeURNWDNlV21mdEorVUJ5U1NEZ3F1QWE1NEQ0aldtbS9aclR3OXJKMjJvaGlFdXBXWTJNR0hKWlpzc3d4bmZ4dXlRVnhqRXh3bk4veThpdm12OHk1WTF4LzVkeWZwRi81SHVGRmVNMjFwNDN1THR2TTBQVjdSSk5SaHVTelhGbTZzaXpGam5aY3FWRzA0MjRmT0FNa0FBZXpWejFxS28ydEpQMDFPbWhYZGE5NHVOdTZzRkZGRmN4MUJSUlJRQVVVVVVBWHE1TDRzRHhDZmh4NGdIaFB6UDhBaEpQc3JmWVBLMjd2TzQyNDNmTCtmRmRiUlFCeS9nVC9BSVMyTHdSWm54Wi9aMC9pZ1FrekxZYmtnWjhmS0NUbkI2WklHTTV3TVY1OTRNK0YzanJSQWRQdi9FVUs2WklaYnVhZlRIZUtTUzRsaVFNcERoenRFcXMrNVdYSmtPQW80cjJtaWplL21IYnlQbmdmQkR4bTF4cDE4OTdiVFh1bkpKTEI5b3ZYWm11UHNLUW83eUNNTWNTS3hCNmhTTUd0RS9EYjRsM3VqeldlbytJbm1kRmkreXRiYWs4SlFKZHRJeXlIWVdkbWhFU2h5VGdxUnprbHZkcUtweWJkeVZGSldQSzV2aDk0MTFyd240ajBpWHhmZGFGZVhlb3JjV0dyMjdtZTRoaDNLeGpLNVZRT0NvMjRHT1NNNXowdmlYdzVmMzJzUTNjTnRhNmdZN1R5cmQ3dHYrUFM0REVpZFVLa0VuSXowSTJBRHFjZGZSVTlobmplcWVBZkhtcTIwdHUrcUw1QzNVRnhaUnpYck9iY3BKYnV4bE96OTlsbzVpcW5oZHdIcHR2TjRGOGNYVXVrM0oxNkdKOU5sKzBpRzUzVG1aMktCMDh3TXUxZGl5Z0ZnLzhBcjJ3cWhWeDZ0UlE5UXRwWThnMWo0WitLZFMwUDdLK3BtN3ZadFBoaW51TG05Y3I1NGltV1FxdTNDNWVSQ0dVQTRVaXJrZmd2eGZwMnIyOFZqZFJXL2h5RlVoZXhodkpWa2tqUkZDYlhiUGxuZGtuYUZ5Qmc1emtlcDBVNzYzQnE1ei9nblI3M1E5Sm50citWNTVqZTNNeXlQY1BObU41bmRCbHVSaFdVYmVneFhRVVVVZ1NzckJSUlJRTUt3SnYrUHE0LzY2SCtRcmZyQW0vNCtyai9BSzZIK1FvRXhLOFMvYTIvNUo1b24vWXhhZC82TnIyMnZFdjJ0djhBa25taWNaLzRxTFR2L1J0Y0dQOEE5MXFlak9ERy93QzdUOUQzK2lreEwvejd2K2EvNDBZbC93Q2ZkL3pYL0d1ODlBV2lreEwvQU0rNy9tditOR0pmK2ZkL3pYL0dnQmFLVEV2L0FEN3YrYS80MFlsLzU5My9BRFgvQUJvQVdpa3hML3o3dithLzQwWWwvd0NmZC96WC9HZ0JhS1RFdi9QdS93Q2Evd0NOR0pmK2ZkL3pYL0dnQmFLVEV2OEF6N3YrYS80MFlsLzU5My9OZjhhQUZvcE1TLzhBUHUvNXIvalJpWC9uM2Y4QU5mOEFHZ0JhS1RFdi9QdS81ci9qUmlYL0FKOTMvTmY4YUFGb3BNUy84KzcvQUpyL0FJMFlsLzU5My9OZjhhQUZvcE1TL3dEUHUvNXIvalJpWC9uM2Y4MS94b0FXaWt4TC93QSs3L212K05HSmYrZmQvd0ExL3dBYUFGb3BNUy84KzcvbXYrTkdKZjhBbjNmODEveG9BV2lreEwvejd2OEFtdjhBalJpWC9uM2Y4MS94b0FXaWt4TC9BTSs3L212K05HSmYrZmQvelgvR2dCYUtURXYvQUQ3dithLzQwWWwvNTkzL0FEWC9BQm9BV2lreEwvejd2K2EvNDBZbC93Q2ZkL3pYL0dnQy9WUFY5WXNkQTB5NDFIVXJ1R3hzTGROODF6Y09FampYMVpqd0I3MWNybnZpRDROdC9pSDRMMWp3M2R6eTJ0dHFkdWJlU2FFRGVpbnFSbmpQMW9BMnpkeG0wKzB4dXNzSlR6RmVNZ2hseGtFSHZtdk92Q1B4KzhNK0p0QWZWTG1SOUlSTWt4emtTa3FFZ2N0bU1zT0JjeEFnNElKSXh4bXVvOEMrQWRJK0hYaEswOE42UEhNbW1XeUZGV2VacEhPZXBMRTkvUVlBN0FWZ0Q0QitCL3NNRm9kS3VHaGhQeWw5U3VtZGwyb29Sbk11NWtBamp3akVxTm93QmluRzNNNzdFeXZaY3U1bVhQN1ErZzJmaC9WdFNsaGtlU3lpYVNHM3Q5MHB1dHNBbWJhUW55cUFRQ3pBQUhIUElydjQvRldrdnJ5Nkg5dmdHc215R28vWUMvNzBXKy9aNW1QN3U3NWMrdGNuZC9BTHdMZXdOREpvMG9pWmRqTEZxRnpIbGRqSVYrV1FjTXJFTVA0Z0Z6bmF1TzFUUk5QVFZGMUpiRzJHcEMzK3lDODhwZk84bmR1OHZmamR0M2M3YzR6elE3YTJCWDB1Yy9wL3hJMCtmUzdiVXJ5T1RUcks5aWE2c3k0TWtrdHVvQk16SWdPeGNGV3llZ2RjNFBBRStLR2dQY3NuMnB4QVlFdUlyanlaQ3NxTVpNc28yNUtBUjUzL0FIY01PYVpKOEp2RE1vMnRhM25sYnk2d2pVcmtSUnFmdlJJZ2syckUzOFVTZ0kyRnlwMmpDcjhKL0RNWlV4MmwxQ3lTckxHMFdvM0tHSGJ1d2taRW55Ui9PMzd0Y0p6OTNnVk92UXNyK0Z2aTFvM2lhSzVjUDltOGhQTU9XRWcyN1dZZzdlaktFYktuMnhtbko4VmRLUDI5Q0hhNHRpK3lHSU01bVZGUXV3d3Z5cXBrUUV0Z1pJNTVGU0o4SlBES1cva3JiWG9qRGh4L3hOTHJJRzFsOHNIemNpUER2KzdIeWZNZmxxU2I0VitHWnJuN1I5Z21qbTNFbG9iMmVQZG5HNVR0Y1pWc0xsVHcyeGNnN1JqTktlbDM2L2QvbVBUVTYyaWlpdFNRb29vb0FLS0tLQUNzQ2IvajZ1UCt1aC9rSzM2d0p2OEFqNnVQK3VoL2tLQk1TdkUvMnRQK1NlNkgvd0JqSHAzL0FLTnIyeXZFL3dCclQva251aC85akhwMy9vMnVESC83clU5R2NHTi8zYWZvZlJsUWZhR0pPMkNSd0NSa0ZjSDh6VTlSUUhFWi93QjV2L1FqWGVlZ044OS8rZmFYODEvK0tvODkvd0RuMmwvTmYvaXFpMHJXZFAxMjJhNDAyK3R0UXQxZG96TGF6TEtnZFRobHlwSXlEd1IycTVRQkI1Ny9BUFB0TCthLy9GVWVlLzhBejdTL212OEE4VlU5RkFFSG52OEE4KzB2NXIvOFZSNTcvd0RQdEwrYS93RHhWVDBVQVFlZS93RHo3Uy9tdi94Vkhudi9BTSswdjVyL0FQRlZQUlFCQjU3L0FQUHRMK2EvL0ZVZWUvOEF6N1MvbXY4QThWVTlGQUVIbnY4QTgrMHY1ci84VlI1Ny93RFB0TCthL3dEeFZUMFVBUWVlL3dEejdTL212L3hWSG52L0FNKzB2NXIvQVBGVlBSUUJCNTcvQVBQdEwrYS8vRlVlZS84QXo3Uy9tdjhBOFZVOUZBRUhudjhBOCswdjVyLzhWUjU3L3dEUHRMK2Evd0R4VlQwVUFRZWUvd0R6N1MvbXYveFZIbnYvQU0rMHY1ci9BUEZWUFJRQkI1Ny9BUFB0TCthLy9GVWVlLzhBejdTL212OEE4VlU5RkFFSG52OEE4KzB2NXIvOFZSOXBZRWJvSkVCSUdTVjR5Y2RqVTlSWEgrckgrK3YvQUtFS0JFdEZGRkF3b29vb0FLS0tLQUNpaXVVK0tuaSs1OEFmRHZYL0FCRloycVgxenB0cTF4SGJPU0JJUmo1ZU9hQU9yb3JsdkFuaTIrOGErQmJMVzdyUTczdzdlM1VCa09uM29IbXhuSEhUc2VveUFjZFFPbGVRYVg4U2ZpWG85aGF5UjZGcW11MjF4SFpxOXhxMmxUUlRRM1JoZHJpTHk0NDFjUjd4R0JLVUlVczMzOEFVMHJ0eC9yVVRkbGMraUtLK2VJdmpMNCsxbThodnRPOE4zRjdwOXVMcGd0bllUckhQS3NkMHF3czdBN2h2aGliekV3dVpBblhyMS9ndjRsK0s5YzhWMkdqYWpvc0VFVnhITGRHN050TmJNTGVONUl5eGhrTzVDN0czS2h2NFdmcnR6UzYyQytsejFpaXZON1BWL2lFZkFtcVhPdjZiWmFkcmFha0k0VTBYZGNFV0hteGhwVlU3dDBvak1wQzRPU3EvTGs3YXAzbnhEOFEyYzA4T2w2SmYzOXBHeUxGTGVhWmNpVm9TcWw3bGp0VUhheFpmSUFFamJNamdpaDZmMS9YOWVoUzFQVktLOGQvNFR2eGZMRmYyOG1tWDBNY2MrK082ajBxNDgyYTNOd3VaRUcwN1NFTEw1VEx2d3U3SnlLdU44UVBFbWtSa1M2ZmNTMmF4VHp4M1Y3cDA0a2tqRHkrWHUycUFqaFZqK1JsRE52N0hnenpBMVk5V29yeXE0OGYrS2JheW11azBlNW1sWmYzU0hTcm5aSnRhY0xoQU4wWmw4dVA3eFBsNzFMRGtaN0h3YjRqdmZFUTFFM1ZzbHQ5am5Ob3dVSDVwVkoza0hKQlhCVEdPKzRIa2NVVGM2U2lpaWdZVVVVVUFGWUUzL0gxY2Y5ZEQvSVZ2MWdUZjhmVngvd0JkRC9JVUNZbGVKL3RhZjhrOTBQOEE3R1BUdi9SdGUyVjRuKzFwL3dBazkwUC9BTEdQVHY4QTBiWEJqLzhBZGFub3pneHYrN1Q5RDZNcXVZVnVMU2FKbFYxZmVwVnVoQkpHRFZpcXozQXRMS2VkbFp4R0pIS29Nc2NFbkFIclhmdWQ3MFBNN2I0VWEzYng2YkNtc0pGWTJMRkxTejgyU1FXY2Y3allVa09Ha2RSRklBWDdURVp3RG0zUDhNdFoxS3praHV0ZWUzbFczYUMzbXRaSmNvNGpkRW1JM0RMQXNHeHlNcU9jZ0dwbitNRUVBdGtleFc0dUprTHRIYVhHOVloNVlmbDJWUWVHSDNjOWVNOUtuMUQ0dDJPbmFOZFhrMW5QRk5GYitmSEJKaFRKOGtSeGs5T1pWR2ZRRTExL1ZhMTB1WGM0L3JkQ3pmTnNTZUh2QWQ1cGZpUzMxS2FXS09HS0FScGIyMHo3WS9sS2xRR1g1bFluZWNrZk56emdHdTVybFpmSDlzTEdDOGpnWVczNzVwMmxZRHlWaGxXT1U1R1FkdTR0d2NFS2VhcVFmRlN3a3VZN1o5UDFBVHVRRjh1SGRHY3d0TmdNU0FTSTF5UjZuQXpVTEQxV3JxSm84VFJUU2N0LzFPMW9yaHYrRnY2S0ZaakZkTUFxdmhGVWxkeWJnQ04zM3VHR0JuQlhraXIxMTQ3aU5scHR4YVF4czk3SkxFdHZjeStYS0dqSlYrQUdCQ2xUazV4MHhrc0tIaDZxM2lDeE5GM3RMK3RqcTZLODArSVB4QTFuU0xlemZSTG5SN09XNnNmdEtKck1iRlN4STVMQ1ZNS3E1SkFERThBWTcraTJjeHVMT0NWdHU1NDFZN2VtU004VXAwWlFncHZxT25YaFVuS25IcGI4U2FpaWlzRG9DaWlpZ0Fvb29vQUtLS0tBQ2lpaWdBb29vb0FLS0tLQUNvcmovVmovQUgxLzlDRlMxRmNmNnNmNzYvOEFvUW9BbG9vb29BS0tLS0FDaWlpZ0FwQ29ZWUlCSG9hV2lnQW9wcnVzYU03SENxTWsrZ3JuZEMrSXZoenhNRWJUTlRqdWtkR2szaEhWVlZmTFB6RWdCY2lXTWdIRzROa1pBSm9BNktPTklsQ29vUlIwQ2pBcHEyOFN6dE1Ja0V6S0ZhUUtOeEF6Z0UrZ3lmenJQMUx4TnBla1c2ejNWN0VrYnRFcTdUdko4MlJZNHpoY25CWmxHZW5OTHBuaVhUZFh0WXA3YTZYWktIS3BNcGlrd3BJWWxIQVlZd2VvOStsSG1Ia2FkRlJ3VHgzTUtTd3lMTEU0eXJvd0tzUFVFVm5mOEpQcG45cXo2Y0xvRzV0MDN6N1VZeHdqQU9Ia3hzUnNFSGFTRGc1eGptZ0RWcEdVT0NHQUlQWTFSbjF6VDdhNWh0NUx1SlpaVkxxdTcrRUtXTEU5aGdFNVBwV2UvanpRazFLU3crM2JycEpJNFNxUXlNQzc3Q29EQmNIaVdNbkIrVU1DY0RtanlBMzZaRkRIQW15TkZqVEpPMUJnWkp5ZjFxcmNhM1lXMW85ekplUWlCTjJYRGcvZEJMQVk2a0FIZ2MweXgxNncxRlZhRzVYNW44dFJJREdXT00vS0dBSjQ3ajNvQTBLS2pndUlycU1TUXlKTEdjZ09qQmdjY0hrVkpRQVVVVVVBRllFMy9IMWNmOWREL0lWdjFnVGY4ZlZ4L3dCZEQvSVVDWWxlSi90YWY4azkwUDhBN0dQVHYvUnRlMlY0bisxcC93QWs5MFAvQUxHUFR2OEEwYlhCai84QWRhbm96Z3h2KzdUOUQ2TXF1WUZ1YlNXRnk0U1RlcE1ic2pBRWtjTXBCQjl3Y2lyRlptcjZoTHBPZ2FsZlFXN1hrMXRETk1sdW4zcFdVTVFnOXlSajhhN20rWFU3blpMVXhSOEw5RFVZRW1zQVp6Z2E3ZmRmKy8xSy93QU1kRWx4dmwxbDhkTjJ2WHh4L3dDUnE4aDBYeHg0bFNQUjlmWFZ0WHUxbW10QmVHL1NCTk52VGN5UktzTmtpcVhiYXNqTUhEWlh5OFB1SllMNk5yL2o3V3ZEM2lEVjRSb3Q3cXRqQXFOQWJMVDdoZ29LY2dzRU85aTV4KzczQUEvTnRLbk9NTXpsSmN6bEpmUC9BSVBrZWJCNGFTdTZhWHlSME5yOFA5SHM0cFkwT291c2taaXpOcXQxS3lLZXV3dEtTaFBxdUQ3MVhQd3kwUXNXTXVzbGlNRS8yOWZaSXhqL0FKN2VsWVRmRXpXVXQza2J3MXFDdW9ZbU5kUHVYSUlsQ01vT3dBN1UvZVp5QStjS1NRVFZPMytKdmliVVpWZ2J3cmZhV3h1NG92TWV6bmxCVXpCV0dSSGdBeDVmekNRRnp0T0NBVGY5b05QU2IxOVMzOVYwWEl2dU9vLzRWaG9ZMi92TlorVVlYL2llMzNBOXYzMVQyM3c4MGExdVlwODZsTzBlZHFYZXJYYzhmSXdjcEpLeW5PZTROY3RwWHhEOFM2MTRrMEt6UGgyOTB5eW5temRUVFdVMk5ua3psbExGZHNlMlJJaGtuNTk0eGprVjFmaXZ4TEpvbmhUVjlSSmkwbWUyU1FRUHFSUm81R0ErVEFXUVpESGdESWIyclduakoxazNHYnQ4elduVHc4OVl3V25rYlA4QVpscVlJWW5nU1ZJVkNKNW8za0FESFZzazlPdFdRTUN2SElmamxGY1NlSklUcXVrUXpXa3NJc21Gd0NraU5KZzVKQURIYjh4Mk13QVBPMGpGVmJYOXBuVFY4NDNpV3NRaFU3L0tsZHpuQzdjQUtkMjhrakM1MmhmbVBJbzFaMUpKYkh0MUZlVTJmeDkwUTNrOFY1ZldNS3JaejNhR0NVU0ErWEl5aEMyUU43QUt3UWN0dTQ0R1RoVC9BTFRFRnRGYnl6V1VkdmIzQ0dTSzRtRW1IakVxeCtZQXF0bkozL3V3UzQ4c2svS2R3TER1ZTUwVlIwTFUvd0MydEUwL1VQTEVKdXJlT2Z5MWtFZ1Rjb09OdzRiR2VvNE5YcVF3b29vb0FLS0tLQUNpaWlnQW9vb29BS0tLS0FDb3JqL1ZqL2ZYL3dCQ0ZTMUZjZjZzZjc2LytoQ2dDV2lpaWdBb29vb0FLS0tLQUNzWHhuNGVsOFdlRmRUMGlEVkx6Ulo3dUJvNDlRc0pXam50MzZxNnNwQjRJSEdSa1pIZXRxaWdEaHZoSjRDMVh3SjhQcmJSZGU4UjMzaWZXSERTWGVvMzF4Sk9TN0RsVU1oSkNLTUFEdnljRE9Ld2RRK0ExbkJwR2p3YVJPaTNkakhCQkpMZmhwbHVWU2F6Wm5reVNUaExNS0V5RjV4d0s5WHFucHVzMkdzeHZKWVhrRjdHaHd6d1NCd0Q5UlQ2dGlhVFZtZVVhYit6WnBta2pOdnFjalRBd1NKUExDUzhUeHZHK0ZBY0tJaVlsK1RhY2RtRlZwdjJXOUZ1TFNhSjlWdWZOa2FRbTRTSkJJRmVLZU1wbnJ0L2ZrNDc3UjYxN0VtcVdjaFFKZFF1WENzb1dRSElZa0tSN0VnZ2ZRMWFvYjVsWmlVVkhZODh1UGdwbzEvSDRRKzBUM1Z2SjRadjMxSzFUVHBuaGhrbFppemVZck01S2trbkc3dVJuQklPanEvdytrMUU2aEZIcVN4MlYzZndhbjVFdHNKQ2s4VFJNQm5jTXhrd3FTcEJQek5oaHhqcnBKNG9wSTQza1JIbEpDS3pBRnlCa2dEdndDZndwWlo0NE52bVNMSHVZSXU0NHl4NkFlOUYzY2RsWTh0ZytBbG5iMnpRcHFqQWZhNDc5WEZ1cXNKbEVJMlpCSDduOXduN3ZxQVNBM1RGOS9ncnBiV1Z5aXpNbHhKZlcxL0dVM0NLRm9mSStSRVptQ2h2czZnbmxzTVJrNHJ2cjIvdHROZ0UxMVBIYnhGMGlEeXNGRzUyQ0l1VDNMTW9IcVNLc1ZIS3Y2K1grU0xUYTFQSjlKK0JVY2RoWWpVTHkzZTVTeGpzcDRvTGNpRENwQUF5RGNEdkJ0ME84NUJ3TXJ3QUwwdndRMCs4c2RSdDdxL21lUytFSWFlS05VZUxaS0pENVo1SzVJeDE0cjBxaXFlcmI3LzUzL01tUHVwSmRQNi9ReC9DM2g1UERXbWZaVk1MTVgzdThFYlJxeHdGenRMTmc0VWREajJGYkZGRk51NGtyYkJSUlJTR0ZZRTMvSDFjZjlkRC9JVnYxZ1RmOGZWeC93QmREL0lVQ1lsZUovdGFmOGs5MFA4QTdHUFR2L1J0ZTJWNG4rMXAvd0FrOTBQL0FMR1BUdjhBMGJYQmovOEFkYW5vemd4dis3VDlENk1xT0Q3aC93QjV2L1FqVWxWTGk2U3gwNjV1SkpFaVNGWkpHZVQ3cWdFbko5cTlCSytoM3QyMVpnNmQ4THZDZWthK2RiczlBc2JmVk43eXJjSkZ5anY5OTFIUldiSnlRQVRrNTYxMU5lRlczeDhNbHBhdk5xMmxSemJNeStWdVpHQTh6Zkl1UXJkVmpBUmxERU9TQWVEVnpXZmp6NU51dHhhMytqSkNiVVNneVQ3eTdpU1BJMm9Ya1VsR2ZDdEh3VjVPQWE3NDVYV3B2bGpDMXp5WTVqaEl4Ymk3TGZvZTAwVjVMcC94eHN0V3V2Sy90RFM5UEtYb2laWnJtTWd4QXVXWXNXQzhxZ3dWSkc2UUE5TW12cmZ4QjhSYWw0VzBmVk5MYTRZTHJra0Y5L1lWdXQ2VGJyYlR1aUh5MHVNS1pSQWpTS3BPR3lOdWFQcU5hOXBhZXBvOHdvY3ZOSFgwUFlxUXFHR0NBUjZHdVMrR0YxcWQzNGFhVFZ0UXY5VXVmdEQ0dWRSMHorejVDdkhBaUtJZG9PUUdaVkpBemp1ZXVyanFROW5Od2IyL3JxZDFLb3FzRk5LMS9UOUxyOFJua3gvM0YvS2p5WS83aS9sVDZLek5Sbmt4L3dCeGZ5cGZMVEdOcTQrbE9vb0FRQUFZSEFwYUtLQUNpaWlnQW9vb29BS0tLS0FDaWlpZ0Fvb29vQUtpdVA4QVZqL2ZYLzBJVkxVVngvcXgvdnIvQU9oQ2dDV2lpaWdBb29vb0FLS0tLQUNpaWlnQms4UW5oa2lZa0s2bFNWT0NNanNhOGpmNElhMWRUMmd1L0Z5M0ZqYXgyOEVWZ0xLVllVV0lGUklnKzBIeTVpQW56cHRBMmtoY3NTUFhtTzBFbm9PYTVIUi9pbG9lcndpVXlTV0s3UXhGNXRRamNzTG9NQmpuY3M4UkdNOWNIQjRweGZLMjE1ZjhBR3VaV1p4ZWpmczhqUS9zL3dCbDFhenRqRnA4R25tUzEwdnlwR1NLV1dSVHVFdmNTa01NY2xRUmpwVncvQ0s1MGp4UnBsNXBza0V0b2wxSE02U1c0VVd3WFlaREUzbVpWcENyRnNLZDJSbkdDVDJsNzhRTkRzeEhzdm9ydDVOcFZMZDFZN1dYY0d5U0JqQlU1ei9FdnFLY3Z4QThPbEdadFlzMEtqTEsweTVYa2dqZzg0S3RuR2NZTlNySjZkLytDRS9mK0k0aldmZ2hjNmo0bXZOYXQ5WnNiZWVTZWVlM0Uya0pPWUdsZ2VKaVdaOHVmbVEvTmxRRTJoUURnUjJ2d0VXSFQ0STV0VnRMdTd0N2lDYUNXWFRCNVVDeHpTU0ZFaUVnQ2pFZ1VZSTIrV3B3UU1WNmpwK3JXZXJKSzFuY3gzS1JTTkU3UkhJREE0SXo3RUVmVUdyZEZyTlB0K2ducmM4VTAzOW5lN3MxMDlaL0VkdmUvWnJtM3VYZWZUbloyZUtXR1R6RS9mNFNXVHljU1BnN3QyY1ozYnZhNktLcHU0L0lLS0tLUUJSUlJRQVVVVVVBRllFMy9IMWNmOWREL0lWdjFnVGY4ZlZ4L3dCZEQvSVVDWWxlSi90YWY4azkwUDhBN0dQVHYvUnRlMlY0bisxcC93QWs5MFAvQUxHUFR2OEEwYlhCai84QWRhbm96Z3h2KzdUOUQ2TXFPRDdoL3dCNXYvUWpVbGN2OFEzYVA0YmVLM1JpcnJwbDZReW5CQjh0K2E3enZPb29ybFArRlRlQi93RG9UUEQvQVA0SzRQOEE0aXVGOFZQOE0vQ1Y3ZldkejREMGQ3cTFZRW91bDJ3QmorenlUbVhPM2hBSXBGSlA4UzR4VFN1RnoyV2l2RzV0VStDTnJMTEZQcGZoaUdXRU41Z09qb1FDcU03QU1JOE1RSTN5Rko1VWpyeFMrS0xyNFErR2ZDRng0aFBoalFiKzFRWEloanRkR2pkN2g0QTVsVmYzZmJ5MkJZNFVZNU5Pd1hQWTZLOGFHb2ZCeVRWckhUSWZEV2gzVjlkM1lzaEZiNkhHNGprS3lNZHpDUEdBWW5Va0U0SUlPTUhFazUrRm4yaTJpdGZCMmlYVFN6aTNaVG8wVVR4dVpvWWp1UjQxSUFOd2pkT2g0emtVV0M1N0RSWEFlSGZCZncxOFdhYU5RMHJ3cjRmdTdJdTBhemYyUEVpc1ZPRHQzUmpJejNIQjdHblh2Z3J3OTRYOFRlRXJuUnRCMHpTTGlYVVpJWkpyR3pqaGQwK3hYTGJTVlVFaktxY2RNcVBTa0IzdEZGRklZVVVVVUFGRkZGQUJSUlJRQVVVVVVBRkZGRkFCUlJSUUFWRmNmNnNmNzYvK2hDcGFpdVA5V1A4QWZYLzBJVUFTMFVVVUFGRkZGQUJSUlJRQVVVVVVBSXczS1FlaDRyaHB2aEZwTnJwV2syV2h1M2g3K3pWVklaYkdHSUhBZUptWXFWS2wyOGxQbUtudndhN3FpbGI5UHdIZm9jQmJmQmZRN09FUVEzRjVIYktrYUpDUEtPemFpSWNPWTkvekxHb1lic2R3QWNFUzNmd2UwUzR0ckNPT2E3dDVMR1dXYTNuVXh1eU5JWDM4T2pLUVJJNjRLbmh2WEJyTnV2anZvdHA0NXY4QXd2SkE2M2xuTkhESktab3lvTHZib0N5cVM2QW01VGFXVUJpckFIaXROZmpaNEtab1ZHdG9za3dSbzQzZ2xWbVZ3cFI4RkFRaDNwaHo4dlBXdXA0V3RwUGtlcXV0T2pPVlltaHpPUE9yclI2bTc0YjhKV3ZoaWZVWmJhZWFUN2RONXpJNFJJNHp5Y0lpS3Fqa2tsaUN4N2s0RmJsZWFhUDhmZkRON1lRM1YvTTJtQ1d6aHZSRVVrbWRVZUx6Q1dDSWNCVjVKempHVHhYWWVIZkdtaStMSnIyTFNiNWIxN045azIxR0FCM011UVNBR0dVWVpYSXlwNXFhbENyVHZ6eGFzVlRyMHFxVGhKTzV0MFVVVmdiaFJSUlFBVVVVVUFGRkZGQUJXQk4veDlYSC9YUS95RmI5WUUzL0FCOVhIL1hRL3dBaFFKaVY0bisxcC95VDNRLyt4ajA3L3dCRzE3WlhpZjdXbi9KUGRELzdHUFR2L1J0Y0dQOEE5MXFlak9ERy93QzdUOUQ2TXJsdmlOL3lUUHhiL3dCZ3U5LzlGdlhVMVdPZkxlSjdacFVZc0NQbEtzQ1QySjk2N3p2TE5jN3Judys4UCtKTlJ1TDdVZE9XNHU3alQ1TkxsbDh4MExXei9lVDVXSHFmbSs4TW5CR1RVUDhBd2dIaGIvb1Q5Sy84QUxlai9oQVBDMy9RbjZWLzRBVzlNQ2xGOEdmQjBOelBPdWpqZE5jeDNqSWJpVXhpWkRsWFZDKzFUbk9jQWJzbmRuSnArcS9DSHdsclBoalQvRDF6cFIvc2l3UjQ3ZUNDNm1oS0k2TWpxWFJ3ekJsWmd3Sk9jODVOV3Y4QWhBUEMzL1FuNlYvNEFXOUgvQ0FlRnY4QW9UOUsvd0RBQzNwMzh3S01Yd2E4SVc5NUpkUTZYSkRLOTJ0OGZLdlowVlpnR0c5VkRnTGtPKzRBQU51TzRITk0wMzRKK0R0SXM0N1cwMHVXR0tOdDZFWDl3WFZ0OEw1RG1UY1BtdDRUMTQyWTZFNTBmK0VBOExmOUNmcFgvZ0JiMGY4QUNBZUZ2K2hQMHIvd0F0NkwrWUYvd3g0UjB2d2ZhM052cFVFa01kemNQZFRHV2VTWjVKV3dHWXRJek1lZzc5cXFlS3YrUTc0Ti93Q3dySi82UTNWUi93RENBZUZ2K2hQMHIvd0F0NnQ2WjRYMFhSTHI3VHAzaHl6c0xqYVY4NjF0WVkzd2VveXVEaWtCdTBWRDU3LzgrOHY1ci84QUZVZWUvd0R6N3kvbXYveFZJWk5SVVBudi93QSs4djVyL3dERlVlZS8vUHZMK2EvL0FCVkFFMUZRK2UvL0FEN3kvbXYvQU1WUjU3LzgrOHY1ci84QUZVQVRVVkQ1Ny84QVB2TCthLzhBeFZIbnYvejd5L212L3dBVlFCTlJVUG52L3dBKzh2NXIvd0RGVWVlLy9QdkwrYS8vQUJWQUUxRlErZS8vQUQ3eS9tdi9BTVZSNTcvOCs4djVyLzhBRlVBVFVWRDU3LzhBUHZMK2EvOEF4Vkhudi96N3kvbXYvd0FWUUJOVVZ4L3F4L3ZyL3dDaENrODkvd0RuM2wvTmYvaXFhN3lTaFY4aDErWlRrbGNEQkI5YUJGaWlpaWdZVVVVVUFGRkZGQUJSUlJRQVVVVVVBWWQ1NEswYSt0NzJHYXozSmVYc1dvellsY0ZyaU14bEg2OFlNVWZBNE8za0hKenkyai9BSHdibzlwcGthMmQ1UGMyRFJ2SGZTNmpjZmFHS0lxQldkWEdZOEl2N3IvVjhjSUt4dmlCOGJiM3dmcVZ2WnhhU3hTVFdXMHcza2tlK0xhTE43akl3Nmt0dVVMamdZeWUxYUIrTkpGOHR1ZEcyTWRzYlJTWFd5V0taNW9vMGpjTWdBLzF5TXpBa0FINWQvR2VtRmF0QktNSk5KNjdtRlREMG0rZXBCWFhkTHEvODdtakI4Qy9CRnRFOGFhTTJ4N2RyUWhyMjRiOTBVWkNnekp3TnJGUmpvTVl4Z1Z2K0dmQkdqZURwdFJrMGkya3RmdDh4bm1qTnpMSkdISkpPeEdZckdDV0p3Z0F5ZWxjZnBYeDBzdFUwaTQxUWFOZXdXTU4wTEF5U1BHUzl3YmNTaEZBWTVCWmxqVS94TXk0eURtdlRWSktna1lQcDZWTTYxYVdrNU4zOC9tS0ZLakd6aEZMMFM5UCtBTFJSUldCMEJSUlJRQVVVVVVBRkZGRkFCV0JOL3dBZlZ4LzEwUDhBSVZ2MWdUZjhmVngvMTBQOGhRSmlWNG4rMXAveVQzUS8reGowNy8wYlh0bGVKL3RhZjhrOTBQOEE3R1BUdi9SdGNHUC9BTjFxZWpPREcvN3RQMFBveWlpdklmSEh4ZXQvRE92YWxZUmVLZEVTZEpGQXQ3clVMZUUyd0VlZGpLM3pGbWZHVHlBcHg4aCthdlhvMEo0aVhMRGMzcjRpbmhvcVZUWTllb3J3NjQvYUJzNUx1MnRJdkVQaCtPQjJuV1hVazFTekt4ZkkvbDdrYVlNUUcybktxMmVsWG4rT0dqWHRwY1cwWGpQdy9Zc3NDK1JlTnJGcTB6eWtxTnpLVjh2YnljakFZQmVBTThkVHkvRUszdW5Jc3l3enZhWDlmMThqMk9pdk5mRHZ4RG04YjZWNGlPbDNrTnhKWlhrU1J5NlpjMnQyM2tGbEJZQ0tTVGtxc2pBT29QT0FEaXIyaVNlSkI0YTF1VzZ2cm1lK045NWxxWmJMeXpIQVJFZktSUWhaZ1BuWGV5azVKT0FBRkhQUER5cHA4elNhNmYxNm5SVHhNYXJpb0p0UHIwNi81SGVVVjV4Y2VNdkdrQ08wZmhreWphZHNUS1M2TjVNaFFNd08xOXpyR0NWQ2hkeEI5YW11L0VmamFPQ1B5ZEhzL3RMTENTc3NVdmxwdVVzNUxJV1B5a0NQQVVuTGIrZ3hYS2RoNkRSWEUrSWRaOFNhZkZDOXJDTGttQ0NSblMyS0p1RXVaOGdrbEI1ZlFFNXowNXJJdmZGWGplU0t5bHRkTFFweXpsTEp6NXdLeWhTVk1tVVZTSWlSa3N3UHk0NkVBOU5vcnpUdzM0bThmM21vMks2bm9scGJXdHhJanpoMGtVMnlHR0FzaXN1N2MzbVBNUXpBQWVWdFAzZ1ErNzhTZVBOTXZqQW1odzZsYnRLN3BPRUtFSVp0aXhOaDhaQ0V5YjhBWVVMdHkyNmdEMGlpdlBZZkVQanNlV3N1ajJBTHpvcGtNY29WWTh2dXlGWmprZ0lBY1lCSkp5T0JsTDhSdkYvMk8zdnY3RXR6cDVpa25udVpJWGhTTlBKTHFjdEovQ3d3U2NCZ2NnakJwaVBWNks4MTB6eGw0cDEvU2J5NnRiUzFhMmxzV2JUN3UzaGszVHkvd1NBSEtpTmgyTFpHQWNrTnhLdXUrUFJKUG5Uck5pcjdVUTJ6Z0ZWZVFGZzNtL3hoVUlIOE83bmRTR2VpMFZpZUZyclZycUM2T3J3aUdkWlZDS2liVUsrV21TdkpPQysvcVNSMHpXM1FBVVVVVUFGRkZGQUJSUlJRQVVVVVVBRkZGRkFCUlJSUUFVVVVVQUZGRkZBQlJSUlFCQk5ZMjF4anpiZUtURGJ4dlFIRFl4bjY0NHpWYzZEcGpSK1dkT3RESDgzeW1CY2ZOOTdqSGZBejYxNXZySHhSdXZEUGl2WHJTNXVyZTlTSm8vSlZMaUVXdGpFZGk1dUcvd0JaRklXWThQOEFLdzJsU01NQmo2MzhhdGJzbHVGYUN3aDJ3YWl4UzNrM1RKSkNrRHdScVR1VXU2eVNOOTBobFRJR0FhY1Z6YkEzYmM5ZHUvRDJuWHlXc2N0cW5sVzA2WE1jU2ZLbm1JUGtKVVlCMjRCQVBRcXA3Q3RLdkdOUitQV29hUkNKYnpRSWJlRjlJR3JwUExjc3NaeXNwRnNXS2Y2NWpFU0IweG51T2ZRdkEvaThlTDdTL2tNY1VVMW5kdmF5SkJJSlVCQUJHSkI4cmNNTTQ2ZERnZ2lqWGIrdW4vQUc0dU9yUjB0RkZGSVFVVVVVQUZGRkZBQlJSUlFBVmdUZjhmVngvd0JkRC9JVnYxZ1RmOGZWeC8xMFA4aFFKaVY0bisxcC93QWs5MFAvQUxHUFR2OEEwYlh0bGNQOFhmaHUzeFE4T1dXbHJmRFQydHRSdDc4U0dQZUc4cHQyM0dSMTlhNU1YVGxWdzg2Y04yamt4VUpWS000UjNhUFdLSzU3KzFkVi93Q2VkbitiMVNuOFlTV3VxVzJtVFhla3hhbGRLendXY2s1V2FaVis4VVE4c0IzSUhGZFoxM091b3JudjdWMVgvbm5aL205SDlxNnIvd0E4N1A4QU42QXVkRFJYUGYycnF2OEF6enMvemVqKzFkVi81NTJmNXZRRnpvYUs1NysxZFYvNTUyZjV2Ui9hdXEvODg3UDgzb0M1ME5GYzkvYXVxLzhBUE96L0FEZWorMWRWL3dDZWRuK2IwQmM2R2l1ZS90WFZmK2VkbitiMGYycnF2L1BPei9ONkF1ZERSWFBmMnJxdi9QT3ovTjZQN1YxWC9ublovbTlBWE9ob3JudjdWMVgvQUo1MmY1dlIvYXVxL3dEUE96L042QXVkRFJYUGYycnF2L1BPei9ONlA3VjFYL25uWi9tOUFYT2hvcm52N1YxWC9ublovbTlIOXE2ci93QTg3UDhBTjZBdWREUlhQZjJycXY4QXp6cy96ZWorMWRWLzU1MmY1dlFGem9hSzU3KzFkVi81NTJmNXZSL2F1cS84ODdQODNvQzUwTkZjOS9hdXEvOEFQT3ovQURlaisxZFYvd0NlZG4rYjBCYzZHaXVlL3RYVmYrZWRuK2IwZjJycXYvUE96L042QXVkRFJYUGYycnF2L1BPei9ONlA3VjFYL25uWi9tOUFYT2hvcm52N1YxWC9BSjUyZjV2Ui9hdXEvd0RQT3ovTjZBdWREUlJWSFd0YnNQRG1sWE9wNm5kUldPbjJ5ZVpOY3pOdFNOZlVuc1BlZ1plb3FxbXBXMCtuQy9nbVc2dERINXlTMjU4d091TTVYYm5ka2RNZGE0MncrTmZoZTcwT3gxUzR1MnNJYjVuVzNqa0tUTzIwRE9mSmFRSnl5cmhpRHVZS1FHSUJWMGdPN3hTMTU3Wi9IYndsZnp4UnczVTREUlF6TTgxdTBTcEhKSEpJckV2alB5eE5rREo5aU1rWHg4WS9CcE1RT3VRcjVqdEhsNDVGQ2tNRitiSy9JQ1dHQzJBMmNqSXA5YmRSWDB1ZEpxMmc2YnIwY01lcFdGdmZwRTRralc1aURoV0hRZ0dyOVVORDF1ejhTYVRiYWxwOGp5MmR3dStKM2llSXNQWGE0REQ4UlYralllNFVVVVVBRkZGRkFCUlJSUUFVVVVVQUZZRTMvSDFjZjlkRC9JVnYxZ1RmOGZWeC93QmREL0lVQ1lsRkZGQklWNHY0NC81T2krR2YvWUwxUC8wQVY3UlhpL2pnL3dER1VYd3ovd0N3WHFmL0FLQUtxSW1lMFZoMnZpRFVMK0VUMm5oalZibTJZblpNa3Rvb2NBa1pBYWNFQTQ3Z0gycmNwM2dUL2tVdE4vNjVuLzBJMGlqRy90WFdQK2hSMWY4QTcvMlgvd0FrVWYycnJIL1FvNnYvQU4vN0wvNUlybmZqSHEvaXZUL0VHbHhlR3pxL215V003VzhkalltZTFtdkJMRDVVZHpKNWJMSEdWTW1TV1RqSkJ5QldMcHZ4UzhhYVlOUWd2ZkRtb21PSkxtV0dTUFJieTdrRERVSklrTGNvR1V4ZVc2cEdXWXJ1YkFVRGNMV1BONi9nRDBkdlQ4VHZQN1Yxai9vVWRYLzcvd0JsL3dESkZIOXE2eC8wS09yL0FQZit5LzhBa2l2T0x6NGgrUDVFbEM2SnFpQzRXMXZwNDR0SnVROW5INUZvMGl4UGdoL25NNkdFQXlENWoycmJqOGZlUGRjOEQrUExpUFJKTkoxdlRZM0dteERUWnpJN2d5Y0tyamJQOHFvVmFNa0V0amIwQmJWbGNVWHpNNnorMWRZLzZGSFYvd0R2L1pmL0FDUlIvYXVzZjlDanEvOEEzL3N2L2tpdVc4UWZFN3hqcEZsYjNGcjRmdXRSTnpmQ0NDR0hRcm9rd2pZV2VVNzkwVzRPU3BaTURZd09UV2JGOFZ2aUNuMkJiN3dyS3EzYjJtNWJYUjd0cEl4TEcyOWZ2YlZNYmdibmRsQ2cvZFlqQm0rbDdEU3VkMy9hdXNmOUNqcS8vZjhBc3Y4QTVJby90WFdQK2hSMWYvdi9BR1gvQU1rVjU1NGE4Yi9FVmRNYVc5MFMvdUx5TkxhZTNzWmJDZUlCVzBsNUdSNVR3NSsxSnNJYjVsWWpPTnlpdDNUZmlQNDR2WjlQZi9oSFM5akplMjhMelBwZHpBODBFbHc4VFNpTjIzUTdVVlhLdUR4eWNCZ2F0UnZMbFJMYWlyczZiKzFkWS82RkhWLysvd0RaZi9KRlhOSzFGZFZzSTdwWXBJTnhaVEZOdDNveXNWSU8wa1pCQjZFaXVycmlmQy8vQUNDZiszaTQvd0RSejFKVDBOYWlpaWtJS0tLS0FDaWlpZ0Fvb29vQUtLS0tBQ2lpaWdBb29vb0FLS0tLQUNpaWlnRG9Ld1BIdmc2MStJUGczVi9EZDlOTmIyZXB3TmJ5eTI1QWtWVDFLNUJHZnFEVy9SUVdjLzRJOENhSjhPL0M5cjRlMEN6K3c2WGJxUWthdXhZay9lWXNUa3NUeVQ2MW5mOEFDb3ZDcmFqRHFFbW12Y1g4VTdYQXViaTZta2taMldOU1dabkpiaUdJWVBUWVBmUFkwVWI2c0RpMytEbmhLUUlIMDJhUUpESEFCSmZYRGZJaVNSb0RtVGtoSnBGQlBPRzY4REZMVi9ndm9tbzZ2YVhsdXBzRlM1anVibnlaSnZNdUdqS0ZBVzh3S0FDaTlWSkhPQ3BKTmVnMFVkZWJxSnE2c3pLOE0rR05NOEhhTkRwV2tXd3M3Q0ZuWklRek1GTE1XYmxpVHl6RS9qV3JSUlFNS0tLS0FDaWlpZ0Fvb29vQUtLS0tBQ3NDYi9qNnVQOEFyb2Y1Q3Qrc0NiL2o2dVArdWgva0tCTVNpaXZPZmpwOFE5UytHdmhUVHRTMHFLMmx1TGpWclN4WVhTTXloSlgyc1FBdzV4MDVyS3JValJnNmt0a1kxS2thVUhPV3lQUnE4UzhkZjhuVmZESC9BTEJtcGY4QW91dmR2c1Evdm44cTVqVmZoZnBtc2VQdEQ4WFQzRjB1cDZQQk5iMjhhTW9pWlpSaHR3MjVKOU1FVnNuWTBhTjZzclFkYXZkQzBpM3NKTkJ2N2g0QVVNc01sdnNmazhqZEtEajZnVnZmWWgvZlA1VWZZaC9mUDVVaDJLUC9BQW1GMS8wTGVwLzkvTFgvQU9QVWY4SmhkZjhBUXQ2bi93Qi9MWC80OVY3N0VQNzUvS2o3RVA3NS9LbVBVby84SmhkZjlDM3FmL2Z5MS84QWoxSC9BQW1GMS8wTGVwLzkvTFgvQU9QVmUreEQrK2Z5byt4RCsrZnlvRFVvL3dEQ1lYWC9BRUxlcC84QWZ5MS8rUFVmOEpoZGY5QzNxZjhBMzh0Zi9qMVh2c1Evdm44cVBzUS92bjhxQTFLUC9DWVhYL1F0Nm4vMzh0Zi9BSTlSL3dBSmhkZjlDM3FmL2Z5MS93RGoxWHZzUS92bjhxUHNRL3ZuOHFBMUtQOEF3bUYxL3dCQzNxZi9BSDh0Zi9qMVUvRDlyTmFhV2lUcDVVclNTU0dNa0VydmtaZ0NSeGtCaG5HUlcxOWlIOTgvbFI5aUg5OC9sU0ZxVnFLcy9ZaC9mUDVVZlloL2ZQNVVCWXJVVloreEQrK2Z5byt4RCsrZnlvQ3hXb3F6OWlIOTgvbFI5aUg5OC9sUUZpdFJWbjdFUDc1L0tqN0VQNzUvS2dMRmFpclAySWYzeitWSDJJZjN6K1ZBV0sxRldmc1Evdm44cVBzUS92bjhxQXNWcUtzL1loL2ZQNVVmWWgvZlA1VUJZclVWWit4RCsrZnlvK3hEKytmeW9DeFdvcXo5aUg5OC9sUjlpSDk4L2xRRmpYb29yblBIL2lXNDhLZUdwTDIwamdrdTNuZ3RZVGRNVmhSNXBraVY1Q09RaWx3VGpyakhHYUNqbzZLNUR3TjRrMVhVZFIxelJ0YkZuTnFXa1NSSzkzcHlNbHZLc2liMUcxbVlxNmo3eTdqd1ZPZm13S3EvRlcwdDRiYVM5dFdqYTlqV2V5dGJWek5jU3hHTnBDN0x0VlZ3aU14QVp1bUJsaUFSNmJnZHpSWEpYbnhJc3JUV3B0T1d5dkxwMXRMYTZoa2dDRVhIbnRJRVJNc0R1L2RPZWNEQTYwL1VQaVJwTmhhMlZ3cTNOMUZlVzhkekEwTVl3eXlIRWVTeEFCWThja2UrQUNhVndPcW9yaHg4WWRCTHlJRnV5NlJtZGs4b2VZc0FSV2VaazNibFJRd3p1QUp6OG9hcmQ3OFR0RnNVUjMrMHVySzBoTWNKYmFpbVVNeDlBUEprUDRER1NRS0cwdHczT3Rvcm5OSjhkMkdyNjlObzhjTnpGZlFMKy9TVkZ4QysxWDh0aXJINXRraU42WWJHY2dnZEhUQUtLS0tBQ2lpaWdBb29vb0FLd0p2K1BxNC82NkgrUXJmckFtLzQrcmovQUs2SCtRb0V4SzhTL2EyLzVKNW9uL1l4YWQvNk5yMjJ2RXYydHY4QWtubWlmOWpGcDMvbzJ1REgvd0M2MVBSbkJqZjkybjZIdjlGRmVLYW40OThSYTc0dTFXdzAyLzFMVFh0ZFJiVDdPMnNkT2ludC9rVkRKTmVUU0w4ZytmZUVWa0pUYnRMTWVONjFhTkZLNnZjNnF0VlVrcjlUMnVpdkJ2aU44Vi9FUStIbnc5MW5TTGs2WGVhN01QdEl0R3RzTVBzc3NtRWU2L2RoUzZLY2tnN2VoeWFoOFA4QTdUVWw3cG1oUVhGaEJjYWpldnB0dEpORmNlVVdhNXRubGVWWXlwNFZrSUE1QnpuUHJ5dk1LQ255U2R0dm5kWE9aNDJpcGNyMC93Q0NybnY5RmZOdmhINC9hcmJtRkoyVFVyalZIMGkzczQ5VnZFZ2p0alBZbWFSNVpVaTdsR0hDRExFWUFyMWY0RitJZFE4Vi9DWHcxcTJxM0p2TlF1N1l2Tk9jZk9kN0RQQUE2QWRxMG9ZeWxpSmNzTjlmd2R2MUxvNHVuWGx5dzMxL0IyTzdvcm10VThlV1doMzl6YjZoSExiQ01NWTJLRW1aVmlhVm1YakJBQ3NPQ2VSZzR5S1NUNGdhZXNUU0piM2t5aFZkZkxqVWwxWnlpRUF0L0V3WUQvZE9jREdlK3gySFRVVnhOOThXTkx0bzkwVnJlelluV0lsb1RHb1R6a2hlVExkUXJ1QVFQbXoyd2MxZXN2SDFycU9wNmRaUVdkMHIzWklacGtDQ0w1SkdYSXp6dUVUWXh4anYyb3N4WE9vb29vcERDaWlpZ0Fvb29vQUtLS0tBQ2lpaWdBb29vb0FLS0tLQUNpaWlnQW9vb29BS0tLS0FDaWlpZ0M5VmUvc0xiVkxLYTB2TGVLN3RaMEtTd1RJSFIxUFVFSGdpckZjUDhZdkUrb2VFdkJadnRNbThpN2E4dG9BNDhyZHRlVlZZS1pTSXdTQ1FDNUNnbkpJcG9EVjhQL0R6dzc0VDFPUyswVFNvTklsbGg4aVdPeFh5b3BSdTNCbWpYQ2xnYzRiR2NNUm5GU1MrQXZEaytmTTBTeGZMRnVZVjRKM1p4NlozTm5IWGNmV3VMK0gzaXJYYnp4dWRLMVRVSmJtR1RUcExzUTNJdERJdUhoQ1NBMnpFYldXUnNCam41YzlPc3R2OFZyalM3WFJ4cWRrN1htcHdtZUdLYWFHSnA4QlNWdDFVbnpEODJkcEliSGJKeFV5ZHR3V3V4M1Y3NFgwalVaVExjNmRiVFNtSklTN1JqZHNWaXlybjBCSkk5TW4xcDgvaDdUTG0yVzNrc0xkb1ZqU0pVOHNZVkVPVVVlZ0I1R09sZVZhbjhmRXU5T2wvczF0TmhuTnY5b3Q1L3Q2ekxjOHVHV0VCUnZLYlBuSEJUY3ZCem10S1g0OWFaQmJSTWkybW9UT0ptalN3dlBOKzBySEdXTFFFSnRrR1ZLdHlOcEJIUGRYVjJnN0hkWEhndlFidVR6SjlKdEpwTUFicElneHdBUmpKN2NuanB6VDR2Q09pUXRNeWFWYUtadDNtSHloODI3ZHV6OWQ3NS8zajYxeS9nYjRscDRzOFI2cnA2eTJOeGJvNGUwdXJTNUVzVXllVEN6TEV3SDczYXprc2VOdTVCZzU0NytxYTdpVHVadGg0YzB6Uzdwcm0wc29iZWQxQ3RKR3VHWUFBREo3OEFESjdBVnBVVVVEQ2lpaWdBb29vb0FLS0tLQUNzQ2IvQUkrcmovcm9mNUN0K3NDYi9qNnVQK3VoL2tLQk1TdkV2MnR2K1NlYUovMk1XbmYramE5dHJ4TDlyYi9rbm1pZjlqRnAzL28ydURIL0FPNjFQUm5CamY4QWRwK2g3L1hMNi84QURIdzE0bjFKNy9VTlBhUzVrVUxNWWJtV0ZMbFFNQlprUjFXVUFjWWNNTWNkSzZpdktQRXZ4WDF6U1BFL2lHeXR0TWhsMHpTbWpTUzY4bVJqSHVoU1FNeHlxTmt2c0NoZzNJYmtBMTJ5cHhxSzBsZjFPMmNZeVZwSzU2THFIaHJTTldzWUxLKzBxeXZiT0RIbFc5eGJwSkhIZ1lHMVNDQmdjY1V4L0NlaHlYc1Y0K2phZTkzRXFwSE8xcWhrUlYrNkEyTWdEc0IwcmdoOGVyTjdvV3NlZ2FuUGRTTXBpaGdDU05KR2ZPeTN5azRJK3p5ZktlZnU5Qm5HVTM3UUVta3gzTWwvcHJYNWp0QmNpR3dSVUtnQzdkeVdlVG41TFU4WUJ5ZStlSDdOUG9LMEgwUFVKdkIyZ1hNVFJTNkhwc3NUSWtSUjdTTXFVVDdpa1k2TDJIYnRXalpXVnZwMXJIYldsdkZhMjBZd2tNS0JFVWVnQTRGZWZhZDhiYkhVdEU4UWF1bWphbkhwK2xCdHM4a1FDM0xMSzhUS2h6aklaT2M5bUI5UUs1K085bWwxUFpTYUZxY0dweFF4U20wbFFCajVreVFvTWNubDI5TWhRRGo1bEJGVFNkMGhwUldxUjM5ejRkMHE5bGxrdU5NczU1SlNESTh0dWpGeUJnRWtqbkFKcEg4TmFSSnUzNlZaTnVMTTJiZERrc2NzZW5Va0FuMXhYbnVwZkg3VDlKdHBMbTYwWFVJTGRETEdmTU1heUNXS3phNmtRb1d5dUZYYms5Vzl1VFhnK09rMGw2Ukpva2tVWm1udFlMWVNSczg4aTNNRUNONW04TEdDWnVRUWVuWGpCdXpLdWowbytITkphUU9kTHNpNGNTaGpicGtPT2pkT3Z2VDdiUXROczVZcFlOUHRZSllWS3h2SEFxc2dPY2dFRGdjbjh6WENlRS9qaHAvakRXYkd4dE5Ldm9ZN3lNbU81bU1lME9MZU9jb1FHSis3S0JucGtjWkhOYzFvdng5MU85YTN1YmpUTEJyU1NLMS8wYU80OHU0YVNXMmFjbFM1Q2JGMkVIY1JnZk1UeFJaaXVqMjZpc1RXdkZFV2lHM2FXTHpJM2hrbmtXSnQwcUlpRml3VURrWjJyblBWbDlheUcrSjFpYnByWmJPN2l1SW94Tk90ekdWOGxBQVgzN0E1VXB1anlDQi9yRklKVTVyV05HcE5YaWpLVmVsQjJsS3gyVkZjV3Z4VzBjNnBlV1cyYVZyYWRvbmEyWHp0aXFCdmtjTGtvcXNRT2VlK01aSW04Ty9FdlR2RWtjVDIxdGR5STZ1elNXOFJuamp4SXlCV2FQT0dPd25ISUE2bjFidzlWTG1jZENGaXFNbnlxU3VkZFJYRzNueE9zZEluZUhVcldlMmtXZVdIRWZ6a0JGQkRNRHRZQjhqYVFDT1Jrak5Mb3Z4SWkxZTVoaGJTN3kyTE5Pa2hJRW5sUEhKczJFSVNTU01NU0FWQVAzanpUK3IxYmMzTG9IMW1pNWN2TnFkalJYbjk3OFp0SnRkTnZydU9DUzZXM2tualh5SlkzQk1jYXVDMkNTZ2JjQU9EZ2tic2RLMmRKK0lXbmF2ZXlXMGR2ZVJ5Umh3NWFIZUZkSkJISkdkaFlobFpsejJ3d0lKSE5Fc05XaXJ1SVJ4VkdUNVZMVTZlaXVJbitLTnNrS3pMcDl3c2JueTBFM3ltU1RrN0ZJRElTVUc4WllaQkh2aTFwdnhGdE5SdUpGVzB1RmhDeTRaVVo1QThmbGgxWkZCeGd5Z1pCSStVbk9NRWp3OVZLL0tDeFZGdTNNZGJSWEdOOFJ3bG5KT2RQTG1KWGVXT0tVc3lxSVZsRGZkKzc4NktTY1lZOTZacWZ4R25zRlFRNk0xOUtaQkM2UVhJL2R1YmxiY2Jpd0FBWWxpRDFJUnVCaWhZYXEybGI4aFBGVVVtNzdlVE8yb3JBWHhOTTB0ckVMT1B6WjVaNHZMODhsaDVXN0xZQzhyOHFqUFl1QnpXUVBpcll4V0x6M0duWDZTUXhDU2VPT0xjSW56ODBKWnRvOHhRZHhYMEJ4bkJxVlFxUzJSYnhGS083TzJvcmg3cjRyYWZaVEpGTkY1VFMza1ZyRDVrZ1R6QThyUjd4dUF5QVZ6Z1p6a2M4SEhjVk02VTZkdWRXdVhUcXdxMzVIZXdVVVVWa2FoUlJSUUFVVVVVQVhxcjMxaGJhbmJQYjNsdkZkMjc0M1JUb0hSc0hJeUR4MXFUZEwvY1QvdnMvd0NGRzZYKzRuL2ZaL3dvQXpkRThKNko0YU1wMGpTTEhUREt4YVEybHVrUmNrNU9kb0dlYTFjWnBtNlgrNG4vQUgyZjhLTjB2OXhQKyt6L0FJVUFQQUFveFROMHY5eFArK3ovQUlVYnBmN2lmOTluL0NnQ1RwUlVlNlgrNG4vZlovd28zUy8zRS83N1ArRkFFbEZSN3BmN2lmOEFmWi93bzNTLzNFLzc3UDhBaFFCSlJVZTZYKzRuL2ZaL3dvM1Mvd0J4UCsrei9oUUJKUlVlNlgrNG4vZlovd0FLTjB2OXhQOEF2cy80VUFTVVZIdWwvdUovMzJmOEtOMHY5eFArK3ovaFFCSldCTi94OVhIL0FGMFA4aFczdWwvdUovMzJmOEt3NU1tNXVOd0FQbUhnSFBwUUpoWGlYN1czL0pQTkUvN0dMVHYvQUViWHR0ZUpmdGJmOGs4MFQvc1l0Ty85RzF3WS93RDNXcDZNNE1iL0FMdFAwUGY2aGV5dDVCTUd0NG1FeEJreWdPOGdZRzcxNkRyNlZOUlhlZWdZdGg0SzBIVGRQRmxCcE5vTGJ6UE9LUEVIM1NaSjNrdGtsdVR5ZWF1RFF0TkcvR25XZzM1M2Z1RitiTzdPZU9jN20vNzZQcWF2VVVBVWswUFRvemRGTlB0Vk4wTnR3VmhVZWNNWXcvSHpEQjcwd2VITkpGcWJZYVhaQzJLbFREOW5UWVFjWkdNWXg4cS9rUFN0Q2lnRE1sOE1hTk9jeWFUWXlIQ2pMV3lIaFJoZTNZY0QwRlNTZUg5TG1FNGswMjBjVGpFdTZCVDVnNDRiam43cTlmUWVsWDZLQUswV21XY0RxOFZwQkd5ZmRaSTFCSHloZU9QUUFmUUFWQVBEdWxMTDVvMHl6RXZsK1R2RnVtN3k4WTJaeDkzSEdPbGFGRkFITGVLdmhsb1BqUFVMZTkxTk5RKzBXOFJoamF5MWE3c3dxSE9SdGhsUUhPU01rWnh4MHJFLzRVRjRQM2J0bXVidU9mOEFoSmRTengwLzVlTzJCWG9sRmRNY1ZYZ2xHTlJwTHpaeVR3bUhxU2NwMDR0dnVrY0pOOEZQRFZ4SWp5eitJNUhSZzZzL2luVkNWWWRDRDlwNjBMOEZQRFMzQW5FL2lNVGdFQ1FlS2RVM0FFNUl6OXB6MUpQNDEzZEZQNjNpUCtma3Z2WXZxZUcvNTlSKzVIbm4vQ2hQQ0dBTnV1NEJZai9pcGRTNExmZS81ZU8vZjFxUzMrQnZoVzBrV1NCL0VFTHF1d05ING4xTlNGem5BSXVPbWUxZC9SVCt1WWwvOHZKZmV4TEJZVmFxbEgvd0ZmNUhBWFB3TjhLM3JicmgvRUU3Yzh5K0o5VFk4akI2M0hjQUQ4S0xiNEcrRmJKOTl1L2lDQjl1emRGNG4xTlR0NjQ0dU9udFhmMFVmVzhUYTN0SmZldytwWVc5L1pSKzVmNUhuZytBZmc4REFUWFFOcFQvQUpHWFV2dW5xUDhBajQ2R3ByZjRJZUdMUjk4RXZpS0Z0b1RkSDRvMU5UdEhRY1hIUWVsZDdSUThaaVh2VWw5N0JZTENyYWxIL3dBQlgrUjU0UGdKNFFWNDJDNjZHakRCQ1BFdXBaVU45NEQvQUVqak9UbWxqK0F2aENLWkprWFhVbFJRaXlMNG0xTU1vQnlBRDlvNEFQTmVoVVUvcm1KLzUreSs5aDlSd3Y4QXo2ai9BT0FyL0k0Vi9ndDRia3p2dVBFalpWbE83eFRxaHlHKzhQOEFqNTZIQXo2MVdmNENlRUpFQ011dXNvVUlGUGlYVWlBb09RUCtQanBubkZlaDBVbGk4U3Rxa3Z2WTNnc0s5NlVmdVgrUncxbDhGL0RXbnppV0NUWDBielZtWUh4THFUSzdnNUJaVGNFTnlPNE5kelJSV05TclVxNjFKTitydWJVNk5PanBUaW8raXNGRkZGWkd3VVVVVUFGRkZGQUY2aWlpZ0Fvb29vQUtLS0tBQ2lpaWdBb29vb0FLS0tLQUNpaWlnQW9vb29BS3dKditQcTQvNjZIK1FyZnJBbS80K3JqL0FLNkgrUW9FeEs4Uy9hMUdmaDdvWVBUL0FJU1BUdjhBMGJYdHRlSi90YWY4azkwUC9zWTlPLzhBUnRjR1AvM1dwNk00TWIvdTAvUStoL3NzSC9QR1AvdmtVZlpZUCtlTWYvZklxV3E4ZHZGSUdabzBaaXpjbFFUMU5kNTZBLzdMQi96eGovNzVGSDJXRC9uakgvM3lLUHNzSC9QR1AvdmtVZlpZUCtlTWYvZklvQVBzc0gvUEdQOEE3NUZIMldEL0FKNHgvd0RmSW8reXdmOEFQR1AvQUw1RkgyV0QvbmpIL3dCOGlnQSt5d2Y4OFkvKytSUjlsZy81NHgvOThpajdMQi96eGovNzVGSDJXRC9uakgvM3lLQUQ3TEIvenhqL0FPK1JSOWxnL3dDZU1mOEEzeUtQc3NIL0FEeGovd0MrUlI5bGcvNTR4LzhBZklvQVBzc0gvUEdQL3ZrVWZaWVArZU1mL2ZJbyt5d2Y4OFkvKytSUjlsZy81NHgvOThpZ0EreXdmODhZL3dEdmtVZlpZUDhBbmpIL0FOOGlqN0xCL3dBOFkvOEF2a1VmWllQK2VNZi9BSHlLQUQ3TEIvenhqLzc1RkgyV0QvbmpILzN5S1Bzc0gvUEdQL3ZrVWZaWVArZU1mL2ZJb0FQc3NIL1BHUDhBNzVGSDJXRC9BSjR4L3dEZklvK3l3ZjhBUEdQL0FMNUZIMldEL25qSC93QjhpZ0EreXdmODhZLysrUlI5bGcvNTR4Lzk4aWo3TEIvenhqLzc1RkgyV0QvbmpILzN5S0FEN0xCL3p4ai9BTytSUjlsZy93Q2VNZjhBM3lLUHNzSC9BRHhqL3dDK1JSOWxnLzU0eC84QWZJb0FQc3NIL1BHUC92a1VmWllQK2VNZi9mSW8reXdmODhZLysrUlI5bGcvNTR4Lzk4aWdBK3l3Zjg4WS93RHZrVWZaWVA4QW5qSC9BTjhpajdMQi93QThZLzhBdmtWSE5ieFJxckxHaXNIWGtLQWZ2Q2dSSjlsZy93Q2VNZjhBM3lLUHNzSC9BRHhqL3dDK1JVdEZBeUw3TEIvenhqLzc1RkgyV0QvbmpILzN5S2xvb0FpK3l3Zjg4WS8rK1JSOWxnLzU0eC85OGlwYUtBQ2lpaWdBb29vb0FLS0tLQUNpaWlnQW9vb29BS0tLS0FDaWlpZ0Fvb29vQUt3SnYrUHE0LzY2SCtRcmZyQW0vd0NQcTQvNjZIK1FvRXhLOFQvYTAvNUo3b2YvQUdNZW5mOEFvMnZiSzhUL0FHdFArU2U2SC8yTWVuZitqYTRNZi91dFQwWndZMy9kcCtoOUdWV2trYUt5bmRQdnFKQ3YxeWFzMUhCOXcvN3pmK2hHdTg5QThaOENmR1BWSlBEYVhHdGlDNW5sVUdHWHpJeDVrbmtST1lzb05wZmU4ZzJnYmdGQU9UazA3WHZpbnJtbWVGZFZsaWVLSFVEYnlOYlNYdTFURzR0MmRGQUNBTzd1cENnakIydDF4aXZYanFsbUYzZmE0TnZQUG1MampPZS9iYTMvQUh5ZlNqKzFMTHlKSi90Y0hreE50ZVR6VjJvYzR3VG5nNXFyUHNUekx1VHhFdEVoYnFWQk5QcUtTNmhodHpjU1RScEFGM0dWbUFVRDF6MHhUWkw2Mmh1WTdlUzRpUzRrKzVFemdNM1hvT3A2SDhxVm1PNko2S2lOekNKR2pNcUNSUVdLbGhrQVl5Y2ZpUHpGUGprV1dOWFJnNk1BeXNweUNEMElORmd1aDFGRkZJWVVVVVVBRkZGRkFCUlJSUUFVVVVVQUZGRkZBQlJSUlFBVVVVVUFGUlhIK3JIKyt2OEE2RUtscUs0LzFZLzMxLzhBUWhRQkxSUlJRQVVVVVVBRkZGRkFCUlJSUUFVVVVVQUZGRkZBQlJSUlFBVVVVVUFGRkZGQUJSUlJRQVVVVVVBRllFMy9BQjlYSC9YUS93QWhXL1dCTi94OVhIL1hRL3lGQW1KWGlmN1duL0pQZEQvN0dQVHYvUnRlMlY0bisxcC95VDNRL3dEc1k5Ty85RzF3WS84QTNXcDZNNE1iL3UwL1EraktvM2kzVDZWZUxaYlB0aFNVUStZK3hkL08zTGJXd000NXdmb2F2VlhNOFZyYXl6elNMRkRIdmQ1SE9GVlFTU1Nld0FyMEU3YW5lOVVlR0o4S1BHa1pqVmRKMFJyZU1qYkZMNGxtZkhQemMvMmQvRUduVSswN2UxZEdkRitJdjJXV0pkQzhNcC9wY2QzQWc4UlhSaWhaV0RZQ3RaSGduT1FDQjZBVnJXZnhtc1o1TkltdU5HMVBUOUkxZVJZN0hVN2tSQkpRekJZM01Za01xSXhaQUdaQUFYWE9Od3J0RTF1d2U3dWJZWFVmblc1Q3lxVGdJU29ZQW5wbmFRY2RjRUd1dFptcTNSUDcvWHVlUFN3bEhYa3FQOFAvQUpFOFkxRDRkZkVEVkpieDduU2ZEYzMycVR6WkVmWDdobExaY2hzR3grOHU4S3Jmd3FpRG5HYWh1ZmhkNDhtUjBpMG53OWJiNFdpZDQvRWwzdUxIZCs4NXN5TnhMRW5qQkpKQVVuTmUyeWE1cHNJY3ZxRnFnVGR1TFRLTWJRQzJlZXdJejZaRk11L0VXbDJDaHA5UXRvd1prdHdESUNUSStOcVk5VHVISG9jOUsyL3RLVWVpL0gvTUhsOUY2dWIvQVBKZjhqeUgvaEEvaUM4VjBzK2tlRzdyN1RMTExJay9pQzRlTTc1RmNydE5qOTBGZUJuMDlLOWkwUzFsc2RHc0xhWlVTYUczampkWTNMcUdDZ0VCaUZ5TWpyZ1o5QjBxR1R4TnBNZDFaV3gxRzNhZTlsZUczalNRTVpIVU16QVk5QWpaOU1ZNjFidjcrMzB1em11N3VaTGUyaFV2SkxJY0tvSFVrMXpWY1M2NnRaYWRyLzVzN01QaDRVVzNHVGZyYjlFaXhSV2JMNGsweUNDNm5lOGpXRzFZTE5LYzdVSklBR2VuVWo2ZDZuaDFheHVEaUs4dDVUc1dUNUpWUHlzQ1ZiZzlDQWNIdml1WTdTM1JWUmRYc1hsZU5iMjNhUkZaMlFTcVNxajd4SXp3QmtaK3RNL3QzVGZLOHorMGJUeS9LRTIvejF4NVo0RDV6OTArdlNnQzlSU2RhV2dBb29vb0FLS0tLQUNpaWlnQW9vb29BS0tLS0FDb3JqL1ZqL2ZYL3dCQ0ZTMUZjZjZzZjc2LytoQ2dDV2lpaWdBb29vb0FLS0tLQUNpaWlnQW9vb29BS0tLS0FDaWlpZ0Fvb29vQUtLS0tBQ2lpaWdBb29vb0FLd0p2K1BxNC93Q3VoL2tLMzZ3SnYrUHE0LzY2SCtRb0V4SzhUL2EwL3dDU2U2SC9BTmpIcDMvbzJ2Yks4VC9hMC81SjdvZi9BR01lbmY4QW8ydURILzdyVTlHY0dOLzNhZm9mUmxVTC9USU5hMGU5MDY2VXZhM2NjdHZLb09DVWJjckRQMEpxL1dWcnVzcjRkOE5hcnFyUkdkYkczbnVqRURndUVETmpQYk9LN21yNk03MnI2TThvMEg0RmFyWWFrc0YzY2FUL0FHY3NsdTAycHdSeW0vdkk0WkVrU0lxeE1jQVprUnBESHc1Qk8xU2NqdWZFWHd1c1BFbXBYbDlOcUY5YlRYS2hUOWxFS0JjTHR6L3F6dk8zSXkrNHFHTzNGWGY3UThaZjlBSFF2L0IzTi84QUlsSDlvZU12K2dEb1gvZzdtLzhBa1N1YUdFcFFqeXBhSE5IRDBvcmxTME14ZmhKcDBjSGt4Nm5xTWNZVUlvQmgrVlJMNXlBRXhmd3ZrNTZuT0dMQURFR25mQmJSZEtuRWxyZFhzT0psbEtxSWNFQ1h6akhueTg3VEo4MkFjamtLUUNSVzEvYUhqTC9vQTZGLzRPNXYva1NqKzBQR1gvUUIwTC93ZHpmL0FDSlZmVnFYOHBYc2FmWXpOSStFT2thTnJPbjZuRGQzenoyUlFxc2hpMnZzamxqajNZUUU3Vm1jREJHY2pPY0N0bnhQNGV2TlI4TjZqcDJqWGx0cHR4ZWgxZWU5dG51MEFjWWY1QkxHY2tIajVnQjZIcFVQOW9lTXYrZ0RvWC9nN20vK1JLUDdROFpmOUFIUXYvQjNOLzhBSWxhd3B4cHEwRlkwaENOTldpckhCVy93ZDhZMjArc1NKNHM4T0FhbzZTVG9QREV5akt2dnprWHdMWmIrOFd3T0JnY1ZtUS9BSHhqYStiOW04ZDZQYmx0K3dwNGJrSmozaFJKak40YzdnaWo1czR4OHVLOVEvdER4bC8wQWRDLzhIYzMvQU1pVXlQeEZydG5xK2xXdXJhUnAxdEJxRTdXeVRXV3BTVHNyaUdTWGxXZ1FZeEV3em5xUnhXbXBlaHhOdDhLUEhsbE5JOXI0NTBPMVY3YWEyWklmRGN5ZytZN09aTWkreVhVdTIwazRHVHhrNXJPbC9aODE4MjBVa1hqUzBqMVZkMGpYTGFKdmlhY3pLNW04dHB5UWRrY2FiZDIzNVMyTW5qM0NpaTRXTS93OXBiNkpvR202YzhrY3IybHRIYm1TSkdSR0txRnlxc3pFRGpvV1krcFBXdENpaWtNS0tLS0FDaWlpZ0Fvb29vQUtLS0tBQ2lpaWdBcUs0LzFZL3dCOWYvUWhVdFJYSCtySCsrdi9BS0VLQUphS0tLQUNpaWlnQW9vb29BS0tLS0FDaWlpZ0Fvb29vQUtLS0tBQ2lpaWdBb29vb0FLS0tLQUNpaWlnQXJBbS93Q1BxNC82NkgrUXJmckFtLzQrcmovcm9mNUNnVEVyeFA4QWEwLzVKN29mL1l4NmQvNk5yMnl2RS8ydFArU2U2SC8yTWVuZitqYTRNZjhBN3JVOUdjR04vd0IybjZIMFpYTGZFYi9rbWZpMy9zRjN2L290NjZtc3JYTkhYeEY0YjFYU25rTUtYMXZQYXRJb3lVRGhsSkE5czE2Q084MWE4aStKSGhIeGpxZXZhc05GYWFUU3ByR1MraFVYUVFOZkpCSkNsdVZaaGhITHhTZjNjeG5QV3VuL0FMSitJMy9RMWVGLy9DWnVmL2xoUi9aUHhHLzZHcnd2L3dDRXpjLy9BQ3dwclFIcWNNVStNOHQ5ZVF4TkRad3JjTEZFN1IycncrUTRkUkpHZDIvZEhtTjJWeDh4UmdwSU9LazhmV0h4UjFiNFVXOXBiUlNTZUlOUWp2RXY0Tk9sdG9wTGNTUnllUkdIa1lMdFJqR3JNcDNuR1ZQV3UxL3NuNGpmOURWNFgvOEFDWnVmL2xoUi9aUHhHLzZHcnd2L0FPRXpjLzhBeXdwM0ZZNFdHMitMRW5pSzFhOGp1eHBsanFxTjVOakphSWs5b1VtVVlabjNrRGREdlZ4bklZcG5BRkZ0YmZFdlZvN083MVRSN3FONGJsWlBzN1hWbjUvbHJjMmNtMHRHeW9mbFc1OU1oUUR5Um51djdKK0kzL1ExZUYvL0FBbWJuLzVZVWYyVDhSditocThML3dEaE0zUC9BTXNLTGhZdGZEV2Z4TlBvTS84QXdsVUVzT29yZFNMRzAza0JwSXVOcmJZU3lvT28yN21QR1NlY0N4NHEvd0NRNzROLzdDc24vcERkVm0vMlQ4UnYraHE4TC84QWhNM1Avd0FzS2tzUERYaXE1MXJUTHZYOWYwZSt0ZFBtYTRpZzAzUnBiUjJrTVVrUTNPOTFLTm9XVmpnS0RuSFBCQmtaMlZGRkZJWVVVVVVBRkZGRkFCUlJSUUFVVVVVQUZGRkZBQlJSUlFBVkZjZjZzZjc2L3dEb1FxV29yai9Wai9mWC93QkNGQUV0RkZGQUJSUlJRQVVVVVVBRkZGRkFCUlJSUUFVVVVVQUZGRkZBQlJSUlFBVVVVVUFGRkZGQUJSUlJRQVZnVGY4QUgxY2Y5ZEQvQUNGYjlZRTMvSDFjZjlkRC9JVUNZbGVKL3RhZjhrOTBQL3NZOU8vOUcxN1pYaWY3V24vSlBkRC9BT3hqMDcvMGJYQmovd0RkYW5vemd4dis3VDlENk1xRTJxRWs1Y1pPZUpHQS9uVTFZMTM0djBteG51NFo3b3h0YU9zY3hNTDdWWmwzZ2J0dUNRdnpIQitVY25BNXIwWXhsTDRWYzdaU2pIV1RzYWYyUlA3MHYvZjF2OGFQc2lmM3BmOEF2NjMrTloxejR1MGUwdDFubDFDRVJ0NW1DQ1dKOHRTejhEbmhWSi8vQUZpbHZQRkduV0dtdGZUeVNwQXNZbWRSYlNOS2lIK0pvZ3U5UjY1SEhlcTluUHN5ZmFVLzVrYUgyUlA3MHY4QTM5Yi9BQm8reUovZWwvNyt0L2pXWnFQaXEwc3RNdnJ5QkpkU2Ewa1NGN2EwMitZMGpiZHFEZXlyazcxNmtBWjVJck04Ty9FalQvRUdqNmxxVFdkL3BsclkzeHNDYnlOVDV6Z29BOFhsczRkQ3poUVFlb1BIRlAyVStWenRvaWZiVStkVTc2czZiN0luOTZYL0FMK3QvalI5a1QrOUwvMzliL0dxdi9DUTZXSGtSdFF0WTVJZ0RKSEpLcXZIbFMvektUbGZsQlBQWUU5cVkzaWZSa0dXMWF4VVlCeWJsT2hiYUQxN25qNjhWa2JsMzdJbjk2WC9BTCt0L2pSOWtUKzlMLzM5Yi9HcUUzaW5TYmRZMmUvaDh1UlluU1JXM0l5eVBzaklZY1lMY1pxSzQ4YTZCYmZaZk0xbXhBdWk0aVlYQ2tNRURGemtIb29Sc25vTVVBYW4yUlA3MHY4QTM5Yi9BQm8reUovZWwvNyt0L2pXZFplTHREMUc1ZTN0ZFhzcDUxbEVKalNkU3hjb0pBb0dlU1VZTngyTkZ2NHUwUzVMQk5Xczk2ek5iRkduVldFcTV5aEJPZDNCT1BUbnBRSTBmc2lmM3BmKy9yZjQwZlpFL3ZTLzkvVy94cWhGNHIwU2RTMGVzYWZJb2RZeVV1a0kzTVNGWHIxSlVnRHVRZlNsVHhWb3NwQVRXTEJ5ZDRBVzZRNTJETDkvNFJ5ZlFkYUJsNzdJbjk2WC92NjMrTkgyUlA3MHYvZjF2OGFvU2VLOUhqdEo3a2FuYXl4UXdHNmN3eXE1RVhQejRCSjI4SG1vVjhiZUhua2RCcm1uYmxDRS93Q2xKakQ1Mjg1NXpnNCtsQUdyOWtUKzlMLzM5Yi9HajdJbjk2WC9BTCt0L2pVV242cmFhcWtqMmR3bHpHakJUSkVkeW5LSzR3ZWhCVmxPUjYxYm9BaCt5Si9lbC83K3QvalI5a1QrOUwvMzliL0dwcUtBSWZzaWYzcGYrL3JmNDBmWkUvdlMvd0RmMXY4QUdwcUtBSWZzaWYzcGYrL3JmNDBmWkUvdlMvOEFmMXY4YW1vb0FoK3lKL2VsL3dDL3JmNDBDMWpCQnk1d2M0TWpFZnpxYWlnQW9vb29BS0tLS0FDaWlpZ0Fvb29vQUtLS0tBQ2lpaWdBb29vb0FLS0tLQUNpaWlnQW9vb29BS0tLS0FDc0NiL2o2dVArdWgva0szNndKdjhBajZ1UCt1aC9rS0JNU3ZFLzJ0UCtTZTZIL3dCakhwMy9BS05yMnl2RlAyc2taL2g3b3UxUzIzeEZwN0hBemdDWGsxd1kvWEMxUFJuRGpmOEFkNStoOUYxNTU0cytHMnErSjlXbnVqcWVqTEF4SGxSWEdrelN1ZzJrY3N0MGdZNEo1MmpIYkZkdi9iRmgvd0EvMXQvMytYL0dqKzJMRC9uK3R2OEF2OHYrTmVyU3F6b3ZtZzlUb3EwYWRlUExVVjE2djlEemdmQ1RYQnFVTitOZDBnWFVKWW95NlpkcXVHREFnb0w0S3d3eCs4RDFxeGJmRFBYN1dhV1pOWDhQR1dWRmpra2JRWml6S0NweHUrMlp3ZG95dlE0NlYzLzlzV0gvQUQvVzMvZjVmOGFQN1lzUCtmNjIvd0MveS80MXU4WlhlNy9CZjVIT3NEaDFzdnhmK1p5L2g3NGZUMkZscTl0cWVvUlhhYWhNdHhteFc1Z01VZ2JkdVh6YmliYjh3VWpadEF4MFBHTmF4OEcyVmhwRjVweVMzTXNOMjRlUnJpWHpXNFZWQUc0RUFZUlJqR0swdjdZc1ArZjYyLzcvQUMvNDBmMnhZZjhBUDliZjkvbC94ckNkYXBVdnpQYzNoUXBVN2NxMk9WbitEL2h5NGdXRm9ya1JJcklpcmNOOHFzam80QjYvTUpHejllTVZadXZoZjRmdmJlTzNtdFRKYklJc1FTSGZIbU5ER3BLc0NDZGpGZWZYMTVyb2Y3WXNQK2Y2Mi83L0FDLzQwZjJ4WWY4QVA5YmY5L2wveHJJMzBNclcvQkZocnlKOXBlWXVzU3g3Zy8zdGpia0xEdnRiNWgwNXJQbCtGbWkzRVNMTTEyOGdDNzVCY01wa0lEZ0U0OXBIR09oQndjMTB2OXNXSC9QOWJmOEFmNWY4YVA3WXNQOEFuK3R2Ky95LzQwZ09YMG40UStHTkZ1Tk9tdHJINTlQMi9adk5QbUNQQ1JJTWJnY0hFRVhJNXl2SFUxSnFmd3A4TzZ2ZWk2dUxhVXk3ZGgyek1BeStjSjhFWi81NkJXL0FEcHhYU2YyeFlmOEFQOWJmOS9sL3hvL3Rpdy81L3JiL0FML0wvalRBNTV2aGI0ZFpvbU5sdU1jZ2xVU0hlTnczZG15UDRtL09zcy9CZlIyczdjU1N6M0YvYlJGSWJpZDJLSzNsR0lOc1ZoMFVuZ0VFK3ZUSGEvMnhZZjhBUDliZjkvbC94by90aXcvNS9yYi9BTC9ML2pRR2h5K2svQ3pTN0sybSsxRTNkL2RRdEZlWGFvSTJuM2ZmeDFaVk9COHU0L2RIVTgxYlB3MjBNK2FEQktWbGQ1V1R6V3h1ZG5aaitKa2F0MysyTEQvbit0disvd0F2K05IOXNXSC9BRC9XMy9mNWY4YUFJOUgwSzAwS09kTE5HUkpwUE1ZTXhiNXRvWGpQc29yUXFuL2JGaC96L1czL0FIK1gvR2orMkxEL0FKL3JiL3Y4ditOSVpjb3FuL2JGaC96L0FGdC8zK1gvQUJvL3Rpdy81L3JiL3Y4QUwvalFCY29xbi9iRmgvei9BRnQvMytYL0FCby90aXcvNS9yYi92OEFML2pRQmNvcW4vYkZoL3ovQUZ0LzMrWC9BQm8vdGl3LzUvcmIvdjhBTC9qUUJjb3FuL2JGaC96L0FGdC8zK1gvQUJvL3Rpdy81L3JiL3Y4QUwvalFCY29xbi9iRmgvei9BRnQvMytYL0FCby90aXcvNS9yYi92OEFML2pRQmNvcW4vYkZoL3ovQUZ0LzMrWC9BQm8vdGl3LzUvcmIvdjhBTC9qUUJjb3FuL2JGaC96L0FGdC8zK1gvQUJvL3Rpdy81L3JiL3Y4QUwvalFCY29vb29BS0tLS0FDaWlpZ0Fvb29vQUtLS0tBQ2lpaWdBb29vb0FLS0tLQUNzQ2IvajZ1UCt1aC9rSzM2d0p2K1BxNC93Q3VoL2tLQk1TbXVpeURES0dIb1JtblVVRWtYMldEL25qSC93Qjhpdk0vRlBpblVkTStPL2dmdzNieVJKbytwMk45UGRXL2tJVEk4YWdvZHhHNFl6Mkl6WHFOZUwrT1ArVG92aG4vQU5ndlUvOEEwQVZTRXoyUDdMQi96eGovQU8rUlI5bGcvd0NlTWY4QTN5S2xySThMZUU3SFY5QnRMeTZtMUtTNG1CZDJYVkxwQVR1UFFMSUFQb0Jpa00wdnNzSC9BRHhqL3dDK1JSOWxnLzU0eC84QWZJcm12RnQ1NFA4QUJOL2FXdXF6NjVFYmlKcHpMRmZYMGtjTVN1aU5KSXl5RUlvYVJNc2VCbko0Qk5UMlRlQ3J5Q1dSdFpudGpENWhram44UVRoMFZKV2lMa0NjNFhlcEdmdzRQRkMxVitnN1dkamUreXdmODhZLysrUlI5bGcvNTR4Lzk4aXVYdU5VOEMyN1hpZjJ0ZlNTMjBrTVppaTFxNVo1QklJU2pvb215eVluaitZY2MxZDFIL2hDTkwwZlZkVW4xeWMyT2xBbTlsaTF5Nmw4akhVTUZsSkJ5TVl4blBHS0xDV3V4dC9aWVA4QW5qSC9BTjhpajdMQi93QThZLzhBdmtWanRGNEhXVHkyOFJiWk42UjdUNGpuQjNQOXhjZWQxUFlkNlpHZkFzNmt3K0kvUE84UkJZdkVjekV1UnVDRDk5OTRqa0NrT3h0L1pZUCtlTWYvQUh5S1Bzc0gvUEdQL3ZrVnl1ajZ0NEYxM2kwMVcrZDBhTkoxYlc3Z2ZaeTl1YmhTeDg3Qkhsak9WTERyNkhHcERiK0NiaHJSWXZFSmxhN0lXM0NlSXB5WmprcmhQMzN6SEtzT080UHBUdHJZUnJmWllQOEFuakgvQU44aWo3TEIvd0E4WS84QXZrVS8vaEF0Sy92Nm4vNE43djhBK08xbCtGeXgwWkZhU1NYWkxOR0dsY3UyMVpXVVpZa2s4QWNrNW9BMGZzc0gvUEdQL3ZrVWZaWVArZU1mL2ZJcVdpa0JGOWxnL3dDZU1mOEEzeUtQc3NIL0FEeGovd0MrUlV0RkFFWDJXRC9uakgvM3lLUHNzSC9QR1A4QTc1RlMwVUFSZlpZUCtlTWYvZklvK3l3Zjg4WS8rK1JVdEZBRVgyV0QvbmpIL3dCOGlqN0xCL3p4ai83NUZTMFVBUmZaWVA4QW5qSC9BTjhpajdMQi93QThZLzhBdmtWTFJRQkY5bGcvNTR4Lzk4aWo3TEIvenhqL0FPK1JVdEZBRVgyV0QvbmpILzN5S1Bzc0gvUEdQL3ZrVkxSUUJGOWxnLzU0eC84QWZJbyt5d2Y4OFkvKytSVXRGQUhRVVVVVUZoUlJSUUFVVVVVQUZGRkZBQlJSUlFBVVVVVUFGRkZGQUJSUlJRQVZnVGY4ZlZ4LzEwUDhoVy9XQk4veDlYSC9BRjBQOGhRSmlVVVZpZUxmR21qZUJkTmh2OWN2UHNOcE5jUjJpU2VVOG02V1E0UmNJQ2VUM3hqMXFaU2pCT1VuWklpVWxGYzBuWkczWGluam1RajlxZjRaTGpnNlhxWC9BS0IvOWF2YTlyZjNILzc1TmVYZUxQQk90Nm44Zi9BdmlTMnNIazBYVExDOWh1N3Jjbzh0NUV3ZzJrN2prK2dPTzlhSWJQVWFkNEUvNUZMVGYrdVovd0RRalRkcmYzSC9BTytUWE1YZndyOEhYOTFMYzNQZzNSTGk0bWN5U1RTNlZFenV4T1NTU21TU2U1cEROWHh2OEx0TzhlNmphM04vZlg4RU1kdEpaM0ZuYXZHc1Y1Qkk2TzhVdTVDMjBtTmZ1TXB4a1o1ckJoK0FHbFdNMTFMWWE5cm1tdmNMS3BhemtnallHUzdhNUpMZVRsOE03cUZrTEtGWmh0eVNUSi93cUR3UC93QkNQb0gvQUlKNGYvaUtQK0ZRZUIvK2hIMEQvd0FFOFA4QThSUXRGWkE5ZFdReS9zOWFITEZCRTJyNno1VnRGRXRzbm1RL3VKWTRvWVJPcDhySmZaQWdJYktjdDhvelY3VFBnZG9lbCtIdkUyaXgzZC9KWmE3RzBNcGN3aVMzakpjaEkzV01FaFRJeEhtRjhaOU01ci84S2c4RC93RFFqNkIvNEo0Zi9pS1ArRlFlQi84QW9SOUEvd0RCUEQvOFJUYnZwY1MwMlJZMTc0SzZmNGgwNkd5dU5lMXlPSVhUWGx4NUU4U2ZhM2JZVDVxK1Z0SXpHQ05vQkdXd1FEaXFLL3M4NkRDMWdiZlZkWXRUWmkyVldoa2hEdXNDc3FxWDhyY29aV1lOc0s3Z1NPaHhVMy9Db1BBLy9RajZCLzRKNGY4QTRpai9BSVZCNEgvNkVmUVAvQlBEL3dERVV0TFdHbmJZYlkvcysrSGJIUzIwMWIzVkpOUGFLS0kyOGtzZUNVc1dzZCtSR0R1YUZobm5HNUZJQTVCdDJud1IwYUNXTzRtMURVN3k5RjNCZlRYVXp4QjU1b3AyblZuQ3hxb3l6WUlVS05vR01ISk5iL2hVSGdmL0FLRWZRUDhBd1R3Ly9FVWY4S2c4RC84QVFqNkIvd0NDZUgvNGlxVW1wY3llcExTa3JOSHBsY1Q0WC81QlAvYnhjZjhBbzU2eWYrRlFlQi8raEgwRC93QUU4UDhBOFJYVFdWaERwdHBEYTJsb3RyYXdxRWlnaGgySWlqb0ZVREFBOUJVbGJrMUZHMXY3ai84QWZKbzJ0L2NmL3ZrMGhCUlJ0Yis0L3dEM3lhTnJmM0gvQU8rVFFBVVViVy91UC8zeWFOcmYzSC83NU5BQlJSdGIrNC8vQUh5YU5yZjNILzc1TkFCUlJ0Yis0LzhBM3lhTnJmM0gvd0MrVFFBVVViVy91UDhBOThtamEzOXgvd0R2azBBRkZHMXY3ai85OG1qYTM5eC8rK1RRQVVVYlcvdVAvd0I4bWphMzl4LysrVFFBVVViVy91UC9BTjhtamEzOXgvOEF2azBBZEJSUlJRV0ZGRkZBQlJSUlFBVVVVVUFGRkZGQUJSUlJRQVVVVVVBRkZGRkFCV0JOL3dBZlZ4LzEwUDhBSVZ2MWdUZjhmVngvMTBQOGhRSmlWNGwrMXQveVR6UlAreGkwNy8wYlh0dGVKZnRiZjhrODBUL3NZdE8vOUcxd1kvOEEzV3A2TTRNYi91MC9ROS9vb3JqTmIrS3VtNlBxdDFZdzZkcTJzZllXQzZoY2FYYWVkRlpFcUd4SWNnbHRwREZVRE1BUmtjaXV1ZFNOTlhrN0hiT2NZSzhuWTdPaXVOOFUvRlhTUERHbDZEZngyOTlyc090eXJGWXJvMEl1SG16RzBnWURJeXV4U2VLczZSOFVmQ210d2FTOXZyMWlrbXFxeldkdGNUTERQTHRKVmxFYlliS3NyS1JqSUlJN1ZQdDZYTnk4eXVUN2FuemN2TXJuVTBWeGQxOFlmQ3FpeS9zL1Y3VFhEYzZqYjZhUnBkekhPWVpKaWRoZmEzQy9LZnlyVnNmaUQ0WDFPK2V5cy9FZWxYVjRrLzJWcmVHOWphUVRZWStYdERaM1lSempyOHJlaG9WYW0zWlNRS3JUYnNwSTM2S3I2ZnFOcnExbkZkMk56RGVXc296SFBBNGRIR2NaRERnMU1zaU96S3JLekx3d0I1SDFyVk8rcU5FNzZvZFJSVFhrU0lBdXlvQ1FvM0hHU2VncGpIVVUxcFVXUlVMcUhiTzFTZVRqcmdVNmdBb29vb0FLS0tLQUNpaWlnQW9vb29BS0tLS0FDaWlpZ0Fvb29vQUtLS0tBQ2lpaWdBb29vb0F2VVVVVUFGRkZGQUJSUlJRQVVVVVVBRkZGRkFCUlJSUUFVVVVVQUZGRkZBQldCTi94OVhIL0FGMFA4aFcvV0JOL3g5WEgvWFEveUZBbUpYaVg3VzMvQUNUelJQOEFzWXRPL3dEUnRlMjE0bCsxdC95VHpSUCt4aTA3L3dCRzF3WS8vZGFub3pneHYrN1Q5RDMrdkh0WCtFZXJ3ZUxiL1V0T1N6MU8xbnUyMUcyaHY5Um5naGd1R0M4elFJakpjQkhYekVKS2tFNHp3cEhzTllWeDQ3OFAydXRUYVJKcXR1TlZoVU05a0czU2dZQis2T1R3UWVPM1BTdWlyUmpXU1V1aDFWYVVhcVhOME9RMVg0UjZpM2hud1RZYU40aGkwM1VmREVnbWp2YnJUL3RLVE41RHhObU1TSnR6NWpFZk54d09hNVcxL1pjdHRNOFFhTnF0dnJiWFJ0RmplN2h2SXB2OUpuV2VTNDgxUkZQR2lreVN1Y09zaWpqQTY1OTEzRDFGVWRNMTZ3MWdNYk80RTZxb2ZjRklYQkxLTUVqQjVSaHg2VmhMQlVKdThvL2kvTC9KR01zSlJrN3lqK0wvQUs2SGd2Z245bXJXVTBqdzlxR3M2N0JZNjlwMXZwc2NOdkJZQXgyNjJ6dElZNUNzcDg1aVhZYndWQXdEZzgxWDF2OEFadzFyUWRHZit4cjVkWDFsVXRkTzBlNGd0WXJQK3k0NDUzbEZ6T3pTRXpNTjVWaWdCSVk0VDVqajZSeU9lZWxHNFl6a1lySCt6Y1B5OHFUOWJ1LzlmMGpMNmhRNWVWTDUzWm4rSHRFdC9EZWc2ZHBOb3UyMXNiZU8yaUgreWloUi9LdVV2UGg1cWo2bmYzTmxyMFduUTNkeDV6UVJXam5BSWNPZDNuWjNIY3B5TUtDcE96TEd1NzNEMUZWSU5YczdtNU52RGNKTktOKzRSbmNGS0VCZ1NPQVFXQXdlYTlTSzVWWkhvSkpLeU9PbStIMnN5VzVpWHhJcUh5a2o4ejdJNVlsWFlsam1ZOHNHK1k5U3lxZUFOdFZKdmhYcXR3TnN2aW1TVmZ0RFRLOGxzek9uektVS256Y0JodDViQnpuZ0R2Nk1XQXpramptdWVzUGlMNFkxUFZiZlRiWFhiR2UvdUkxbGh0MW1HK1JTdThGUjN5dVc0N0ROTzdDeU16dy80QXZ0SzhRV21wM2V0RFVCQkZJZ2lOdXlrRjhaMm56Q0ZRWSs3dDZrODR3QjJ0TmFWRmtXTXVvZDhsVko1T091QlN2SXNZeTdCUjB5eHhScXcwRm9vQkJKQUl5T29vQkJIQnpTR0ZGTlNSWkFTakJnRGc0T2NHbXBkUXlsUWswYmxpd0cxZ2NsVGhzZlE4SDBwMkZkRWxGTWxuamdpZVNTUlk0NHdTN3N3QVVEa2tudFQ2UXdvcU9XNGlnLzFrcVIvd0M4d0ZPRXFOSTBZZFRJb0JLQThnSG9jZmdhZGhYUTZpb2x2SUdLaFo0eVd6akRqbkhYOHU5UlhHcTJWcGJ0Y1QzbHZEQXFDUnBaSlZWUXA0REVrNHg3MFdmWVhNbDFMVkZNTThTa0F5SUNjNEJZYzA1WFYxREtReW5vUWNpa080dEZNV2VOeTRXUldLTnRZQmg4cDlENzhpbjBEQ2lpaWdBb29vb0FLS0tLQUwxRkZGQUJSUlJRQVVVVVVBRkZGRkFCUlJSUUFVVVVVQUZGRkZBQlJSUlFBVmdUZjhmVngvMTBQOGhXL1dCTi93QWZWeC8xMFA4QUlVQ1lsZUpmdGJmOGs4MFQvc1l0Ty84QVJ0ZTIxNGwrMXQveVR6UlAreGkwNy8wYlhCai9BUGRhbm96Z3h2OEF1MC9ROS9yenJYUGd2WWE1clhpRFY1YjZkYi9VbWpNRGI1REhhYllrakpFWG1CR1loU04rQXdERVp4WG90RmVnblk5QThSaS9aNzFDNnRUSmQ2N1p3M2JYQ3VZWUxKekFZMU0yTitKVlo1Y1RmNjBGY2JWRzNqbTNxSDdQSjFXRzZpdXRmV1NPVzNlMmpUN0R3Z0szYW8yREljc3Yyb0hQR1RFRHhuajJPaW56TVZrZVVhVDhDNU5NMDN4YlovMitaZjdiajJSM0p0bTgyTDUzay9lSHpTc295NUFBVkR0K1VrOVJSWDlucWRMT2RWOFF4cGNTMjBjR3hiSnphZ3BNa29QbEdZbmtxeXNOL0tiRkdOZ3o3TFJSek1MSThXMWI5bm04djdRMjl2NGt0N1JUbjk5L1pyUE5ock5yV1JESVo4bFFHM0lEbllSeVhxM0o4QVdVM24yYldMU0pKSnBaNG9uMHpkR3pQUEJNUk9CS1BPWGRDVng4dnl2alBHVDY5UlJ6TUxJOHc4SC9BQVFqOEphenAycERXSHZKclJXUXRKYjRlUlRiUlFiZDI0NFVHTGVCL3RZN1pPWnB2d0F1ZE9WTGIvaEliZTQwNVlMY0cybTBzTVhtaHQyaFJtSmxJTWZ6RW1QYnowM1l6bjJLaWk3Q3lPRThkK0cvRk9zWDFpTkZsMGxMR0cybFNUN1VaSTVoS3lNaXZHeUtkb1VNZURuT1Qwd0NPUnVmaHQ0OHZMbFpKN25SR2lqVlJGRWwzY3grVzQyNGZLSUN4R0cyaHNxQTVVZ2ppdmFhSzdLZU1uU2lveFMwOGpncTRLblZrNVNiMTh6eWU5OEJlTDVkV2U5dFpMRzJFdHo5b21UKzAzSlk4ZEdXMlg1aGdBRnQyRnlwQkJxWFEvQkhqRFFieUEyN2FjYlNKSkZXTTZpL21BdEs3OE45bXhqNThIS25KVUhJT01lcDBVM2pKdVBLNHEzOWVZbGdhYWx6S1R2L0FGNUhqVno4T3ZIa3FzdHZQb1ZnajNOeGRTTGJYTTRKYVJRTUJqR1hBemtrYnNISUFDZ0Nybmg3d0g0eTBPK2h1Q3VpRll4TVFMYTdsalpXa2szbFVMUXVGVHR0d1R5VHU5UFdhS2J4MVJybGFWdlFsWUNuR1hNcE8vcWVONjk4TS9HV3AyVjFaMmsybFd0dmRQUEpNWnJ0NUpHYVNGWXo4eTI2ZHdTZjcyY2RzMXBlSGZDWGp6UnI5cDU1dEltak1jaWlPQzhraktsNVJKZ00wRC9JdUNxcWM3UXhBSXIxS2loNDJianlPS3Q2RFdBcHhsenFUdjZuaXMzd3g4Y1hNbm5TeTZDYmp5M2paMXVyaFZZRWtoVEdFMmJReDNjQU5uT0dBSkZhbWhlQnZHR2szVHpTL3dCbFNsNG5VdEJxRXFQbC9MM0RjMEQvQUNEeWxDcjFVRWpjZXRlclVVNVk2cEpXYVFvNWZTaTdwdS9xZU5uNGNlTlpJVXQzWHc1OWwyUytaR2swNm5lMEloVmtJaitYQ2psU0dERm1QR1JoMG53NThaWHVvV3MxNWIrR0pyYUVySjVLU3pvd2Y3VXR3KzF2TElDc1VWUUNwSUE0UFhQc1ZGSDE2cDJRdjdQcGQzOTU1M040WjhUTVl2TDByUUVXRnJxV05HdnBTQkpMdXdjaTNCMnFIZklCRzdJT1JpdWFQdzA4ZHdhZjlrczduUmJXTVdndFVVM1U4aVJBTUQ4b01YUUFERzRsZ2N0dUpKcjJtaXBqakp3MlMvcjVseXdOT2U4bitYNmVSNUphL0RqeFMxekkxMmROS1BxRVY4UEp2NURqWk1aT1E4RFpQSkEybEFNNXhrbXZXNktLd3ExNVZyY3gwVWNQR2hmbGU0VVVVVnpuU0ZGRkZBQlJSUlFCZW9vb29BS0tLS0FDaWlpZ0Fvb29vQUtLS0tBQ2lpaWdBb29vb0FLS0tLQUNzQ2IvQUkrcmovcm9mNUNpaWdURXJ4TDlyYi9rbm1pZjlqRnAzL28yaWl1REgvN3JVOUdjR04vM2Fmb2Uvd0JGRkZkNTZBVVVVVUFGRkZGQUJSUlJRQVVVVVVBRkZGRkFCUlJSUUFVVVVVQUZGRkZBQlJSUlFBVVVVVUFGRkZGQUJSUlJRQVVVVVVBRkZGRkFCUlJSUUIvLzJRPT0iIGhlaWdodD0iNzc4IiB3aWR0aD0iNjIxIi8+PGNsaXBQYXRoIGlkPSJjbGlwMyI+PHJlY3QgaGVpZ2h0PSI0ODgwNjM0IiB3aWR0aD0iMzg5NTcyNSIgeT0iMCIgeD0iMCIvPjwvY2xpcFBhdGg+PC9kZWZzPjxnIHRyYW5zZm9ybT0idHJhbnNsYXRlKC04MzIgLTgzKSIgY2xpcC1wYXRoPSJ1cmwoI2NsaXAwKSI+PGcgdHJhbnNmb3JtPSJtYXRyaXgoMC4wMDAxMDQ5ODcgMCAwIDAuMDAwMTA0OTg3IDgzMiA4MykiIGNsaXAtcGF0aD0idXJsKCNjbGlwMSkiPjxnIHRyYW5zZm9ybT0ibWF0cml4KDEgMCAwIDEuMTc0ODYgLTAuNSAwKSIgY2xpcC1wYXRoPSJ1cmwoI2NsaXAzKSI+PHVzZSB0cmFuc2Zvcm09InNjYWxlKDYyNzMuMzEgNjI3My4zMSkiIHhsaW5rOmhyZWY9IiNpbWcyIiBoZWlnaHQ9IjEwMCUiIHdpZHRoPSIxMDAlIi8+PC9nPjwvZz48L2c+PC9zdmc+;" vertex="1" parent="1">
          <mxGeometry x="-11" y="-23" width="355.49" height="523.24" as="geometry" />
        </mxCell>
      </root>
    </mxGraphModel>
  </diagram>
  <diagram id="9sBzquG09jJHr9-GzyLn" name="LambdaCICD">
    <mxGraphModel dx="1381" dy="1035" grid="0" gridSize="10" guides="1" tooltips="1" connect="1" arrows="1" fold="1" page="0" pageScale="1" pageWidth="1100" pageHeight="850" math="0" shadow="0">
      <root>
        <mxCell id="0" />
        <mxCell id="1" parent="0" />
        <mxCell id="aube-nvFIhjWxefu8elh-1" value="" style="shape=image;verticalLabelPosition=bottom;labelBackgroundColor=default;verticalAlign=top;aspect=fixed;imageAspect=0;editableCssRules=.*;image=data:image/svg+xml,PHN2ZyB4bWxuczp4bGluaz0iaHR0cDovL3d3dy53My5vcmcvMTk5OS94bGluayIgeG1sbnM9Imh0dHA6Ly93d3cudzMub3JnLzIwMDAvc3ZnIiBzdHlsZT0iY29sb3I6IHJnYigwLCAwLCAwKTsgZm9udC1zaXplOiBtZWRpdW07IGZvbnQtc3R5bGU6IG5vcm1hbDsgZm9udC12YXJpYW50LWxpZ2F0dXJlczogbm9ybWFsOyBmb250LXZhcmlhbnQtY2Fwczogbm9ybWFsOyBmb250LXdlaWdodDogNDAwOyBsZXR0ZXItc3BhY2luZzogbm9ybWFsOyBvcnBoYW5zOiAyOyB0ZXh0LWFsaWduOiBzdGFydDsgdGV4dC1pbmRlbnQ6IDBweDsgdGV4dC10cmFuc2Zvcm06IG5vbmU7IHdpZG93czogMjsgd29yZC1zcGFjaW5nOiAwcHg7IC13ZWJraXQtdGV4dC1zdHJva2Utd2lkdGg6IDBweDsgd2hpdGUtc3BhY2U6IG5vcm1hbDsgdGV4dC1kZWNvcmF0aW9uLXRoaWNrbmVzczogaW5pdGlhbDsgdGV4dC1kZWNvcmF0aW9uLXN0eWxlOiBpbml0aWFsOyB0ZXh0LWRlY29yYXRpb24tY29sb3I6IGluaXRpYWw7IiBvdmVyZmxvdz0iaGlkZGVuIiB4bWw6c3BhY2U9InByZXNlcnZlIiBoZWlnaHQ9IjYwMC45OTg5NjI0MDIzNDM4IiB3aWR0aD0iMzczLjAwMDE4MzEwNTQ2ODc1IiB2aWV3Qm94PSItMC4wMDAwNjEwMzUxNTYyNSAwLjAwMDAwNzYyOTM5NDUzMTI1IDM3My4wMDAxODMxMDU0Njg3NSA2MDAuOTk4OTYyNDAyMzQzOCI+PGRlZnM+PGNsaXBQYXRoIGlkPSJjbGlwMCI+PHJlY3QgaGVpZ2h0PSI2MDEiIHdpZHRoPSIzNzMiIHk9Ijg3IiB4PSI4ODQiLz48L2NsaXBQYXRoPjxjbGlwUGF0aCBpZD0iY2xpcDEiPjxyZWN0IGhlaWdodD0iNTcyNDUyNSIgd2lkdGg9IjM1NTI4MjUiIHk9IjAiIHg9IjAiLz48L2NsaXBQYXRoPjxpbWFnZSBpZD0iaW1nMiIgcHJlc2VydmVBc3BlY3RSYXRpbz0ibm9uZSIgeGxpbms6aHJlZj0iZGF0YTppbWFnZS9qcGVnO2Jhc2U2NCwvOWovNEFBUVNrWkpSZ0FCQVFFQVlBQmdBQUQvMndCREFBTUNBZ01DQWdNREF3TUVBd01FQlFnRkJRUUVCUW9IQndZSURBb01EQXNLQ3dzTkRoSVFEUTRSRGdzTEVCWVFFUk1VRlJVVkRBOFhHQllVR0JJVUZSVC8yd0JEQVFNRUJBVUVCUWtGQlFrVURRc05GQlFVRkJRVUZCUVVGQlFVRkJRVUZCUVVGQlFVRkJRVUZCUVVGQlFVRkJRVUZCUVVGQlFVRkJRVUZCUVVGQlFVRkJUL3dBQVJDQUdSQVhjREFTSUFBaEVCQXhFQi84UUFId0FBQVFVQkFRRUJBUUVBQUFBQUFBQUFBQUVDQXdRRkJnY0lDUW9MLzhRQXRSQUFBZ0VEQXdJRUF3VUZCQVFBQUFGOUFRSURBQVFSQlJJaE1VRUdFMUZoQnlKeEZES0JrYUVJSTBLeHdSVlMwZkFrTTJKeWdna0tGaGNZR1JvbEppY29LU28wTlRZM09EazZRMFJGUmtkSVNVcFRWRlZXVjFoWldtTmtaV1puYUdscWMzUjFkbmQ0ZVhxRGhJV0doNGlKaXBLVGxKV1dsNWlabXFLanBLV21wNmlwcXJLenRMVzJ0N2k1dXNMRHhNWEd4OGpKeXRMVDFOWFcxOWpaMnVIaTQrVGw1dWZvNmVyeDh2UDA5ZmIzK1BuNi84UUFId0VBQXdFQkFRRUJBUUVCQVFBQUFBQUFBQUVDQXdRRkJnY0lDUW9MLzhRQXRSRUFBZ0VDQkFRREJBY0ZCQVFBQVFKM0FBRUNBeEVFQlNFeEJoSkJVUWRoY1JNaU1vRUlGRUtSb2JIQkNTTXpVdkFWWW5MUkNoWWtOT0VsOFJjWUdSb21KeWdwS2pVMk56ZzVPa05FUlVaSFNFbEtVMVJWVmxkWVdWcGpaR1ZtWjJocGFuTjBkWFozZUhsNmdvT0VoWWFIaUltS2twT1VsWmFYbUptYW9xT2twYWFucUttcXNyTzB0YmEzdUxtNndzUEV4Y2JIeU1uSzB0UFUxZGJYMk5uYTR1UGs1ZWJuNk9ucTh2UDA5ZmIzK1BuNi85b0FEQU1CQUFJUkF4RUFQd0Q1bCtGT2xlQkxxMDF1ODhjWDl4YnBid2syVnBhaGxrdVpSRE00UU9BVlVHUklZeVNHUDczb0JsMTMyOEkvRHE3MHJVckxUYjY1dnRjdDdLNG5qdXJkcEo3ZDNpVVJxb2o4dEhCbGtqa21Wdm1DUnp4SzY4TzZSYVorem44YnRIa2RyVDRiK0xvaEpnU1JuUnBtamxBSVlLNkZDcnJrQTRZRWNWZXYvZ1g4ZDlRZDJQdzI4VDJZa1R5NUUwN3c4MW1raTV6aGxoaVVOeU04ZzEzVGxWNXZjdGJ2ZjlMZnFjc1kwN2U5ZS9wK3QvMFBHTGRBOGhEREkyTWZ4Q2tpdTgrREhnL3czNHoxalhyZnhQZnZZVzFwbzF6ZTJyUjZqYjJSa3VVS2JFM1RLUTRPNXZrWERISEI0TmFjZjdMM3hpallrZkMveFprZ3J6bzgvY1kvdSs5YVhoLzRDZkh6d2xjWE0raCtDUEhtalQzVnU5cFBKcDlqZFFOTkMyTjhUbEFDeUhBeXA0T0JYUzVKN014U2ZZajhkL0Nqd3ZCNDQ4T2FENFQxUzZ2STlUdkx5MmtrVzZoMVNSRmp2Wm9vU3FXeWdrdEVrYlkvakozTGhXR0o5YS9aVDhWNkExdjl1MUhSckpibDJFUXVMb2xsVkRLWldjeHE2TDVVY0VzajRjZ0JTRkxOOHRKNGcrQkh4KzhXeVJTYTU0SzhlNnpKRVpHamZVTEs3bktHU1JwSkNDNE9OMGpzN2VyTVNlU1RXVC93eTE4WWYraVllTFAvQUFUei93RHhOWnljbXJRa2svdi9BRlJTdGYza2Raclg3RjNqZlM1ZFdhSzgwdTV0YkNXYU15N3BWTHJISEpKdUFFWlU1V0xIeXN3RHRzenVWd3ZpM2h3bEx5N2RTVmVQVHI2UkdIVldXMWxLc0QySUlCQjdFVjN2L0RMWHhoLzZKaDRzL3dEQlBQOEEvRTFiMHo5bWY0d1dNMDdOOExmRnJDVzF1TFk0MGlmanpZWGozZmQ1eHZ6anZqSEZWZlN6WXJlUnh2Z2Z3YjRpOGJlQ3RSMXEyMW54TExKYXhYMDhrMXJISkxaV3kyMXVKdHM4b2ZLTklOeXI4dU03ZVd5ZG5JK0ZMblh2RkYxZDIwZmlEVTB1STdkNW9ZVXVHWnBtVVoyamM2Z2NBa25PY0E0REhpdlJyTDlrSDR4NlplUVhkbjRFOGEydDNCSXNzTThHaHpwSkc2bktzckE1QkJBSUk2VkNQMk52aTRBY2ZEN3hpTTlmK0pCTnpYT2srdjVtenRiVDhqRFR3TDQxbHMydVkvRmtVc1d5R1NNcHFVeDgxWlg4cENweGovVzVqSU9DcEh6WVVoamcrSmw4UStHN0RUN28rS0xxN1c2M0RFVnhPcFVnS3dPSEFKREpKR3c0QitiQkE0ejNaL1kyK0xqTnVQdys4WWx1dVRvTTJhYi9BTU1hZkZzLzgwOThZZjhBZ2dtcFdsMy9BSys4U3QvU1BKZitFdTEzL29OYWovNEZ5ZjQwZjhKZHJ2OEEwR3RSL3dEQXVUL0d2V3YrR00vaTEvMFR6eGgvNElKcWEvN0hQeFhqWUIvQUhpNVNlUUcwR1laL3prVTdNcTZQSi84QWhMdGQvd0NnMXFQL0FJRnlmNDBmOEpkcnYvUWExSC93TGsveHIxYi9BSVk4K0t2L0FFSVBpMy93UlRmNDBmOEFESG54Vi82RUh4Yi9BT0NLYi9HaXpDNlBLZjhBaEx0ZC93Q2cxcVAvQUlGeWY0MGY4SmRydi9RYTFIL3dMay94cjFiL0FJWTgrS3YvQUVJUGkzL3dSVGY0MGY4QURIbnhWLzZFSHhiL0FPQ0tiL0dpekM2UEtmOEFoTHRkL3dDZzFxUC9BSUZ5ZjQwZjhKZHJ2L1FhMUgvd0xrL3hyMWIvQUlZOCtLdi9BRUlQaTMvd1JUZjQwZjhBREhueFYvNkVIeGIvQU9DS2IvR2l6QzZQS2Y4QWhMdGQvd0NnMXFQL0FJRnlmNDBmOEpkcnYvUWExSC93TGsveHIxYi9BSVk4K0t2L0FFSVBpMy93UlRmNDBmOEFESG54Vi82RUh4Yi9BT0NLYi9HaXpDNlBLZjhBaEx0ZC93Q2cxcVAvQUlGeWY0MGY4SmRydi9RYTFIL3dMay94cjFiL0FJWTgrS3YvQUVJUGkzL3dSVGY0MGY4QURIbnhWLzZFSHhiL0FPQ0tiL0dpekM2UEtmOEFoTHRkL3dDZzFxUC9BSUZ5ZjQwZjhKZHJ2L1FhMUgvd0xrL3hyMWIvQUlZOCtLdi9BRUlQaTMvd1JUZjQwZjhBREhueFYvNkVIeGIvQU9DS2IvR2l6QzZQS2Y4QWhMdGQvd0NnMXFQL0FJRnlmNDBmOEpkcnYvUWExSC93TGsveHIxYi9BSVk4K0t2L0FFSVBpMy93UlRmNDBmOEFESG54Vi82RUh4Yi9BT0NLYi9HaXpDNlBLZjhBaEx0ZC93Q2cxcVAvQUlGeWY0MGY4SmRydi9RYTFIL3dMay94cjFiL0FJWTgrS3YvQUVJUGkzL3dSVGY0MGY4QURIbnhWLzZFSHhiL0FPQ0tiL0dpekM2UEtmOEFoTHRkL3dDZzFxUC9BSUZ5ZjQxM2ZoUHc1cjNpdDlQU0x4YmZ3eVhma0FRbVdScEdhU1oxZllvZjVsamlqZVJtNHhnRHVEVzMvd0FNZWZGWC9vUWZGdjhBNElwdjhha2wvWkUrTFU2eHJKNEc4WVNMRXV4QTJpVEVJdVNjRG5nWkpPUGMxTFV1akM4VG1yVFF0Zmt1clpianhqSkhhem1KRmtpdldNaGVTQVNvb2prZER6dUM3bUtxQ2V1S3lkUXVOVXNOYmZUYnJWNys5aU52SEk4ZDFJM0RNaXVWSzdtSHlrNHpudG5pdTRYOWo3NHJLY3I0QzhYQStvMEtiL0dyY1A3S1B4Y2l1ZnRFbmdMeGZkU0JCR1BOMGFiN29BQUdlZUFBQUI3Vm90MFJwcWVlVVY2Yi93QU14ZkZ6L29tbmluL3dVemYvQUJOSC9ETVh4Yy82SnA0cC93REJUTi84VFhWelI3bU5uMlBNcUs5Ti93Q0dZdmk1L3dCRTA4VS8rQ21iL3dDSm8vNFppK0xuL1JOUEZQOEE0S1p2L2lhT2FQY0xQc2VaVVY2Yi93QU14ZkZ6L29tbmluL3dVemYvQUJOSC9ETVh4Yy82SnA0cC93REJUTi84VFJ6UjdoWjlqektpdlRmK0dZdmk1LzBUVHhUL0FPQ21iLzRtai9obUw0dWY5RTA4VS84QWdwbS8rSm81bzl3cyt4NWxSWHB2L0RNWHhjLzZKcDRwL3dEQlROLzhUUi93ekY4WFAraWFlS2YvQUFVemYvRTBjMGU0V2ZZOHlvcjAzL2htTDR1ZjlFMDhVLzhBZ3BtLytKby80WmkrTG4vUk5QRlAvZ3BtL3dEaWFPYVBjTFBzZVpVVjZiL3d6RjhYUCtpYWVLZi9BQVV6Zi9FMFVjMGU0V2ZZL2VPaWl1YThUK0QyOFJhcnA5NnQ0dHM5bkRMR2dhSGVRenlRdDVpbmNOckJZV1VIbi9XSHNDRzhZOUpXZTUwdEZjVkg0QzFSZkpqYnhYcVJ0Z21aVURuZTBuZDFrM1pVWndRaHlCZ2psVGlxbHo4UHRhaXN0TnRMRHhIUGJKQ0ZqbGtScEV3cVd6cEd5cHZJT0pkamxPRllaRGJzY2tWelNzOUYzL3J1Uko4c2JwWFBRS0s1S0R3TE5Kb2w5WWFscTArcW03cy9zN05kQXVpeW5jWGxDRmlPV0tzRi9oeGhTQmdDbS93OTFMejdnUitJNTRiRjJCaXNralpZNHYzckhBQ3VCdDhrckZzd0YrWGVRV05STnVLYmlyLzE1bWtFcFAzbmIrdkk3bWlzelE5Sm0waEx0SmIyVzlFMXc4NkdZa3RHR3g4Z3lTTm9PUUFBQUJqcWNzZE9ySkNpaWlnQW9vck04UzJENnA0ZjFDeml0b0x1U2VCNDFndVptaGpja1lBWjBCWmZxb3lPM05BR25XVHJIL0g1YS84QVhPVCthVmpmRHJ3cnEzaFN5dmJmV2RSVFhMeVNWWC90ZGl5elhLN1FBSGpPUkdFeHRBVmlDUG1Qek14T3pySC9BQitXdi9YT1QrYVVDZXhWcnozNGs2OXJCOFYrRVBDZWo2aytoUHJqWGN0eHEwY0Vjc3NVVUVhc1k0aElHUVNPWkZJTEt3Q3h5ZktUZ2owS3NUeGI0TDBmeHhwMGRsck5vYm1LR1VUd1NSVFBCTmJ5Z0VDU0tXTmxlTnNNeTdrWUhETU00SkJCSThtOGMvRUx4UDRHMTdVZkQ5dHEvd0RhRWkyT2cyMXZxT28yMFJhSzR2OEFVNTdSN21SWTFSVzJxSXlFQVZTVUhBM0d1aDhRMlBpWFJMM3dmb0VmanJXSlpOVzFTNFc0MVNTMHNQdEFpU3psbEVTZ1d3akM3NHdjN0MyQ1J1cnA0L2hWNFdGbGRXcytsRFVJYnV3ajB5NEdvenkzYlQyNlBJNkk3U3N4YkRTeUhjU1d5M1hnWXpwZmdoNFRuMGkxMDJXUFdKWUxXN2ErZ2xmeEJxRFhFY3BqOG80bk0vbUJTaEkyYnR2SjQ1Tk5hS3o4L3dBLzAvNEJNcnZieS80UDMvOEFCSnZoRDRwMUx4VjRXdTMxZVNLNDFEVHRWdjhBU1pMdUdQeTB1ZnMxekpDSmR1U0ZMQkFXQU9BMjREaXEzaDN4MWNqUVBIV3E2cmRXaVE2SnFkOUZITGVTQzJnaWdoUldIbVNCVHRVYzVmQklHVGc0eFd3UEF3MDJ6dExEdy9xdHg0WDB5MWo4dU94MHkydHZLSHpGaTM3eUpqa2tuUFBKNTZrazQxeDhDUEIxN2U2bmQzZHBmM011cUxNdC9FMnJYYTIxeVpZekhLelc2eWlFTXlrOGhCZzRJd1FDSGZWdnkvSFRYOEg5NG1tN2V0L2xaNmZpdnVPYjBuNDlhcHJGMnVqMi9oaTBQaU02MUxvdmtQcWNxV2ZtTHA2MzRmem10aEp0TWJoVG1ISWJPTWpESG10ZC9hQzE3V2ZBOEYzYTZMSG9WeHF1a1d1dGFaUEJxUG51VSsyVzBNc1VxbUZRaC9mcUFWTDVCWS9LUUFmWE5DK0ZIaGZ3NWVRM2RscDhwdklydzZndDFkWHM5eE0xd2JZV3BrWjVIWm5Qa3FFK1lucG5yelRIK0VIaENUVGJIVDMwU0o3S3hzaHAxdkMwc2hWTGNTeHkrWDk3a2I0WWp6ay9Mam9TREw4dlA4dFB4R3I5VGxvdmpQclUvaUovQ2llR0xIL2hNSTlRZTFhMmJWM0ZqNUMyMFZ3MDR1UHMrOC9MUEdtenlnZDVQOEkzbmwvQlB4NzFPdzhBL0QyZlZJckxXN3pWSWROVFZKZnR6cGVRUGVYUXRvcFBKV0FvVUx0MWFTUElSOW9KWEI5Slg0SytEMDBsTlBHblhJVkwzKzBmdG45cFhYMjFyankvS01qWFhtZWN4OHNDUGx6OGdDZmRBRk1qK0JuZ21HWFRwSWRGTnVOUGp0b3JlS0c3blNFQzNsODYzM3hoOWtoamsrWlM0WXJrNDRPS2FhNmowdWJIeEM4Wkw0RDhNUHF2Mk5yK1o3dTBzTGUyV1FSaVNlNXVZcmFFTTVCMnI1a3libXdTRnlRR0l3ZUw4VS9HZlYvQ1VtcWk3OE5XY3llSDlOZzFYWDN0OVdZaTNnbGVZS0xZTmJnenNGZ2R5RzhvY2dBc2E2dTUrSDQxcXd1OVA4UTZ6ZStJOUx1WXdyMmQ3RmJ4cXJCbGRKRmFHSkhWMFpReXNHQlZnR0dDQVJUdVBncjRRdkcwOXJyVDdtOGV5UllsYTYxSzZsYTRqV1F5S2x5V2xKdVZWMlpsV2JlRkxIQUdUVFZ1djlmMS9YbVB5UFBmRS94ejFTRFgvREdyL1pZOUw4RHByMnIyVjFkSmRHVzZ2STdHeDFFekJvUEt3aWlhMDNLVmtMTUVYSVhjUld0QjhkdGRlYlRyS2J3UzF0cWVwM2R0YldYbjNrMGRvL25RWFVvRHp2YktSSW4yUWgxUkhDaVdNaG16aXUwVDRRK0VrOFNmMjZOSkoxQVhVbDZvYTVtTUNUeVJTUlN5TEFYOHBXZEpwQTVDamVXeTJUZzF6MnJmczgrSGJ1MDBXeXNialV0UDAvVDlUVFVHdDIxTzhtSlZMZWVCWW9IYWZkYkFlZmtHSXJqWUFCMEltT2pkL0wvZ2psdHB2ci93REF1UDJnSnJhV084bjB1NWp1SUxTOWh1dElqdW9tdHhjd2FuQll1VmxNUWRodWtKVnZsQlVuY2diRzNUdWZqaHF0bGQzT2lUZUdMZi9oS29kVk9tbTBoMUNXYXpLZlpGdWhONTZXeGsyN0hWQ3ZrNUQvN1B6MXNlSmZnVjRiMW53c3VqV0Z1dWxOSEFMV0s1K2VaaEVicUs1bERibnk3U1NSQXM3RXNXSllra25ONy9BSVVyNFFHaC93QmxqVDdwWS90bjlvL2JGMUs2RjhibnkvSzg3N1dKZlAzK1YrN3o1bWZMQVQ3b3hTL3I4WCtsdjYxRHIvWDlmMThqenpTdmk3cStwYS9xTnhkTHFta1dzMTc0YmpoMHFhT09PZTBONE1TeFNDU05qMU9HSERjSGFWUE5Xay9hV210N2JUNzNVUERBdDdEVmRGdU5WMHcyOStacDVYaXVyVzI4bVNQeVFJOThsN0R0WldmamRrTGpCOUVId3A4TGkvUzliVHBKTHBSWmd5eTNjN2x6YXZ2dDNmTG5lNm4rTnNzZWpFamlrYjRUZUVuc3JTemZSWVpMYTAwNjUwbUdKM2RsUzF1R2llYVBsdWR6UVJISjVHd1lJNXFucnQ1L2tyZnFPNmJYeS80Skw4UC9BQmRxSGkyeDFCdFQwU1RSTHl5dXphc21aV2duSGx4eUNTRjVZb21kTVNiU1NpNGRISE9NbnFheC9DL2hXdzhINmExanA3MzBrRFNHVXRxR29YRjdMdUlBL3dCWk83dmpnY1p3T3dyWW9kdWhJVVVVVWdDaWlpZ0Fvb29vQUtLS0tBQ2lpaWdBb29vb0FLS0tLQU9ncnpINHlhTDRnMWJVUEREMk5ucmVxK0hvWlp6cW1uZUc5Vy9zMjlrY3hnUU9KdlBnSmpVNzl5Q1FaTG9jTUZJcjBmN2JiLzhBUGVML0FMN0ZIMjIzL3dDZThYL2ZZbzh5N255NTQrcy8yaVBFSGhQeFZwZHJiM2NQMjJLNWdnazArZlRvYmxKR2h2UWd0NUdjYmJiZDlnK2R5TGdGcENNWUJXejRrOEZmSFg0aDNGeHBWM3JGejRZc0Q0aGw4alVMR2RJeGIySDJiVTBqa0J0cmlLYVZkemFhZktrT1JLQ3gzSmxVK212dHR2OEE4OTR2Kyt4Ujl0dC8rZThYL2ZZcWxLM1FHNzI4ajVvYSsrT0dsK0tyN1F0RmpsdVo3Yno3MkZyOFd6V00wY3VvYWtJMm5rTGVhQ1lJN1JsU0UvS1NBNnFEaXJPaWFaOGF6cUQ2aGZXbW9TM1UxaGFCR3VydXpVUlNSU2FrV1dTT0tVUmx5SjdQNWtUYXdRYnNGYStqdnR0di93QTk0djhBdnNVZmJiZi9BSjd4Zjk5aXNwUjVvOHJmejY3alRzZUU2RWZqbEI0ODArMjFQL1NQRENhZ0drdlF0anZrdDJ0N1ZuV1pBVllLc3IzYVJtUEQvdXdYM2pHLzMyb1B0dHYvQU05NHYrK3hSOXR0L3dEbnZGLzMySzFidjBKU3NUMFZCOXR0L3dEbnZGLzMyS1B0dHY4QTg5NHYrK3hVako2S2crMjIvd0R6M2kvNzdGSDIyMy81N3hmOTlpZ0Nlc25XUCtQeTEvNjV5ZnpTci8yMjMvNTd4ZjhBZllyTTFTZU9hOHR2TGtSOFJ5WjJzRGpsS0JNaHJqUGlIZCtMTFFSUDRaZ2ptV095dXA1bGNnTThpK1g1VWFEWTJXWUdUSElBSUJPNEFxZXpyaGZFczlyckh4UDBEd3ZmNlJwbW8yRi9wRi9jU3lYMXFKcEI1Y3RxQWk1NENOdnl3SU9TaWROdEoxRlN0S1M3Zmk3R05ScFIxZHR2eGRqT3R2SHZpZlVUQVk5Q2todFpHWmpjaTNsSjJxcWtxRjI5UmxzTVJ0ZkdGNXJRMHZ4SjRxRmpvajN1a0JIdWx0Vm5WNDNaNG1Za1NoeWd3Q0FOd2JhRkJHRGpjQ09wbitIZmgrNU14bTBUU3BUTVhNaGV4ak84dTRkOTJSenVkVlk1NmxRVHlLSlBoMzRmbU1oazBUU25NbTdlV3NZenUzU0NWczhjNWtWWFBxd0I2ak5UeXZUWGIwMU43NzZIQ1hIeEQ4U1dFdDdiWEdrSVpvcmlUYkxIYnlzRmhONDBFSk1ha3M1YVBaSmtZRGZPQmphY2RENEw4UzY3cnNzeTZ6b1owUmh2SWhZdTdJUXdBVXZ0OHQ4Z2hneXQvRVYyL0lTZHB2aDM0ZmNzVzBUU21MWnlUWXg4NWw4MDl2OEFub0EvKzk4M1htcDdEd1pwT2xYWXU3TFRiQ3p1aEcwUG4yOW9pUDViT1pHVGNPZHBkbWNqb1dKUFUxdGRhNkVXWjRzbnh0OFJ2TFp3M0VHbTZUY3g2NURvRThXb1djMGEzczBiL3dDbXkyN3RJb1NIWXl0RTdCOXhYYmhpNHg3aktXRVRsQmx3RGdlOVcvc1RmODlCL3dCOC93RDE2aHZOR2gxQzBudGJwSXJtMW5Sb3BZSm9nNlNJd3d5c3A0SUlKQkI2MUhTdyt0enkyMDhjZU1ZckRTQVBEMHQ1OW9nRDNGNVBIS2hpbDNPR1JvdktSd01yR3U0Si93QXRkMkdFYkZwN254eDRza3RvVnQvRDhrVnl6UXZNWHRKbVdKR2xpU1JCMERNb2FYNWdTRDVlN2J0WVYycmZEbnc2Nm9yYUhwUlZGWkZCc0kvbFV4Q0ZnT09oaVZZeVA3b0M5QmlsaytIUGgyVU9IMFBTbkQ3OXdhd2pPN2VnUjg4YzdrVlZQcUZBUEFxbTArZ2ttdER6N1RQSHZqMmJWSUxhNDhGdkhhQXdpVzVrZm41cnRJSEhHQVNzTEc1M0FiY0V4NERJeHJZMWp4VjRzMDY3dXZKMEtPNHMxWmhITEhISTdLUE1DcVNxOHR3Q2NLQjk0ZjNTVDFFdnc1OE96aVFTNkhwVWdrOHd2dnNJenU4d0tzbWVPZHdSQWZVS3VlZ3BadmgxNGV1UE44M1E5S2w4NHlOSnZzSXp2TWhVeUU1SE80b3BPZXUwWjZDaWJVdGxiK3RpK2lWaml0SjhhZUw3algwanZmRHoybGpJamxnMFVqQ0IwTER5OTZnN2l3SWJ6QUNoMjdSeTJSVytLM3hRMVh3TDRnMHF6dElySkxlZEkyUmJ5R1IzMUtWcDBpK3kyN0t3Q1NoVzM1WU5rRWZMZ095OTdjL0RqdzVlUjNFZHhvV2t6cGNGMm1XU3dqWVNsM1dSeXdJNTNPaU1jOVdWU2VRSzE3blNJcjJCb2JoWXA0V3h1amxqREtjSEl5RDcwM0pOcDJ0L1g5ZnFaeGk0cHB1LzlmMStoODVUL3RFZUpwTlI4UDJpMkduNmRGZFQyVm5xVjVjMnJ1bGxjdWw4MXhDd2FlSUJrTnRiakJZa2VmbmE1WlFaN3Y4QWFCOFNOcVdoVzBOaFlXVnZjU2FiWjZsZXoyN1NKWlhzc2VvTmQyNTNUeEtHaU5yYWpCWXNQdEFPSExJRDlGL1ltLzU2RC92bi93Q3ZSOWliL25vUCsrZi9BSzlKTkxwL1duOWZNYlRleDVQOEVmaVhyWHhFZzFGOVd0YlZWaGlnbFM0c29KSW8wa2RwUTlxd2RtM1NSQ05HWmdRQ0psK1ZTT2ZVS3NmWW0vNTZEL3ZuL3dDdlI5aWIvbm9QKytmL0FLOVNVOVhjcjBWWSt4Ti96MEgvQUh6L0FQWG8reE4vejBIL0FIei9BUFhvRllyMFZZK3hOL3owSC9mUC93QmVqN0UzL1BRZjk4Ly9BRjZBc1Y2S3NmWW0vd0NlZy83NS93RHIwZlltL3dDZWcvNzUvd0RyMEJZcjBWWSt4Ti96MEgvZlAvMTZQc1RmODlCLzN6LzllZ0xGZWlySDJKditlZy83NS84QXIwZlltLzU2RC92bi93Q3ZRRml2UlZqN0UzL1BRZjhBZlA4QTllajdFMy9QUWY4QWZQOEE5ZWdMRmVpckgySnYrZWcvNzUvK3ZSOWliL25vUCsrZi9yMEJZcjBWWSt4Ti93QTlCLzN6L3dEWG9vQ3hzVVVWeVh4QzAveGRxRWVnandocVZscGs4V3FSeWFoSmZ4R1dPU3pFY2dkTm81SkxHTWpETDArOEtDanJhSzRyNGcvRHk0OFozdW1YMWpxLzlpYWhZUnp4eFhpMnduZEJLb0JLQm0ycVFRcDNZM0RHQVFDYzVHbGZDM3hIWjN5UGRlUGRSdTdKV3VIRnNGa1ZoNWp3Tkd1OHpFa1JyQ3lqZGtuelhMRTVPVTIwcjJBOU1vcnp2VC9ocHIxcFlhdkMvampValBlV1F0WUprRE45a2NLb01xQ1dTVExGbFp1VC9HUm5BWEdocTNnRzl2N3RMcUxXeWx5TGUwdHpjVFFGcHYzVWpOSVVkSFRZWlZZcSswRGpwMkZWWmR4WGR0anM2V3ZNTGI0UmEwdDFQUGMrT05RdUpwN1pMYWFaSXpISklGZVZsYklmQUlFcFVBQUxnRWtGamtiYStBcjRmdTAxbjdEYStVSXhiYWJGSmJScnlwK1VMTGhjNEp5UG15eCtiSEZEMDJHOU5qdEtLNFRWL2h2cU9vMjhrVVBpclVMWGNKUU12TElNUExHNEJCaytiQ3E2YzlwT3dHSzZmdzVvMG1oYWFiU1M2YThQbnpTaVI5MmNQSXpoZVdicHV4MTdkQlVSYmF1MVliVnRtYWxGRkZVSUt5ZFkvd0NQeTEvNjV5ZnpTdGFzbldQK1B5MS82NXlmelNnVDJLdGVlNm4vQU1uRGVELyt4ZjFYL3dCSFdkZWhWNTdxZi9KdzNnLy9BTEYvVmY4QTBkWjF6WWo0RjZ4LzlLUnpWdmhYckgvMHBIcGVwYW5aNk5aUzNtb1hjRmphUkFHUzR1WkZqalRuQXl4SUE1SXFqSjR3MEdIUVcxeVRXOU9UUlY2NmsxM0dMWWZOdC8xbWR2M3VPdlhpc3o0aStGOVE4VDZaWS8yVmNwYmFoWTNZdTRmTWNJck41Y2tmM2lrZ1VyNW05U1VZYmtYS2tWemx0OEtyeTg4R2F4cGVvVFdzZDlxT29SWDRsTXR4Y0dGNDBoUkg4NUhoa2FYTUFmZXV6QmJBQkM4ek9wVlVuR0ViNmYxL2xiNWpuT29wTlFqMFBTTE84ZzFDMGh1cldlTzV0cDBXU0thRnc2U0lSa01yRGdnZzVCRlMxNHVud0QxdGRTVFVIOGJ5WE4rdjJWMnVwN0pqSk84VFdqWWx4TUEwWk5vNUNBQWczRDhubmM3UlAyZUp0SHQ3RXkrSWwxUzh0NzZLNWQ3NjBrZUdhTkxRUWVVMGZuZjN4NXdPZUdBNE9NMW1xMkl2YjJYNG96Vld2ZTNzdnhSN05SWEVmQ1g0YnpmRExRTGpUcmpXSk5ibG1uRXpYVXNaalppSTBUTERjMldPekxOeHVZa25ra25UbDhONnFOU3Vab05kYUswbUx0OW5lRXVWTFk2UHZCQUdEeDc4WTR4MTA1U2xGT2FzKzI1MHdsS1VVNUt6N0hTVVZ6TjM0WjFpZS90NTR2RXM5dERIL3JMZU9CU3Nuek0yU1dKSVBLamc0d3VNWVBGT3g4RWF6YkNOWmZGTnhQR3QxOW9hTXc0REx2TDdNNzl3NVBYSjQ0SUl3QnFXZGxSUlJTR0ZGRkZBQlJSUlFBVVVVVUFGRkZGQUJSUlJRQVVVVVVBRkZGRkFCUlJSUUFVVVVVQUZGRkZBQlJSUlFCZW9vcmt2aUZwdmkzVW85QkhoSFZiVFNab2RVamwxQ1M5aDgxSkxNUnlCNDlnNUpMR1BHR1U4WjNEdUFkYlJYRytPL0N1dmVJdFMwZTUwZldZOUtYVDJhVW95TTNtdXhSVG5CQXdJL09VWkRETWdPTWdFY2ZxdndhOFFhdjRrZTd1dkVodTdEZEZJc1Z5ek9jcStuc3liY0FLaE5uTXhDa0JqT01nYmNrWG1KM1d4N0ZSWGxGbjhQdkhmMmEyRjc0cWFXYUdUekYrejNVa1lVYjVmM1pKUnQ0Q3lSL000UE1RQkJCSnJxOUI4S2F4WjN0aGZhaDRodXBuaTBuN0JMWVJuZGJOTnZEZmFjc0M3U0FEYmxqZ2puQXlhT2pZZGJIV1VWd1k4SitJSW9vSTdTNHRkT2lqalFTUTIxMUp0bUljbVRKMlpWcEFjbVRKWlNEMTNFMVQwL3dBQmVLYmUzc0laUEVTQVdUaVJIRzV5KzNDZ0FjQkI1UmVNZzd3ZUhBRFpOSjZBdFQwaWl2UC9BQkI4UHRVMVhVN1M1aTFFR096dTVMdU9PNW1sYmUzMlpVakJ4Z3FvbEcvYXB4MzY5TG1qZUdQRUZ0cUZqUGY2bjlwanQ1OTVWTHFYQmlNTElJeXVNUHRZaHR6WkxaeWNGUm1yYkN1K3gybEZGRklvS3lkWS93Q1B5MS82NXlmelN0YXNuV1ArUHkxLzY1eWZ6U2dUMkt0ZWU2bi9BTW5EZUQvK3hmMVgvd0JIV2RlaFY1N3FmL0p3M2cvL0FMRi9WZjhBMGRaMXpZajRGNngvOUtSelZ2aFhySC8wcEhhZU9QRTF6NFUwZU82czlQWFZMcWE1aXRvclpwakVHWjJ3UG1DT2YwcmgzL2FOMEd5dEx5Uy8wKyt0NTdNemllQ05vSFpQS3VoYkhqekFjRjJIekVCZUNOMmNBK3NVeExlS09TU1JJMFdTVWd1d1VBc1FNREo3OGNWMWFIVHFlWk44ZmRKdG5tV2ZUcjZVeFNPam15Q1NoZHM2UThnc3B6dWtRYlFDYzU5S3N6ZkhudzdEWmFMZGZaOVFlUFY0TG00dGhIR2pNeXc3dHdBRC9NeDIvS3FiaWR5akFKQXIwZWpGRjBHcDVYRiswZjRXbGVaZkp2a1dGSkhlUi9JVkFFR1Roakxoc3I4dzI1M0xsaGxRVFVaL2FOMEtOcnQ1TEc2VzFoUVNyTDUwQUxvZnM0VnptUUJGSnVNWllnSFljRW5nZXNZRkZPNjdCcWVkTjhhckNmUmRYdjdQVEwxanB6N1dpdTlzUG1EN1JQQVN1Q3hIejIwbkRBSEdPT2FzK0ZQaXZiZUl0RDFIVUpyZUNCYklJN1MydDZseGJ5bzVJVmtmQ3NRQ0NHSlFBTXJxcFlxY2Q1VmZVZE50TlhzNWJTK3RZYjIwbEFFa0Z4R0pJM0djOHFRUWVRS2NYRzY1bG9USlNzK1hjNG02K05QaDYxMHVLK2FRaEpGTENCblFURERSb1NWM0hBRFNBSHZ4a0JoelV0MzhYdEdzMmtSeVBPU1FvMExUeEkrQVl3V3d6QURIbUFISkJCQkhRRWpVL3dDRlllRHYraFQwUC93V3cvOEF4TkgvQUFyRHdkLzBLZWgvK0MySC93Q0pydTVzSC9MSTgvbHh2ODBmeC95R2FoOFF0TzArS2QzaHVjUk9FeTBSVlcvZHBJTU9mbERFT0FGWWhpZXdBSkVWbjhUZEl2cm1HMmg4MlNlU0tPYmJGdGNCV25FSkc0TVFTcnNNNHo3Wndhc2Y4S3c4SGY4QVFwYUgvd0NDMkgvNG1rLzRWaDROL3dDaFMwUC9BTUZzUC94TlJmQzIyZjRmNWwyeGQ3M2piNS81RmJWUGlmcG1sUVhVMGxyZm1PM2pqbGZkQjVUYlhEWU8yUXF3NVRHQ0FjbnBnRWhoK0ttangyOTdLNjNETGFReFRPWVlpNmtPaGRSdTRDNUNrQXNWQkpBNmtDcnYvQ3NmQjMvUXA2SC9BT0MySC80bWsvNFZoNE4vNkZMUS93RHdXdy8vQUJOTlBDVzFVdncvekU0NHkramorUDhBa01iNGlhZUxXVzRXS1lRcE41UG1TN1VYcEdRNXljcW1KUWNrY0FFNHhqS1FmRWZUTHU0Z2dpU1lYTXRzTG43TE92a3pvR2xXSlFZM3cyR2Q4S3dCUTdXK2JHQ1pmK0ZZZUR2K2hUMFAvd0FGc1A4QThUUi93ckh3ZC8wS2VoLytDMkgvQU9KcFh3dlovd0JmTWRzWDNqK1ArUm54ZkZqUjVvd1ZEdko5bE40WUkzUnBWakJVZk11N2o3eEJQUU1qcm5JNWx0Zmlwb2Q2SVRISTZtV1pJRlNiYkc1THl0R3VFSjNFRXFUd09udUNCYi80Vmg0Ty93Q2hUMFAvQU1Gc1AveE5KL3dyRHdiL0FOQ2xvZjhBNExZZi9pYWJlRTdTL0QvTWxSeG5lUDQvNUdUYmZFNjYxSFZ4YTJQaDI0bHRmTkVEWE0xMUVoVnhMR2tnMmd0d29rQnpua2dqM3J2SzU2MytIUGhPMHVJcDRQQytqUXp4TUhqbGowK0pXUmdjZ2doY2dnOTY2R3NLMHFVcmV5VnY2OVdkTkNOYUtmdFhmK3ZSQlJSUlhPZElVVVVVQUZGRkZBQlJSUlFBVVVVVUFGRkZGQUY2aWl1UytJU2VNWGowSC9oRFpkUGluR3FSblVUcWFsb2paZVhKNWd3UG0zYnZMeHRJT1FNbmJtZ0RyYUs0SDRqL0FBLzFmeGZyT2kzK2xhNjJpeWFla3E3a0JKSmQ0V3pnZGZsamRlby8xbk9SbFc1NjYrRVhpZTgxa2F0TDRsaisyTmEzRnJKc1JrWXh5M3NVK3dTTGhzTEZFSVFjWndjOGNncld3OUxvOWZvcmtZL0NPc1JhWEpZSjRoZUsxL3NXUFRZWUk3Y0tZYmxRd2E1RWdPODVCUWJjakd6SU9UV0I0aCtHdXU2eGEzZGxaYXZEbzJrWEZ2TGJuUzdRc3NTcTBRVkZVcUYyaEpOOHBJQU1tL3kyK1ZSVGxvN0xVSUxtdHpPeDZiUlhtODN3NjE5OWFpMUpkZmtOeER2MkYzeXB5ampHTm1WVml3YllHd3BBKzhBb1d6cC9nTFdMYldMbTl1TlZTZGJxV0NTU09NdEVSNVlQVWo3L0FGUEI0UEdlZ3FVMjFld3BhYmFuZjBVVVZRQlJSUlFBVms2eC93QWZsci8xemsvbWxhMVpPc2Y4ZmxyL0FOYzVQNXBRSjdGV3ZQOEFVRUwvQUxRL2c4REgvSXY2cjEvNjdXZGVnVndWMy95Y1Y0UC9BT3hlMVgvMGRaVnpZajRGNngvOUtSelZ2aFhySC8wcEhxbjJkL1Zmem8renY2citkVFNNVlpBTWZNMkRuNkUvMHBjTjZqOHE2VHFJUHM3K3EvblI5bmYxWDg2bnczcVB5b3czcVB5b0FnK3p2NnIrZEgyZC9WZnpxZkRlby9LakRlby9LZ0NEN08vcXY1MGZaMzlWL09wOE42ajhxTU42ajhxQUlQczcrcS9uUjluZjFYODZudzNxUHlvdzNxUHlvQWcrenY2citkSDJkL1ZmenFmRGVvL0tqRGVvL0tnQ0Q3Ty9xdjUwZlozOVYvT3A4TjZqOHFNTjZqOHFBSVBzNytxL25SOW5mMVg4Nm53M3FQeW93M3FQeW9BZyt6djZyK2RIMmQvVmZ6cWZEZW8vS2pEZW8vS2dDRDdPL3F2NTBmWjM5Vi9PcDhONmo4cVRMQXJrZ2duMG9BaCt6djZyK2RIMmQvVmZ6cXpSUUJXK3p2NnIrZEgyZC9WZnpxelJRQlcrenY2citkSDJkL1ZmenF6UlFCVyt6djZyK2RIMmQvVmZ6cXpSUUJXK3p2NnIrZEgyZC9WZnpxelJRQlcrenY2citkRldhS0FDaWl1UytJY1BqR2FQUWY4QWhETGpUN2FkZFVqT29uVTBMeE5aZVhJSkJnZk1XM0dNamFWT1FNa0xtZ0RyYUs0WHg5NFY4UjY5NGkwQzYwYlVSWTJkcHY4QXRQOEFwODhPRzg2QjFieWtHMmY1SXBVMnlFQUNYUFBJcmxyZnczOFhMczZmYTZocmxnQmJwWnpYVnpIS3F4M0VpWGp2S2loSUZmbUZZd1NTcW5sTnAzczZ0SzVNbnkyMHVleDBWNWo0WTBiNGt0TmZXZXVhOGtLblRIV0cvZ2lnbUNYYnM0UjEvZFI3eEdvVmlHalVFc0I4d0JOYjEzb3ZpYTJ0ZE8rejMwV3JhaERweHRacjI0dVdzdzArMFpuRUtSeVJrdXlqN3d4R003UXdabEoyQytqZGpzS0s4K2ZTZmlBK29XMHcxQ3dTRlhYekVOenV6R3lJSFVEN01BU3JxU0dQM3NuaU1IYUlMRFEvSDJtTGJNbDVaeXFSL3BGdTErOHVXV05FVmxra2dKQVlxV1lBRGFTU0JJU2N5M1pYSGM5SW9yemk5MDc0alF6TGNXOTlZdERISERJMXFrb2Q1NVVoSWRDelFxQXNrcFVGbDI3VmpMQVprMnA2RmFSeVEyc01jMHh1SmtSVmVVcUZMc0J5MkJ3TW5uaW4wdUJMUlJSUU1LeWRZLzQvTFgvcm5KL05LMXF5ZFkvNC9MWC9BSzV5ZnpTZ1QyS3RjRmQvOG5GZUQvOEFzWHRWL3dEUjFsWGUxd1YzL3dBbkZlRC9BUHNYdFYvOUhXVmMySStCZXNmL0FFcEhOVytGZXNmL0FFcEhyTXYzNGY4QWUvOEFaVFhuZmlEeDk0aTBIV05jaHRmRDkzcnNVRThhMjR0clNkRVJHdHl5Z3VZOFNNOHc4c3RFWFNNT3JTYk5yQnZSSmZ2dy93Qzkvd0N5bXVWMXY0bDZab1dwbXhuU1dTNCsxeFdZampLN3R6cnVESEpBVlFPN0VIZzhkTTlzS2NxanRGWE5aMUlVbGVic1pyL0VYV0dXNWxqOE1YcTIxck1ZcG5rdHJqZnc4S3MwY1lpM1NnZVpJUVV5R0VSMms1eU9oOEhlSWJ2eEpaWGsxNXBzK2x5UVhUMjRodUlwSTJJVUw4dzNxdTRaSkFaY3EyTWc5aGpYUHhmMEsydFBPazgrTnNRTjVNd1dOeXNxaGd3M0VEQUI1OThlb3paMXI0bTZib0V0MHQzYjNSV0dRSURBZ2NzTnFFdHR6a0FOTEVoeU9ESWg2RWthL1Y2dDdjci9BSy80Y3krdFViWDUxcC9YNkhYMFZ4MS84Vk5GMDNWWHNKek1reVJlYTJWSDNkd0dldnZubnIwR1c0cDJwL0U3U3ROMGROUWJkaHpJRXQ1R1ZKWDJSR1U3UVRnNVRCNi94QUhCNHBmVjZ1bnU3aitzMGRmZVdoMTlGZWR4L0Y2T1g0b1NlRFJaMnl6UjM1c3pLMStCTVYrd0xkaVFRN01rRXNVNE9Cc1lrZzdWYjBTcHFVcDB1WG5WcnE2OUdWU3IwNi9ON04zNVcwL1Zib0tLS0t4Tndvb29vQUtLS0tBQ2lpaWdBb29vb0FLYTNWZnIvUTA2bXQxWDYvME5BRHFLS0tBQ2lpaWdBb29vb0FLS0tLQUNpaWlnQW9vb29BS0tLNUg0a254c3VsMkxlQmpwQnZ6ZVJKZExyRVR1Z3QyTzEzVGE2Zk1tUTJDZVFDQnpnRUE2Nml1RStJUGdmV2ZGbDNhVGFmclUrbC9aYkM1VlBzMXk4SWU3WjRXaExvQXl0SGlPUldEQW5Ea0Fja2pqTlY4SS9HRFhyWFVvVjhRMkduV2QwZFJ0VnRwWkFKVmpjdUxhZFpJNGNxUXUwZVhra0E3eTViNVZjVmZmUVRkbWoyNml2SU5SOEpmRmtXOTgybWVKOU10NVpKcmg0TGFRZ3hvclhDdkd1LzdPV0JFZm1LVGc5UndlbzdHLzhQOEFpYWMrSUgvdDZPNXQ3dU8yL3MvVGhEOW1GdVl4Ky9ScmhkemtUSGplRnpHRGxRU0tUMFQ4Z1d0anJxSzg2dmRHOGZYcnlLayttMlZvL2xMOW5pdm5ZSXBRNzlyZlpnM3lOZ0FaL2VkY3hZMm1rL2czeDFkV1AyeTYxdU5OYmdlMWFOYlM0SmdsV09Wek1HVm9nUG5qWUVESERnZk5oUWFTZWwyUGQyUFVxSzh5dWRBK0l0L05FMGwvcHNFU3hUc0kwdkdmYks1ZFkxSit6THZWRVpTR3d1VDhwVnNDU3RuU05LOFoybXZXTDN1cVdsN3BXQ2JwTjIyUlc4bFFOb0VXR0JrM0hCS2tBRGxzN1FKdDdxdzNwc2RwUlJSVEVGWk9zZjhBSDVhLzljNVA1cFd0V1RySC9INWEvd0RYT1QrYVVDZXhWcmdydi9rNHJ3Zi9BTmk5cXY4QTZPc3E3MnVDdS84QWs0cndmLzJMMnEvK2pyS3ViRWZBdldQL0FLVWptcmZDdldQL0FLVWoxbVg3OFA4QXZmOEFzcHJsdFgwM3dKTDRqaXM5VXRmRHI2OWZEekk3ZThqZ04xY0FmeEJXRzV1aDU1NlYxTXYzNGY4QWUvOEFaVFhrZml6NFZlSXRaOFFlSVBzdDVBdWtheEtrMjc3VVlYdDVmSlNIenlnaFl5eVFoTjhlWlZUZDVaMnEwUWRycVZxdEZKMGxkaFh2eXEwZWJVNzMvaFhYaElrai9oR05GeVArb2ZEL0FQRTFQTDRGOE56MjBOdEo0ZTBxUzNoM2VWRTlsRVVqM0hMYlJ0d01ucmpyVlRVZkFWcmZhaHFWNUZxR282ZE5xQVR6elpUN01zb1ZRd0pCSU9GVWNjWXp4a2ttWnZCa0VqekdUVU5TZEpRUVVGMHliUVhkdmxLWUsvZkNnZzVBamp3Zmw1Mjl2WHYxKzhQWlIxWHMxK0grUTAvRHJ3a0FTZkRHaTRIVS93Qm53LzhBeE5UMmZnZnczcHR3dHhhNkJwVnJPb0lXV0d5alJnQ0NEZ2hjOGdrZlExa240WVdMMmlXNzZyckVxQ0R5SEwzaFBuRHkyUXRJTWJXWTVERmlNN2xVK29PMzRuOE0yZml6UTd2U3I1REpiWFFYZUNjNElJSUlCeU9DQWNFRUh1Q0NSVlJyMXBYVTIxOHh3cFEzY0V2dU5ZRUhvYzBBNXJrbStIVnF0dGMyOXZlMzFqRk81Y2kydUdYWVNzUzVYT2NjUWovdnVRL3hWQy93emprc3JpMWJXdFdNRnhDSUhVM1dmbDNic2o1ZUNmdW4xSEZTZEoybEZjNWIrRC9za2x3OFdwM3dOeG56QkpPWlZPWERZQWNNRUdBVitRTHczUElVaVBSL0JjdWxhcjlzZld0UnZFRWhrU0dlYks4b1ZJYjFHVG50MFgweVFEcDZLS0tBQ2lpaWdBb29vb0FLS0tLQUNtdDFYNi8wTk9wcmRWK3Y5RFFBNmlpaWdBb29vb0FLS0tLQUNpaWlnQW9vb29BS0tLS0FDaWlpZ0RKMWJ4UFk2THFGblozTWhXZTZET3ZRS3FLeUtYWmlRQU4waURIVTd1QWNIRlZQSG1pU2xCRmVHWGUyeFdXSjlwYmE3RWJpTm93STN6azhGY2RTS3M2NTRVMHZ4SFBhVGFoYnROSmF0dWpLVFBIa0VxeFZ0ckRlaEtJU2paVWxWSkhBcWphL0R2UXJPQzNoanQ3bG83ZkhsckxmWEVuUVNnWjNPZDNFMGc1em41Yy9jWEFUSy8yU2ZUdkhmaC9WcG80clBWN1c0ZVJRNmhINnFVTHFmb3lCbVUveEtDUmtBbW9tK0lmaDZPeXViMlhVa3Q3RzJHWnJxZEhqaGpIbENYTE93Q2diR1U1emprRHFjVlh0Zmhub21uNjVZYW5acFBadlp3ckNsdkJLVmljTEVZVUxqcXhXTWxWT2VNbkhKT2FVbndWOEd6UkNPVFJ6SkVFbGpNYjNjNVZoS01TYmdYd3hiQzVKeVR0WEorVVlwY3ZNcjdYK2R1dnpKOS9rZTNOYjVYNmZJMDdiNGtlRzd0V01lcXhnckswT3gwZEdMaVJvOW9VZ0VrdWpxdVB2RkcyNTJuRzNwZW93NnhwbHBmMnhKdDdxRko0eXd3U3JLR0dmd05jOWNmQy93M2MzMXplTll6UjNOdzVra2VHOW5peTNtZWJrQlhBVWlUTGpHTU16a1lMTVQwbGpaUTZiWlc5cGJJSXJlQ05ZbzBCSjJxb3dCejdDcFd5dnVhdmQySjZLS0tCQlJSUlFBVms2eC94K1d2OEExemsvbWxhMVpPc2Y4ZmxyL3dCYzVQNXBRSjdGV3VDdS93RGs0cndmL3dCaTlxdi9BS09zcTcydUN1LytUaXZCL3dEMkwycS8ranJLdWJFZkF2V1AvcFNPYXQ4SzlZLytsSTlabCsvRC92Zit5bXVNOFUvRTBlR2J6VXJiK3hyMjdrdEV0M2paUnNXNE1qbFNFWWpCMmdaNHlUODNBQ2sxMmN2MzRmOEFlLzhBWlRXSGZlQ3ZDMnEzY3QxZWVIOUp2Ym1SdjNrODFqSEk3RWNjc1ZKSjR4K0ZlaFJkT01yMVZkRlZsVmxHMUoyZjllcGluNHBSMnR5OFY3cGtzSVJwRmRvWkJMdEsvd0FPTURrY2s5bEJVay9NSzBORStJRnQ0ZzFhT3p0Yks1VkdMcVpKY0JsS1ozRXFDU0ZIeWpKeHk2Z0E4NGYvQU1LNjhIZjlDcm92L2d0aS93RGlhczZiNE44TmFOZUpkNmZvR21XTjNIblpQYldNY2Jya1lPR0NnaklKSDQxdktXR2NYeXhkL3dDdk01NHh4U2t1YVN0L1hrTjhJK0toNHFpdkpVVzA4bUdRUnBKWjNpM0t2OG95U1ZBQ25kdXdNa2xkckhhVzJqb0taNXkrcC9JMGVjdnFmeU5jazJtN3hWa2RrRktNVXBPNzdqNktaNXkrcC9JMDIydW9ieU15UVNwTWdaa0xJd0lES3hWaDlRd0lJN0VFVkJvUzBVVVVBRkZGRkFCUlJSUUFVVVVVQUZGRkZBQlRXNnI5ZjZHblUxdXEvWCtob0FkUlJSUUFVVVVVQUZGRkZBQlJSUlFBVVVVVUFGRkZGQUJSUlJRQnhueEI4SzYvNGtlTnRFMXVUUm1oc2JsVU1VenB1dWk4THdGZ0FWS0R5NUZiSUoydVFCazVHY2ROK0lkMUxiczkzWVJXM215UEpDYnZEc2dqVHlsSlcyR011SHlBVHR6OTZRSGF2b2xjZDQ3K0pWcjRDbFJiclQ3eTdpK3hYTi9MUGJKdVNDS0VBc3o0K1lENWh5QWFxTktWYVNoSFY5aWFsV05PSE5OMlM2L001N1RmRHZ4U3RMWFNGdWZFbW5YVWlReFIzNHdxNWNNMjk0Mk51U2NqYU1NT2VvSzQrYjBMdyt1cHBvMW91c3RidnFnUUM0YTB6NVJiMVhJQngrRmNYcWZ4MzhLYWZEZGJiaTRudTRZWnBoYWkya1ZwRmlRT3hCWlFNRUVBTjB6OURRM3g2OElXN1R4M043TkZOQzl3akl0cksrNHd2R3NnVWhQbVllYkdjREorYmpOZEN3MWRwZTQ5Zkl3ZUlvM3R6clR6UFJLS1FISXpTMXluU0ZGRkZBQlJSUlFBVms2eC93QWZsci8xemsvbWxhMVpPc2Y4ZmxyL0FOYzVQNXBRSjdGV3VDdS8rVGl2Qi84QTJMMnEvd0RvNnlydmE0Szcvd0NUaXZCLy9ZdmFyLzZPc3E1c1I4QzlZLzhBcFNPYXQ4SzlZLzhBcFNQV1pmdncvd0M5L3dDeW1vZE8vd0NQZC84QXJ0TC9BT2pHcVM0ZFkyaVptQ3J2Nms0N0dzRzZoMXRibVgrejljMGUzdEdZc2tWenA3elNMazVPWFc0UUhrbkh5ampBNTZucE9rd2ZFMnBlT0xQeEZjeDZaWmZiTkxpZUM0aU1ZalJwVmFTRkdnTE5uR0F0dzdOZ2ZLOFlCeURUdkRmaXp4bmY2bnB0dnFYaHVLM3Rad1dudll5eXJEOTRxQ2pIZG45MjRQWEJraXh1QllqWDh2eFIvd0JERm9IL0FJS0pmL2t1ankvRkgvUXhhQi80S0pmL0FKTHFnT0lqOFlmRTNacWIvd0RDT3dDU1NTZVMxaW5pWXJBRnRZU2tJS0g1ejV4bUc4a0sydzdkb0sxZm04VWVPYnZXZ3NPanpRV0VOd1VNbmtCQkxINTl1dVNyYjIrNFp5R1VqNVR5dTRESFVlWDRvLzZHTFFQL0FBVVMvd0R5WFI1ZmlqL29ZdEEvOEZFdi93QWwwQ05Qd3JmMytwK0g3SzUxUzEreDZnNmZ2b2RoUUJnU01oU1NRcHhrWk9jRVpBT1FLZmdUL2tDWFAvWVUxSC8wdG5xRHkvRkgvUXhhQi80S0pmOEE1THEvNGFzbDBMU1JhejMwRjFPMDg5eEpMR3ZscVhsbGVWc0tXWWdBdVFBU2VCMXBETnFpb2Z0Y0gvUGFQL3ZzVWZhNFArZTBmL2ZZcERKcUtoKzF3ZjhBUGFQL0FMN0ZIMnVEL250SC93QjlpZ0NhaW9mdGNIL1BhUDhBNzdGSDJ1RC9BSjdSL3dEZllvQW1vcUg3WEIvejJqLzc3RkgydUQvbnRILzMyS0FKcUtoKzF3Zjg5by8rK3hSOXJnLzU3Ui85OWlnQ2FtdDFYNi8wTlIvYTRQOEFudEgvQU45aWdYRVVqb3F5SXh6MERBOWpRSW1vb29vR0ZGRkZBQlJSUlFBVVVVVUFGRkZGQUJSUlJRQVVVVVVBRlZiM1NyTFVsbFc3czdlNldXRjdlUVRSSzRlSjhiNHprY3EyQmtkRGptclZjVjhVdmgxTDhSOUNGaERyVnhvc2l6MjA2elFwdkJNVnpGUGhsM0xuUGxiZW94dXp6akJFMm1tZ3NwYVMyL3I4dHpRZytHbmhLMnRsZ1h3MXBUUks4c29FdG5ISVM4cTdaV0pZRWt1dnlzVHlSd2VLbnVmQVhobTl0cGJhNDhPNlRQYnk3dk1obHNZbVI5ekl6WkJYQnkwVVJQcVkwUDhBQ01jaGMvQ3Z4QkxxVi9keGVOYnFFM0MrV2krVkwrNVFlYVZBS3pqT0RNVDAvZ1FkQVFlbDBEdzNxbWs2NEpaOVh1THZUWXJDT0JJWlpXY3kzSmJNc3pic2tjSkdGQWJBM1NjY2l0WFZxWFQ1bjk3TXZaVTlWeXI3a2RSUlJSV1JxRkZGRkFCUlJSUUFWazZ4L3dBZmxyLzF6ay9tbGExWk9zZjhmbHIvQU5jNVA1cFFKN0ZXdUN1LytUaXZCLzhBMkwycS93RG82eXJ2YTRLNy93Q1RpdkIvL1l2YXIvNk9zcTVzUjhDOVkvOEFwU09hdDhLOVkvOEFwU1BYYUt3L0Y3YXF1bHhuU0Vta3VSUEdXV0ZJMllvRGxoODhzWUFPQUNjNTU2ZHh3VXllTzUydFp2c3V0UlhDbUx6VVNheThyNVhsWnlGODRaM0JvaGc4WVVqamdqMDZkQlZJODNPbDZzVlhFT25MbDVHL1JIck5GZVlSWHZqeEVNWDlrNmdzR1ZVWWtzMmtDN1NEODdUbkxaeHpqNkJjWU8vRnBHdDM5dG9UekdhRXhlUzE1RTJvUEE0S1B1d2ZMOHdTQWtLU0M0M0JkckVxN2drcUNqdk5mSjNGSEVPZTBIODAwZGhSWElYV2plS1k5U3VwYkRWSVk3V1I1SFdLNGtNaEJLamFPWThLb0krNk9tU1N6L2RvajByeGdvdEMyczJyc0NqWEE4dFFEOHpibFg5MzNCVEJQOTA4Zk5sZVU3RHI2SzRmVk5DOFgvOEFDVFIzZW42dkdtblBjc1pJSGZPMkpyZU5laFFqNVpZU3d4Z3Q1ekRLWXlhc1Boeng2Z09mRVZxQ0ZrWlNVM0V5c0dDNXpIallwSU8wQWRBTzJTd1BRcUs0Ni9zZkdaMURTRGE2aFovWTE4dGI0WUFkaUViZXd6R2NndHQ0RzNPZXE0T2FFZWxmRUV1aXRyRmtpUEV4TGxWY3hTYjhnWThvYmh0NDdjODU3RkFlZ1VWeEYvcHZqZVhTeGEyMnEyMXZleU56ZmhFa0VRRVJJL2RsQjFrQUJQemNNVGdjYmRmdy9wT3RXR3JhaFBxZXEvMmpiU3h3cGJ4N1FwaTJodDVJVUJjc1c2Z2RBQjJvQTZDaWlpZ0Fvb29vQUtLS0tBQ2lpaWdBb29vb0FLS0tLQUNpaWlnQW9vb29BS0tLS0FDaWlpZ0Fvb29vQUs1RHhwOFM5TDhDYW5aVzJxelF3UlhOdGNYQ3NabDh3K1V1OWdJODdpQW01aStOaWhHM012eTd1dm9wTy9RRHllNS9hSjBPMnRJN28yenlSU1JOTXNVVnpDODVBVzFZRGFIeGtyZHEzRFl3TTVJSU5UMi83UlBoaVh4U21nVFJYdHBmTmRYRm9mUFdNQldpdUlyZmR0RGwyUjVaZ3FNcWtIWkpuYUViSHFOVlUwcXlqMUY3OWJTQmI1MDh0cmtSanpHWGo1UzNYSEE0OWg2VlN0YXozLzRIK1pTYTF1djYvcjh2TXRVVVVVaVFvb29vQUtLS0tBQ3NuV1ArUHkxLzY1eWZ6U3Rhc25XUCtQeTEvd0N1Y244MG9FOWlyWEQzdHBPdng1OEs2Z1laQllRNkZxVU1sMFVQbEk3VFdoVlMzUUVoV0lCNU8wK2xkeFJXZFNIdEZaOTAvdWFmNkdVNDg2dDVwL2M3bXY4QTJqYWY4L1VQL2Z3VWYyamFmOC9VUC9md1Y1cjhaOVN1OUcrRW5qRy9zYmlTMHZiYlNibVdHZUZpcnh1STJJWlNPaEJyb2ZEVThsejRjMHFhVjJrbGt0SW5kMk9TeEtBa210YmFYTkxuVS8yamFmOEFQMUQvQU4vQlIvYU5wL3o5US84QWZ3Vnl2L0NRV3haMVczMUNUWTdJV2owNjRkU1ZKQnd3UWc4ZzhqaWwvdCtEL24wMVQvd1YzUDhBOGJvc0Z6cWY3UnRQK2ZxSC92NEtQN1J0UCtmcUgvdjRLNWIrMzRQK2ZUVlAvQlhjL3dEeHVqKzM0UDhBbjAxVC93QUZkei84Ym9zRnpxZjdSdFArZnFIL0FMK0NqKzBiVC9uNmgvNytDdVcvdCtEL0FKOU5VLzhBQlhjLy9HNlA3ZmcvNTlOVS93REJYYy8vQUJ1aXdYT3AvdEcwL3dDZnFIL3Y0S1A3UnRQK2ZxSC9BTCtDdVcvdCtEL24wMVQvQU1GZHovOEFHNml1ZkU5bloyOHR4Y1E2akJCRWhra2xrMDI1VlVVREpKSmo0QUhlaXdYT3UvdEcwLzUrb2Y4QXY0S1A3UnRQK2ZxSC92NEt5S0tRWE5mKzBiVC9BSitvZisvZ28vdEcwLzUrb2Y4QXY0S3lLS0F1YS84QWFOcC96OVEvOS9CUi9hTnAvd0EvVVA4QTM4RlpGRkFYTmY4QXRHMC81K29mKy9nby90RzAvd0NmcUgvdjRLeUtLQXVhL3dEYU5wL3o5US85L0JSL2FOcC96OVEvOS9CV1JSUUZ6WC90RzAvNStvZisvZ28vdEcwLzUrb2YrL2dySW9vQzVyLzJqYWY4L1VQL0FIOEZIOW8ybi9QMUQvMzhGWkZGQVhOZiswYlQvbjZoL3dDL2dvL3RHMC81K29mKy9ncklvb0M1ci8yamFmOEFQMUQvQU4vQlIvYU5wL3o5US84QWZ3VmtVVUJjMS83UnRQOEFuNmgvNytDaiswYlQvbjZoL3dDL2dySW9vQzVyL3dCbzJuL1AxRC8zOEZGWkZGQVhPZ3JrdmlGNG4xN3d4SG9EYUI0Y2w4VFMzdXFSMmwzQkZJSXpiMjVqa1o1OTUrVWJTaWo1aUFTd1hJSkZkYlJRVWNaOFFManhmWTNPblhmaGkwR3FSUkpOOW8wNHl4UUNaeW43b3RJNEoyaGhncXUwbmRuZDh1MXVmdHIzNHF6WGtndTdQVFliWVhpS1BzU0psNE1XMldEUEtkdVNibktsQ1FGQUJPUTFlcDBVbXJxdzFvN25rVXZqSDRwUTNsblp2NFowMUo3bEZJa0JMeHF4Z2VSOTIyWWxRa2lyRms4T1hCeW5HZldiZDNrdDRua1F4U01vTEkyTXFjY2c0Skg1RS9XcEtLb213VVVVVWhoUlJSUUFVVVVVQUZaT3NmOEFINWEvOWM1UDVwV3RXVHJIL0g1YS93RFhPVCthVUNleFZvb3F0SnFWcEZxRU5nOTFDbDlQRzhzVnMwZ0VzaUtWRHNxNXlRQ3lna2ROdzlSU2J0dVRleHhueDZPUGdwNDYvd0N3TmRmK2ltcnB2Q1JEZUZORkk1QnNvU1ArL2ExZ2ZHM1RydlZ2aEI0eXNyRzFtdkx5ZlNyaU9HM3Q0eThrakdNZ0txamtrK2dyb1BDZHZMYmVGZEdobWplS1dPeWhSNDNVaGxJUUFnZzlEVjlBT2k4Ty93RElMSC9YYWIvMGE5ZWVYa2Z4SGc4UWF0UFpSeVMyQ1BkR0dLNmFCMWtQbHlHMk1LckloMmc3VmRaV1hKS2tZQVpxMDVQQzJzaWVaclh4dnIxakJKSzhpMjBNR25za1c1aTIxUzlxellCUEc1aWZjMDMvQUlSanhELzBVTHhIL3dDQTJtZi9BQ0hVMjF2Y2JkMVk1KzAxZjR2WDkvYXZjK0hvTk1pUm9GZU1YVUV5TnUvMXhZaVJUdFVBWUlYZHVKd3JER05UUWJyNGxQNGMxT0xVYkZMYlVMYUd4Tms2bUNWN2tnS2JrSDk3dExuREw4MnhjbmhpT1JjLzRSanhELzBVTHhIL0FPQTJtZjhBeUhSL3dqSGlIL29vWGlQL0FNQnRNLzhBa09peTE4d3VRYXBmZkU1ZFVXM3NyRFQydFdzVEkxNndUYXR3YmdCWXdobDNFckRrbHM3U1NNWXdWcWlsMzhVcnZWRWtsMDJLMHRJcm9vNGllRW1lQWxNRUw1cENnYm41enZJakpBQllKV3IvQU1JeDRoLzZLRjRqL3dEQWJUUC9BSkRvL3dDRVk4US85RkM4Ui84QWdOcG4vd0FoMGxHM1VMbWRvVjc4VmlrY2QvcDJtd0xFOW9HT1ZjeUw1aDgvYTNtNTRpOHM1WVozK1lBR1hZeDdYNGkvOGsrOFQvOEFZTHV2L1JUVnpmOEF3akhpSC9vb1hpUC9BTUJ0TS84QWtPb3Jyd1pxK28yczFyZStPZkVGNVp6b1lwN2VTRFQxV1dOaGhrSlcwREFFRWpLa0huZ2cxWFc0WDBzZFZSUmcraG93ZlEwaEJSUmcraG93ZlEwQUZGR0Q2R2pCOURRQVVVWVBvYU1IME5BQlJSZytob3dmUTBBRkZHRDZHakI5RFFBVVVZUG9hTUgwTkFCUlJnK2hvd2ZRMEFGRkdENkdqQjlEUUFVVVlQb2FNSDBOQUJSUmcraG9vQTZDaWl1TCtJZi9BQWtLeTZjMmt4NmxQcDJ5Y1hVV2lQYkxlZWFRdmtNRGNFSjVZeEprWnp1TWVRVTNpZ3M3U2l1Q090ZUtyM3dob043YldNcmFtYlpaTCsyQUZzN1hLRkE4WDd5TjlxTmlZWkM4NFREcUR2cTNaYXQ0dnV0SmhubjA2MXNydnpXRWtMUm1UY2hoREtSaVRncElTaDVQbWVXU05nY1lIb20reE4xZEk3S2l1U3V0VThWN2JUN1BwMW9wYU9Jek5PR3h2UG1GK0ZZbFJoSXgwYmFaZ2ZtQ0VIUHMvRVhqWkRLTHZRcmVUYmJTbFhneXF0TXFLVXdDNU95UjNaUUNBVkVKWnNlWUZTWlNVVmMwakZ5ZGtkN1JYSm5VdkZUWEczN0RhUko1OGFEZWpNREVWM014WldPT2YzZU1IQkc4Z2c0SFdVMDdxNG1yT3dVVVVVeEJSUlJRQVZrNngveCtXdjhBMXprL21sYTFaT3NmOGZsci93QmM1UDVwUUo3Rld2UGRULzVPRzhIL0FQWXY2ci82T3M2OUNyejNVLzhBazRid2YvMkwrcS8ranJPdWJFZkF2V1AvQUtVam1yZkN2V1AvQUtVajFTaXVUK0kvaXE4OEthWFlTV1NvSnJ5OFcyTThsdTl3c0srWEpJVDVTTXJTTTNsK1dxaGdTOGlZM0g1VHhQaUQ0dDY3b2Z3eDE3V1pWc0lkVjB6VnJUVDJrbmhWSTBTWjdVa3lSdGNCRWRFdVNwQm4yN285eFpRU3FxcGlZVW0xTG9yL0FJWC9BQ0hPdkNtMm4wVi8xUFlxSytlYkw5cCs2dXRGc3JlYlRMYVBYM3Q3ZVdmeTU4S3UrQzJrTHJFUVRzTFR1aW5jUWZMSkRObmk5NE0rUG1xZUp2RnZnblFIaTArTjc5aU5RbE54aWVVL1pidVFpS0RieEdza0NxMG0vaHd5YmU5YzZ6RER5a29wNnZUYnEzWXhXT29TYWludWU4VVZqZUl2RmRqNFlhMk4vSUlZcGhJUkl6QVkyREpBSFVuSE9jWUFCeVJ4bkN2ZmpCNGRzYlkzRHpTU1JBS3c4blk3a05zd1FnYmNmOVl2UWRPZWhVbjA3TTd6dHFLOCsvNFhkb0p2dEtnV0s4YVBVWTNlS1R5dm1HSmxpR1k4N2dEa3RrZ0RBd010bFIxZmhYeEpCNHMwV1BVN1pESEJKSktpaG5Wc2hKR1RPVkpITzNQQlBXaXpGYzFxS0tLUXdvb29vQUtLS0tBQ2lpaWdBb29vb0FLS0tLQUNpaWlnQW9vb29BS0tLS0FDaWlpZ0Fvb29vQUtLS0tBTDFjcjR4K0l1bmVDdFEwMnh1NFo3aTYxQkpwSUk0WGlUS3hHTVBscFhRWi9lcGdBa25uamcxMVZZUGlQd2JZK0pibTF2SnBieXoxQzBpbGh0cjJ3dW5na2lXUW9YSHluYXdKaWpPSERENVJ4VFFGZXkrSVdrM21rMk9vbG50cmU2V1pzM0RJbmxMRTIyUXNkMjNDbjBKeU9Sa1ZjUGpIUnRybGI2T1JrSVZrVEpZTVYzaFNPemJlU0R5QVJuR1JTUWVETkh0OUgvQUxMRm9aTEx5cG9DazByeU15U3R1bEJabUxFc2VTU2MxWGcrSDJoMjBqUEZiM0NPelJ1NUY3UDg1Uk5pN3ZuK2I1ZURuTzdBM1p3TUlsODNRbXQvRytpWE5wYjNBdmtTTzRDK1h2QkJMTmdxbU1mZU81U0Y2a0VFWkZhT2xhdGE2MVpyYzJjb2xpT09SMk9BY0gzR2VhNTcvaFZYaGp6VWwvcytUejBWVldiN1pQNWk3VGxTRzM1QlhvcHpsUUFBUUFCWFFhVm8xbm9kczF2WXdDM2dMYi9MVmlWQklHU0FUeG5HVGpxU1NlU1NUcU5YNmwyaWlpZ1lVVVVVQUZGRkZBQldUckgvQUIrV3YvWE9UK2FWclZrNngveCtXdjhBMXprL21sQW5zVmE4OTFQL0FKT0c4SC85aS9xdi9vNnpyMEt2UGRUL0FPVGh2Qi8vQUdMK3EvOEFvNnpybXhId0wxai9BT2xJNXEzd3Ixai9BT2xJOU0xRFRyWFZyS2F6dnJhRzh0SmwyU3dYRVlramRmUmxQQkgxcHVtYVhaYUxZdzJXbldrRmhaUWpiSGIyc1N4eG9QUlZVQUQ4S3h2SHZnMWZIZWhMcGNsN0pZUkc0aW1lV0dOSFlxalpLZ09DdlBUSkJ4NlZ5Tm44SmRidElydTBoOFgzbHBaTkxPMFgyWXlMSnNsdVZueC9yTUJsRzlOK0N6Yml4T0NWUFR5cTkrcDBXMXZZOVI0b3J6UnZoTHEwTXR4SlkrTDduVG5ra2FVRzN0eXZ6R1ZYQllDVEQ0VU91R0dQbnpnWUFyUnUvaDVxODFqcDhFSGpIVkxhUzB0cDRoUHVMczhyNTJTUGxzUHN5TUsrYzdSa241Z3pzaG5kVVY1eEY4TXZFVVJkajQ2MUNSbVdYQ3NyK1dqa2p5MlVlYm41RkJYYXpNR3p1UHovQURHdTN3aTFrenpYUC9DWlhadTVWS3RNWTVRd0IrelpDa1RaUUg3T2M3Q3VmTTV6dDVMTHVCNmZpaXZQbStHV3FYR2k2dFlYdml5N3Ztdm44eFpwb2lmSlBuVFA4cTc4QWJIaWp3dTBmdWM0eXhBdDZEOFBydlFOSDFTeGgxZmF0MkVFUDJhTjRGdFFPb2pRdTZya2NraGVXTEU1R0ZWcEp1elltMmxkSTdhaXVKdWZCZXQzdWh4Mk0zaUNkTGhWMm05dDVIamtJOHhXSGNqaFYyWk9TYzVPVFRsOEdhd0pYYzY1TGt6ZWF2NzJYamxDUmd0akIydHdBQjgvdHp2N0tuL1ArRE9mMnRUL0FKOXY3MGRwUlhLWFBobldKYkc0aGoxaVJKcHB4UDVyT3gyL3UxQlVEcUZMS1d3Q0FBeEF3Y01JN0x3bHJGcEJhMjdhNVBjVzl1eXRtV1Z6TklSTXNnM3VNWkcwT21NWUlmbk9PVjdPRnZqUS9henZia2Y0SFgwVnhHdWVEL0V1cVhONjl2NGsreFJUK1VFUlVrekVGRGc0S3VveTI3T1FCMEdjNEdMbGg0WTFmVDJ1M1RWNUpYbmpoakFua1oxVFlDR1lEZ0FzQ01sY2ZNTW5JK1VEcHd0Zm5WL21KVmFqbGJrZHZsL1gvRG5WMFZ4aWVFTmNrV1pyclhYbmxlY3lobzNsaVh5ejVXWXlvYkdQM1o1QUdON1k1SkpsbThJYW5jdmJOTnJFN21HMWp0bUt6eXhtVWlSV2trYll5amNWWGFwQXl1NWlTK1FBZXpoL09IdGFuOG40bzY2aXVGUGdmWGxzR2dpOFF5Sk45bUZ1SjNlWmp1eXBkeU4vVWxjakJCRzl4a2dnRFFrOE42elBGYkNiV1pKSklab1p0eXVZd3hRa3NHQ0FaVnM4cWVPTWNqaW02Y09rMStJS3JVZTlOL2VqcXFLNG5SdkF1cDJrNlQ2anJMNmpPSmpJWHk2Z3I1aU9xN1N4NEd3anJqNWp3T2xkdFdkU01ZdTBaWE5hYzVUVjVSc0ZGRkZaR29VVVVVQUZGRkZBQlJSUlFBVVVVVUFGRkZGQUZuYlAvd0E5SS84QXYyZjhhTnMvL1BTUC92MmY4YWxvb0FpMnovOEFQU1AvQUw5bi9HamJQL3owai83OW4vR3BhS0FJdHMvL0FEMGovd0MvWi94bzJ6Lzg5SS8rL1oveHFXaWdDTGJQL3dBOUkvOEF2MmY4YU5zLy9QU1AvdjJmOGFsb29BaTJ6LzhBUFNQL0FMOW4vR2piUC96MGovNzluL0dwYUtBSXRzLy9BRDBqL3dDL1oveG8yei84OUkvKy9aL3hxV2lnQ0xiUC93QTlJLzhBdjJmOGF5OVZFZ3ZMYmV5dCs3a3h0WEhkUGMxczFrNngvd0FmbHIvMXprL21sQW1WYTg5MVAvazRid2YvQU5pL3F2OEE2T3M2OUNyZ2IxRmY5b253ZUdVTVArRWUxWGdqUC9MYXlybXhId0wxai82VWptcmZDdldQL3BTUFVLS3NtQ0ZjWmpUbmdmS0tQSWgvNTVML0FOOFYwblVWcUtzK1JEL3p5WC92aWp5SWYrZVMvd0RmRkFGYWlyUGtRLzhBUEpmKytLUEloLzU1TC8zeFFCV29xejVFUC9QSmYrK0tQSWgvNTVML0FOOFVBVnFLcytSRC93QThsLzc0bzhpSC9ua3YvZkZBRmFpclBrUS84OGwvNzRvOGlIL25rdjhBM3hRQldvcXo1RVAvQUR5WC92aWp5SWYrZVMvOThVQVZxS3MrUkQvenlYL3ZpanlJZitlUy93RGZGQUZhaXJQa1EvOEFQSmYrK0tQSWgvNTVMLzN4UUJXb3F6NUVQL1BKZisrS1BJaHovcWsvNzVvQXJVVmErenhmODhrLzc1RkgyZUwvQUo1Si93QjhpZ0NyUlZyN1BGL3p5VC92a1VmWjR2OEFua24vQUh5S0FLdEZXdnM4WC9QSlArK1JSOW5pL3dDZVNmOEFmSW9BcTBWYSt6eGY4OGsvNzVGSDJlTC9BSjVKL3dCOGlnQ3JSVnI3UEYvenlUL3ZrVWZaNHY4QW5rbi9BSHlLQUt0Rld2czhYL1BKUCsrUlJRQkpSUlJRQVVVVVVBRkZGRkFCUlJSUUFVVVVVQUZGRkZBQldUckgvSDVhL3dEWE9UK2FWclZrNngveCtXdi9BRnprL21sQW5zVmE0SzcvQU9UaXZCLy9BR0wycS84QW82eXJ2YTRLNy81T0s4SC9BUFl2YXIvNk9zcTVzUjhDOVkvK2xJNXEzd3Ixai82VWoxbVg3OFArOS83S2FvUmVKdExtMU83MDViMk1YbHAvcm9ueXUzNVZZNEo0T0ZkQ2NaeHZYT01pcjh2MzRmOEFlLzhBWlRYSGFwOEpkRDFYVjlYMU4ydW9ielUxS1R5UU9xL0swY2NURDd2T1VpVmZtenR5MjNhV09lazZUZEhpN1J5eFEzOGF2OXBXekNQbFdNekJTRUFJeWVIUThjWU5iRmNuQjhOTkl0cjlMdUpybEdXNCswbE40S3MrWWp6a1p4bUNNOEVkUFFrVjFsQXdvb29vQUtLS0tBQ2lpaWdBb29vb0FLS0tLQUNpaWlnQW9vb29BS2EzVmZyL0FFTk9wcmRWK3Y4QVEwQU9vb29vQUtLS0tBQ2lpaWdBb29vb0FLS0tLQUNpaWlnQW9vb29BS0tLS0FDaWlpZ0Fvb29vQUtLS0tBQ2lpaWdBckoxai9qOHRmK3VjbjgwcldySjFqL2o4dGY4QXJuSi9OS0JQWXExd1YzL3ljVjRQL3dDeGUxWC9BTkhXVmQ3WEJYZi9BQ2NWNFA4QSt4ZTFYLzBkWlZ6WWo0RjZ4LzhBU2tjMWI0VjZ4LzhBU2tlc3kvZmgvd0I3L3dCbE5lVWVNdkMveEZ2OWYxS2ZSRjBvV2R3NitYSmRhOWNRdWlvbnlCSTB0R0VmN3dLN1paOTRYYndHSXIxZVg3OFArOS83S2E4bjhWZkZyV3RIOFFhL0haMmtNMWhvc2dFdHVMS1NSNWtXRkpYL0FOSTh4VWprWXlSeHh4YkhabWRDTXF6R1BxV0xXRDk5cTk5UDE4dXhuaTR3bEJLY210ZW5vUkhTUGl5a1RwRHBmaEJEOXVhNWpENjNkTXNjVExqWmo3SGxuQnl3a1lrQW43dUFBTUhVUEEzeG52MmdZWGVnVzdwOHJ0RnI5NGQwZjhVZnpXaHd2VGs1YmpsbTR4NmpxdnhIczlEMVBVclM5dHBmOUY4dlliY2lScFE0QjZjQlRuZDh1ZDJGTFlBSUpodVBpdHBWdDV1NjF2bTh0ZDJVUkdEZnZObUF3ZkhYQjY5R1U5R1hQV3MxaEI2Umo5ei9BTXppbmhLVXRKVlpmZXY4amdMZnd2OEFHWmJKb0p6NFhsYjdRTGhHVFdycFJHY2dsVkJ0RGhBUjhvL2g3bHE5VDhCYWJxdWsrRkxLMTF2N01OVlV5Tk9MT2VTZUlNMGpOOHJ5QU93d1I5NFo5ejFQUFA4QUdYVHhDcFRTNzlwWmJjM0VLTXFLQ01IQ3UyNzVXeXBHT1NEZ2ZlSUZkTjRtOFREUU5HMUMrU0F6dlo3ZDBjeGFGWHpqN3JGVHU0UFJReEpHQU04Vm5QSExGUjVZcExyb21kT0dvVTZjbktFM0xTMnYvREczUlhHcjhTb0YwNmE3azBxK2NSeVNMc3RrRG5DK1h6eVY1L2VxTURKQkRBNEtuRUUveFpzYmV6dUpYMHpVUkxIQ0pZNGpHbzg4bGlvVkNXNVBCSnlCd0NlbGM1NlIzTkZjYmFmRlRTTHR0Ulh5THlQN0VzanZ2UlR2Q09xTnR3eDdzdUNjRDM0TlRhTDhTZE0xN1YxMDYyZ3V4T1pYaExTSW9WV1ZONXpoaVJ4anR4bGM0M0RJQjFsRkZGQUJSUlJRQVVVVVVBRkZGRkFCVFc2cjlmNkduVTF1cS9YK2hvQWRSUlJRQVVVVVVBRkZGRkFCUlJSUUFVVVVVQUZGRkZBQlJSUlFBVVVVVUFGRkZGQUJSUlJRQVVVVVVBRkZGRkFCV1RySC9INWEvd0RYT1QrYVZyVms2eC94K1d2L0FGemsvbWxBbnNWYTRLNy9BT1RpdkIvL0FHTDJxLzhBbzZ5cnZhNEs3LzVPSzhIL0FQWXZhci82T3NxNXNSOEM5WS8rbEk1cTN3cjFqLzZVajFtWDc4UCs5LzdLYXlyenc1b09vNnZEcXR6bzlqZDZuYjRXSytrczFrbWoyazRDeWJTUmdrOUR3U2ExWmZ2dy93Qzkvd0N5bW9kTy93Q1BkLzhBcnRML0FPakdyb2FVdDBkRFNlNUw5b1gwZi92MjMrRkgyaGZSL3dEdjIzK0ZjRjRtMUR4eGFlSXJtUFRMUDdacGNUd1hFUmo4dEdsVnBJVWFBczJjWUMzRHMyQnc2QUhJTk84T2VLZkdsN3FlblcycGVISVlMV2NGcDcySXNxeFozRlFVWTdzL3UzQjY0TXNXTnczRVZZZHp1L3RDK2ovOSsyL3dxanJPazZWNGpzV3N0VzAyRFZMTmlHTnZlMm9takpIUWxXVWpJcnpPTHhiOFQ5bXB2L3dqOXVKSkhta3RZcDR5VmdDMnNKU0VGRDg1ODR6RGV4QWJZY2JReWlyOC9pVHgxZGEwcXc2VExCcDhOd1U4enlWakVzZm4yNi9NckYyKzU1NURLUjhwNVhjQmgyQzV1LzhBQ3B2QUgvUWorSC8vQUFTdy93RHhGSmJmQ2o0ZVhrUmtnOEcrR3BVRE1oWk5LdHlBeXNWWWZjNmhnUVIySUlyZjhMWDJvYWo0ZnNyalZiWVdtb3VuNytJSVVVTUNSbFFTU0ZPTWpKemdqSUJ5QlM4Q2Y4Z1M1LzdDbW8vK2xzOUlDbC93cDd3Ri93QkNSNGMvOEZOdi93REVWc0o0UDBHUFZZZFRUUk5PWFVvU3hpdkZ0SXhOR1dCREZYeGtaQk9jSG5KclhvcERDaWlpZ0Fvb29vQUtLS0tBQ2lpaWdBcHJkVit2OURUcWEzVmZyL1EwQU9vb29vQUtLS0tBQ2lpaWdBb29vb0FLS0tLQUNpaWlnQW9vb29BS0tLS0FDaWlpZ0Fvb29vQUtLS0tBQ2lpaWdBckoxai9qOHRmK3VjbjgwcldySjFqL0FJL0xYL3JuSi9OS0JQWXExd1YzL3dBbkZlRC9BUHNYdFYvOUhXVmQ3WEJYZi9KeFhnLy9BTEY3VmY4QTBkWlZ6WWo0RjZ4LzlLUnpWdmhYckgvMHBIcTl3Nnh0RXpNRlhmMUp4Mk5aVTJubDVwR2g4UVhkcEd6RmhERjluS3FTY25CYU1ucms4azlhMjZLNlRxTUgrelp2K2hwdi93RHZtMC8rTTBmMmJOLzBOTi8vQU44Mm4veG10NmltSXdmN05tLzZHbS8vQU8rYlQvNHpSL1pzMy9RMDMvOEEzemFmL0dhM3FLQU1IK3paditocHYvOEF2bTAvK00xWTBLeHROQjA3N0pIZXRjZ3pUVHRMTzZiMmVTVnBHenRBSDNuT01BY1lyV29wRElmdGNIL1BhUDhBNzdGSDJ1RC9BSjdSL3dEZllxYWlnQ0g3WEIvejJqLzc3RkgydUQvbnRILzMyS21vb0FoKzF3Zjg5by8rK3hSOXJnLzU3Ui85OWlwcUtBSWZ0Y0gvQUQyai93Qyt4UjlyZy81N1IvOEFmWXFhaWdDSDdYQi96MmovQU8reFI5cmcvd0NlMGY4QTMyS21vb0FoKzF3Zjg5by8rK3hRTGlLUjBWWkVZNTZCZ2V4cWFpZ0Fvb29vQUtLS0tBQ2lpaWdBb29vb0FLS0tLQUNpaWlnQW9vb29BS0tLS0FDaWlpZ0Fvb29vQUtLS0tBQ2lpaWdBckoxai9qOHRmK3VjbjgwcldySjFqL2o4dGY4QXJuSi9OS0JQWXExd1YzL3ljVjRQL3dDeGUxWC9BTkhXVmQ3WEVYbG5jRDQ4K0ZkUU1FZ3NJZEMxS0dTNjJIeWtkcHJRcXJOMEJJVmlBZVR0UHBYUGlGZUN0M2ovQU9sSTVxMnNWNngvTkhlZUxqcW8weVAreUZsYTVFOGJNSVkwZGlnT1dIenl4Z0E0QUozWjU2ZHh3YzBIam1kcldieWRham5VeGVhcVMyZmxmSzhyT1F2bkRPNE5FTUhqQ2tjY0Vlbi9BRysxL3dDZm1IL3ZzVWZiN1gvbjVoLzc3RmVsVHJ1bXJLS2ZxaFZjT3FzdVp5YTlHZWR4WFhqbEkvSk9tNmdJUGxVWWUwYVFMdElQenRNY3RuQnpqNkJjWU9uTDRWdjlaSGgyNXZMYUpwYlh5V3VWdTVjVEpza0VnQVpSSnVHOVkzeHZHNHhKdUpCWVYyUDIrMS81K1lmKyt4Ujl2dGYrZm1IL0FMN0ZONGg3eGlsNmY4T1NzTEcxcFNiOWYrR09adXRGOFR4NmxkUzJHcXh4MnNyeU9zVnkvbUVFZ2JRTXA4cWdqN282WkpMUHd0RWVsZUxrRm9XMXEya1lGR3VCNVNnSDVuM0t2eWR3VXdUL0FIRHg4MlY2YjdmYS93RFB6RC8zMktQdDlyL3o4dy85OWl1UTdUa05VMEh4Yi93azBkNXArc0ltblBjTVpMZDJ6dGlhM2pYR0NoSHl5d2xoakJiem1HVjZtckQ0Yzhkb0NENGp0c2haV0JLYmlaV1VoU2NwallwSU8wQWRBTzJUM1AyKzEvNStZZjhBdnNVZmI3WC9BSitZZisreFRBNWpVTER4aWIvU0RhNmphQ3pUeTF2UVFBNzRSdDdBbU04RnNjRGJrSHF1T2FFZWsrUHk2SzJzMmFJOFRFdVVSekZKdkJVWUVRM0RieDI1NXoyUGJmYjdYL241aC83N0ZIMisxLzUrWWY4QXZzVWdPUjFEVFBHc3VsaTF0dFd0N2U5a2M1dnhHa2dpQWlKSDdzb0J6SUZCUHpjTVRnY2JkZncvcE9zMkdyYWhQcVdyZjJqYlRSd3BieGxRaGkyaHQ1SUFBSll0MXgwQUhZVnIvYjdYL241aC93Qyt4Ujl2dGY4QW41aC83N0ZBRmlpcS93QnZ0ZjhBbjVoLzc3RkgyKzEvNStZZisreFFCWW9xdjl2dGYrZm1IL3ZzVWZiN1gvbjVoLzc3RkFGaWlxLzIrMS81K1lmKyt4Ujl2dGYrZm1IL0FMN0ZBRmlpcS8yKzEvNStZZjhBdnNVZmI3WC9BSitZZisreFFCWW9xdjhBYjdYL0FKK1lmKyt4Ujl2dGYrZm1IL3ZzVUFXS0tyL2I3WC9uNWgvNzdGSDIrMS81K1lmKyt4UUJZb3F2OXZ0ZitmbUgvdnNVZmI3WC9uNWgvd0MreFFCWW9xdjl2dGYrZm1IL0FMN0ZIMisxL3dDZm1IL3ZzVUFXS0tyL0FHKzEvd0NmbUgvdnNVZmI3WC9uNWgvNzdGQUZpaXEvMisxLzUrWWYrK3hSUUJZb29vb0FLS0tLQUNpaWlnQW9vb29BS0tLS0FDaWlpZ0FySjFqL0FJL0xYL3JuSi9OSzFxeWRZLzQvTFgvcm5KL05LQlBZcTBVVVVFbkZmR3JVTHJTdmhENHl2TEs1bXM3eTMwbTVraHVMZVFwSkc0allobFljZ2c5eFhSZUdaWHVQRGVreXl1MGtqMmtUTTduSllsQmtrOXpYTGZIbzQrQ25qbi9zRFhYL0FLS2F1bThKTUc4S2FLUnlEWlFrZjkrMXF1Z0V2OXUyNVp3c0YvSUVka0xSNmZPNjVVa0hCQ1lQSVBJNHBmN2JoLzU5ZFMvOEZseC84YnJkOE8vOGdzZjlkcHYvQUVhOWVlWGtQeEhoOFFhclBaTEpKWUk5MFlZcmw0SFdRK1hJYll3cXJvZG9PMVhXVmx5U3BHQUMxVGZXdzdhWE9tL3R1SC9uMTFML0FNRmx4LzhBRzZQN2JoLzU5ZFMvOEZseC93REc2NHUwMVQ0dTM5L2F5WEdnd2FiRWpRSzhZdW9Ka083L0FGeFloMU8xUUJnaGQyNHRnTU1ZMU5CdVBpUzNoelU0dFJ0RXR0UXRvYkUyVHA1TXIzQkFVM0lKTW0wdWNNdnpiRnllR0k1QjNDeDBIOXR3L3dEUHJxWC9BSUxMai80M1IvYmNQL1BycVgvZ3N1UC9BSTNXSnFsNThUUnFhMjlqWmFlYlZyRXlOZU1FMnJjRzRBRVlReWJzckRrbHM3U1NNQVlLMVFXNCtLVjNxa2NrdGhGYVdrVjBVY1JQQ1ROQ1NtQ0Y4MGhRTnovTm5lUWhJQUxCS1NkK2dXT3EvdHVIL24xMUwvd1dYSC94dW9ycnhKYVdWdExjWEVOL0JCQ2hra2xrMDY0VlVVREpKSlRnQVZ6K2hYWHhXS1J4MzlqcHNLeFBhQm15cm1SZk1QbmhXODNQRVhsbkxETy96UUF5N0NlMCtJdi9BQ1Q3eFA4QTlndTYvd0RSVFZXbDdCYlM0dEZGRklRVVVVVUFGRkZGQUJSUlJRQVVVVVVBRkZGRkFCUlJSUUFVVVVVQUZGRkZBQlJSUlFBVVVVVUFkQlJSUlFXRkZGRkFCUlJSUUFVVVVVQUZGRkZBQlJSUlFBVms2eC94K1d2L0FGemsvbWxhMVpPc2Y4ZmxyLzF6ay9tbEFuc1Zhb1RhN1kyK3QybWp5WEFHcFhjTXR4RGJoU1dlT01vSGJnWXdESWc1OWF2MTU3cWYvSnczZy84QTdGL1ZmL1IxbldWV2JoRzY3cGZlMGpHcEp3VjEzUys5cEdsOFl0RHYvRWZ3cThXNlhwdHBMZFg5NXBseEJCQW93WGRrSUFCT0J5Zld0M3d2WnoyUGhyU2JhZUdTT2VHMGhqa1FxZmxZSUFSK1lycGFLMnYwTmJHZEFaN1dQeTRXbFJOek50OHZQSkpKNmoxSnFUN1ZkLzhBUFdiL0FMOWovd0NKcTdSU0hZcGZhcnYvQUo2emY5K3gvd0RFMGZhcnYvbnJOLzM3SC94TlhhS0FzVXZ0VjMvejFtLzc5ai80bWo3VmQvOEFQV2IvQUw5ai93Q0pxN1JRRmlsOXF1LytlczMvQUg3SC93QVRWZlVZWk5XMCs1c2JzeXpXdHpFME0wZXpidVJnUXd5QUNNZ25vYzFxMFVCWXpkcmYzSC83NU5HMXY3ai9BUGZKclNvb0N4bTdXL3VQL3dCOG1qYTM5eC8rK1RXbFJRRmpOMnQvY2Y4QTc1TkcxdjdqL3dEZkpyU29vQ3htN1cvdVAvM3lhTnJmM0gvNzVOYVZGQVdNM2EzOXgvOEF2azBiVy91UC93QjhtdEtpZ0xHYnRiKzQvd0QzeWFOcmYzSC9BTytUV2xSUUZqTjJ0L2NmL3ZrMGJXL3VQLzN5YTBxS0FzWnUxdjdqL3dEZkpvMnQvY2YvQUw1TmFWRkFXTTNhMzl4LysrVFJ0Yis0L3dEM3lhMHFLQXNadTF2N2ovOEFmSm8ydC9jZi92azFwVVVCWXpkcmYzSC9BTytUUldsUlFGaTlSUlJRTUtLS0tBQ2lpaWdBb29vb0FLS0tLQUNpaWlnQXJKMWovajh0Zit1Y244MHJXckoxai9qOHRmOEFybkovTktCUFlxMTU3cWYvQUNjTjRQOEEreGYxWC8wZFoxNkZYbnVwL3dESnczZy8vc1g5Vi84QVIxblhOaVBnWHJIL0FOS1J6VnZoWHJIL0FOS1IwWHhVOFUzWGhUUUxXNHQza3Q0NTdvVzg5NUVJaTl1aGprWUZQT1pZZzdPcVJLWkR0RFNya045MDhiSDQyOFIzL3dBTTlSdW9OUXVIdXJYV3JLeFhVckMzaXVyZ1dyUzJ2Mmhqc2phR1NTTlpaMFpvMEtLMGJBWkttdllMbVNHT0ZqY05Hc1IrVStZUUZPZTNOSmJOQzBJRnVZekVwS0R5c2JRUVNDT1BRZ2o4S21wUm5PVGFtMG1yRG5TbEtUYWxaTkhoRVB4ODhXNkpZU2YydjRLdkpvcmEzZWM2dE1odEk1NC9Oa1dKL0xZRjBabFdNbEFwSU1uTzNBVXl6L0dueGhZWGVwWHA4S1h0MWFOQ290YmI3Tk1JOTBaMUV0SXJDRXVmUCt6V3lxR0h5K2VoNXpoL2JKNDdIV2JlYTFtVzN2b0RoWllYQ3lMMXlBeW5JNmp2NlZickQ2dFhYL0w1NmVTTVZRcmY4L1g5eU9POEJlT0wvd0FYNmpyOXJkNk0yay8yUmMvWTVDOHU0dkxsbUdCZ0RCaGEya3prOHpGZjRDVHAzZmlpVFQ5V250SjlNdUdoRFJyRFBiL3ZmTTNESkpBKzVnNUdDY25xQml0YXcwMnowdUtTS3l0WUxPT1NWNW5TQ01JR2tkaXp1UUJ5ek1TU2VwSkpOVEdhTVNyRVhVU01Dd1RQSkF4azQ5c2o4eFhkVFVveHROM1oxd1VveHRKM1prWHZpWkxORllXRjVjWllMaUpVeU1uR2VXSEhJL0E1NmMxbXllUEpGZ3YzWFE5Ulo3ZFEwU0ZBdm01akRZNjhFTmxTQURnNDduRmRVOGl4S1dkZ2lqdXh3S1NLVko0MWtqZFpFYm95SElQNDFxV09vb29wRENpaWlnQW9vb29BS0tLS0FDaWlpZ0Fvb29vQUtLS0tBQ2lpaWdBb29vb0FLS0tLQUNpaWlnQW9vb29BdlVVVVVBRkZGRkFCUlJSUUFVVVVVQUZGRkZBQlJSUlFBVms2eC94K1d2OEExemsvbWxhMVpPc2Y4ZmxyL3dCYzVQNXBRSjdGV3ZQZFQvNU9HOEgvQVBZdjZyLzZPczY5Q3J6M1UvOEFrNGJ3Zi8yTCtxLytqck91YkVmQXZXUC9BS1VqbXJmQ3ZXUC9BS1VqdHZHbmcrMDhjYVRGcHQ4eCt5QzVpbmtRQS92QWpaMlpCQkdmVVZ3TW53UzFZUmFqYlczaTY0czdXUXpmWlFxek0wWWt1Vm4ydCsrQUtxRjhzQVliQnp1R2R0ZXVVVjFKdEhUWTh4bCtETjVMSkt3OFdYOXJ1a2Q0L3NnYUx5OTB5U1ovMWhCYmFySmtqbmV4eDJxU1g0VGFyUFk2RmJ0NHZ1NG1zSUxtQzRsZ2prVnBqS1RpU1BNcDJPbTc1ZDNtS0NGd294aXZTcUtMc0xJOG9pK0RHdHhQTTQ4YlhUTTZ5QkZlS1VwR1dYaGdQUDVLc01LVHlJeVVPNDRjTmI0SDZpQmVQSDR1dUZ1TGxGM3ltS1g1NVA4QVJ3UzJKZ1N1TGNBS0NDTjdaWWppdldhS2QyRmtlZGo0Unl0bytyNmZjZUlyMjhYVUg4enpMb0dReG43UlBLQ0FXeDkyVkkrTWNRcngyQ2FkOE45UzhNZUZ0WnRkTXVyRzgxSzlTTXJISkc5bmFpUlNjNFZUSnNVcmpJQUpMYmlXK1liZlJhS2NadUxUSmxCU2k0OXp4Szk4RS9GTzcwcUt3ejRiWkVVcjU4MnFYVHpOODZNTXQ5bkhBQ0Zkb0FVaHNrRWpOUzNQZzM0bVN5eUdLRHd6SEcwclNqZHF0MzVnYk1aSHpyYnFmNE9jWXlXSjRJR1BhS0s5RDYvTmZZajl6L3pQTi9zNkg4OHZ2WCtSNVRmZUhmaUpkUTNFY2R0b3NRbWxFcFU2NUtWenNSUzNGaUR1eXBZRUVLQzJTcHhVRmg0WitKTnJMYmlTMjhQbTBoalJWdElkYXVWakRyT0pRL3pXcm5PMEZDU1NUdUpKNkFldTBWQ3hqU3R5TDhmOHkvcVVXK2JubCtIK1I1RnEvaEw0aDZwRmRqYnB5elR4eHFKVzhRUy9LeUJ4dXdsZ281RDlCZ1o1NjR3eFBDM3hNaGh2aEF1aDJzdHhERkVyVytyeXFGMklWSk9iTXR5VGtiV1VqYUJrODU5Z29vV05rbGJraitQK2ZrTDZqRnUvUEsvcXY4dk04bWs4TWZFRjdhWlRaYUhQY1NTK2Q1dHpyczdnbkVZS0ZSWmpLRXhjcmtjTVJudlRZL0RIeEQrMDIvMml6OFAzMXREYXJiQTNXc1ROY0g5NnJ0bVFXUVVncWdVWlFzTWxnK1NjK3QwVWZYSC9BQ0w4Zjh4L1VZdjdjdncveVBHb2ZCdnhIU1B5SHQvRHd0eGFOYkF3NnhjSk1XeXVITC9aVGtIWXBZWTVZdVFRR0sxTkQ0YitLS2ZaMW5YdzllckZQSE1YdWRZdVdrK1dSbklYL1J0b0pCQzVLbkdEMndGOWZvcHZHeWU4SS9qL0FKaVdBaXRweSs5ZjVIaitrL0RyeFJGcmtONWY2WnBWd0JjaDJtYnhGZFN5SkdKWTVBb1Uyb0RGZkw0eVJrbmtpdllLS0s1cTFlVmRweVczcityWjFVTVBHZ21vdmYwL1JJS0tLSzV6cENpaWlnQW9vb29BS0tLS0FDaWlpZ0Fvb29vQXZVVVVVQUZGRkZBQlJSUlFBVVVVVUFGRkZGQUJSUlJRQVZrNngveCtXdjhBMXprL21sRkZBbnNWYTg2MW4vazRQd2YvQU5nRFZQOEEwZFowVVZ6WWo0RjZ4LzhBU2tjMWY0RjZ4LzhBU2tlbTBVVVYwbTRVVVVVQUZGRkZBQlJSUlFBVVVVVUFGRkZGQUJSUlJRQVVVVVVBRkZGRkFCUlJSUUFVVVVVQUZGRkZBQlJSUlFBVVVVVUFGRkZGQUJSUlJRQi8vOWs9IiBoZWlnaHQ9Ijc4MSIgd2lkdGg9IjczMCIvPjxjbGlwUGF0aCBpZD0iY2xpcDMiPjxyZWN0IGhlaWdodD0iMzgwMTAzNiIgd2lkdGg9IjM1NTI4MjUiIHk9IjAiIHg9IjAiLz48L2NsaXBQYXRoPjwvZGVmcz48ZyB0cmFuc2Zvcm09InRyYW5zbGF0ZSgtODg0IC04NykiIGNsaXAtcGF0aD0idXJsKCNjbGlwMCkiPjxnIHRyYW5zZm9ybT0ibWF0cml4KDAuMDAwMTA0OTg3IDAgMCAwLjAwMDEwNDk4NyA4ODQgODcpIiBjbGlwLXBhdGg9InVybCgjY2xpcDEpIj48ZyB0cmFuc2Zvcm09InNjYWxlKDEgMS41MDYwNCkiIGNsaXAtcGF0aD0idXJsKCNjbGlwMykiPjx1c2UgdHJhbnNmb3JtPSJzY2FsZSg0ODY2Ljg4IDQ4NjYuODgpIiB4bGluazpocmVmPSIjaW1nMiIgaGVpZ2h0PSIxMDAlIiB3aWR0aD0iMTAwJSIvPjwvZz48L2c+PC9nPjwvc3ZnPg==;" vertex="1" parent="1">
          <mxGeometry x="-54.00200500488281" y="-108.99800262451171" width="373" height="601" as="geometry" />
        </mxCell>
      </root>
    </mxGraphModel>
  </diagram>
  <diagram id="GDKEmH58h0ZjNtu6ElWd" name="EKS-1">
    <mxGraphModel dx="1554" dy="747" grid="0" gridSize="10" guides="1" tooltips="1" connect="1" arrows="1" fold="1" page="0" pageScale="1" pageWidth="1100" pageHeight="850" math="0" shadow="0">
      <root>
        <mxCell id="0" />
        <mxCell id="1" parent="0" />
        <mxCell id="8ZgqBJ8MnrdaV1y4pMBW-7" value="&lt;h1 style=&quot;margin-top: 0px;&quot;&gt;Install Kubectl and eksctl&lt;/h1&gt;&lt;div&gt;&lt;a style=&quot;font-family: Calibri, sans-serif; font-size: 10.5pt; background-color: transparent;&quot; href=&quot;https://kubernetes.io/docs/tasks/tools/install-kubectl-windows/&quot;&gt;&lt;i&gt;Install&lt;/i&gt;&lt;/a&gt;&lt;/div&gt;&lt;div&gt;&lt;span style=&quot;font-size:10.5pt;mso-bidi-font-size:&lt;br/&gt;11.0pt;line-height:110%;font-family:&amp;quot;Calibri&amp;quot;,sans-serif;mso-ascii-theme-font:&lt;br/&gt;minor-latin;mso-fareast-font-family:Calibri;mso-fareast-theme-font:minor-latin;&lt;br/&gt;mso-hansi-theme-font:minor-latin;mso-bidi-font-family:Arial;mso-bidi-theme-font:&lt;br/&gt;minor-bidi;mso-ansi-language:EN-US;mso-fareast-language:EN-US;mso-bidi-language:&lt;br/&gt;AR-SA&quot; lang=&quot;EN-US&quot;&gt;&lt;a href=&quot;https://kubernetes.io/docs/tasks/tools/install-kubectl-windows/&quot;&gt;&lt;i&gt;and Set Up kubectl on Windows | Kubernetes&lt;/i&gt;&lt;/a&gt;&lt;/span&gt;&lt;/div&gt;&lt;div&gt;&lt;br&gt;&lt;/div&gt;&lt;div&gt;&lt;br&gt;&lt;/div&gt;" style="text;html=1;whiteSpace=wrap;overflow=hidden;rounded=0;" vertex="1" parent="1">
          <mxGeometry x="-107" y="18" width="392" height="347" as="geometry" />
        </mxCell>
        <mxCell id="8ZgqBJ8MnrdaV1y4pMBW-8" value="" style="shape=image;verticalLabelPosition=bottom;labelBackgroundColor=default;verticalAlign=top;aspect=fixed;imageAspect=0;editableCssRules=.*;image=data:image/svg+xml,PHN2ZyB4bWxuczp4bGluaz0iaHR0cDovL3d3dy53My5vcmcvMTk5OS94bGluayIgeG1sbnM9Imh0dHA6Ly93d3cudzMub3JnLzIwMDAvc3ZnIiBzdHlsZT0iY29sb3I6IHJnYigwLCAwLCAwKTsgZm9udC1zaXplOiBtZWRpdW07IGZvbnQtc3R5bGU6IG5vcm1hbDsgZm9udC12YXJpYW50LWxpZ2F0dXJlczogbm9ybWFsOyBmb250LXZhcmlhbnQtY2Fwczogbm9ybWFsOyBmb250LXdlaWdodDogNDAwOyBsZXR0ZXItc3BhY2luZzogbm9ybWFsOyBvcnBoYW5zOiAyOyB0ZXh0LWFsaWduOiBzdGFydDsgdGV4dC1pbmRlbnQ6IDBweDsgdGV4dC10cmFuc2Zvcm06IG5vbmU7IHdpZG93czogMjsgd29yZC1zcGFjaW5nOiAwcHg7IC13ZWJraXQtdGV4dC1zdHJva2Utd2lkdGg6IDBweDsgd2hpdGUtc3BhY2U6IG5vcm1hbDsgdGV4dC1kZWNvcmF0aW9uLXRoaWNrbmVzczogaW5pdGlhbDsgdGV4dC1kZWNvcmF0aW9uLXN0eWxlOiBpbml0aWFsOyB0ZXh0LWRlY29yYXRpb24tY29sb3I6IGluaXRpYWw7IiBvdmVyZmxvdz0iaGlkZGVuIiB4bWw6c3BhY2U9InByZXNlcnZlIiBoZWlnaHQ9IjEyNi4wMDAxMzczMjkxMDE1NiIgd2lkdGg9IjU1Mi4wMDA0MjcyNDYwOTM4IiB2aWV3Qm94PSIwIDAgNTUyLjAwMDQyNzI0NjA5MzggMTI2LjAwMDEzNzMyOTEwMTU2Ij48ZGVmcz48Y2xpcFBhdGggaWQ9ImNsaXAwIj48cmVjdCBoZWlnaHQ9IjEyNiIgd2lkdGg9IjU1MiIgeT0iMCIgeD0iMCIvPjwvY2xpcFBhdGg+PGNsaXBQYXRoIGlkPSJjbGlwMSI+PHJlY3QgaGVpZ2h0PSIxMjAwMTUwIiB3aWR0aD0iNTI1NzgwMCIgeT0iMCIgeD0iMCIvPjwvY2xpcFBhdGg+PGltYWdlIGlkPSJpbWcyIiBwcmVzZXJ2ZUFzcGVjdFJhdGlvPSJub25lIiB4bGluazpocmVmPSJkYXRhOmltYWdlL2pwZWc7YmFzZTY0LC85ai80QUFRU2taSlJnQUJBUUVBWUFCZ0FBRC8yd0JEQUFNQ0FnTUNBZ01EQXdNRUF3TUVCUWdGQlFRRUJRb0hCd1lJREFvTURBc0tDd3NORGhJUURRNFJEZ3NMRUJZUUVSTVVGUlVWREE4WEdCWVVHQklVRlJULzJ3QkRBUU1FQkFVRUJRa0ZCUWtVRFFzTkZCUVVGQlFVRkJRVUZCUVVGQlFVRkJRVUZCUVVGQlFVRkJRVUZCUVVGQlFVRkJRVUZCUVVGQlFVRkJRVUZCUVVGQlQvd0FBUkNBQitBaVlEQVNJQUFoRUJBeEVCLzhRQUh3QUFBUVVCQVFFQkFRRUFBQUFBQUFBQUFBRUNBd1FGQmdjSUNRb0wvOFFBdFJBQUFnRURBd0lFQXdVRkJBUUFBQUY5QVFJREFBUVJCUkloTVVFR0UxRmhCeUp4RkRLQmthRUlJMEt4d1JWUzBmQWtNMkp5Z2drS0ZoY1lHUm9sSmljb0tTbzBOVFkzT0RrNlEwUkZSa2RJU1VwVFZGVldWMWhaV21Oa1pXWm5hR2xxYzNSMWRuZDRlWHFEaElXR2g0aUppcEtUbEpXV2w1aVptcUtqcEtXbXA2aXBxckt6dExXMnQ3aTV1c0xEeE1YR3g4akp5dExUMU5YVzE5aloydUhpNCtUbDV1Zm82ZXJ4OHZQMDlmYjMrUG42LzhRQUh3RUFBd0VCQVFFQkFRRUJBUUFBQUFBQUFBRUNBd1FGQmdjSUNRb0wvOFFBdFJFQUFnRUNCQVFEQkFjRkJBUUFBUUozQUFFQ0F4RUVCU0V4QmhKQlVRZGhjUk1pTW9FSUZFS1JvYkhCQ1NNelV2QVZZbkxSQ2hZa05PRWw4UmNZR1JvbUp5Z3BLalUyTnpnNU9rTkVSVVpIU0VsS1UxUlZWbGRZV1ZwalpHVm1aMmhwYW5OMGRYWjNlSGw2Z29PRWhZYUhpSW1La3BPVWxaYVhtSm1hb3FPa3BhYW5xS21xc3JPMHRiYTN1TG02d3NQRXhjYkh5TW5LMHRQVTFkYlgyTm5hNHVQazVlYm42T25xOHZQMDlmYjMrUG42LzlvQURBTUJBQUlSQXhFQVB3RDRPdGRGMURYdFFGcnBsaGM2amM3Ti9rMmtMU3ZnZFR0VUU0cUc2MERVN0d6KzEzT25YZHZhK2EwSG55d01xZVl2M2szRVkzRHVPb3JYOFBlSVlmRHQxcU1rMXJIZWZhTEZyZElwZ1NoWXVoK2JCQng4cDcrbGFIaUh4ekY0azhOUEhldE5jYTFOY2VhOHUwSXFndTdNT0R5cEw4QWpnNXdlYUFPWGcwTFVyclRKOVNoMCs2bDA2M1lMTmRwQXpReGs5QXpnWUIrcHFLMzA2NHU3YTV1SVlpOFZzQTByQWo1QVRnSEhYR2VQeHJxZkQvaXV3MHZ3ZGYyTW9uYStrODFZa1ZSc0lrUUtTeHoyeG5HUFNvdE04UVdmL0NSS0xxNGtiVGJ1eFd3dVpIaFZTZ01TcnUyb09RanFyRHVkZ3p5YUdCeTgxdE5iRkJORThSZFE2NzFJM0tlaEdlb1ByVWRkNWFlSjlGZ3Y5R3Z6TGNHNGdzRFp5S2JkV0VMK1d5ckttVGhpQ3dQUWRQV3RPWDRoZUg1N20zYzJVa1ZzbW9pNWx0bzdhSEV5NzFPOGtqZzhINVJ4OHhIU2pxQjUzSHBGOU5wMHVvUjJWdzloRTRqa3VsaVl4SXg2S1d4Z0UraE5QMGZRZFQ4UTNMVytsYWRkNm5PcTcyaXM0R2xZTDB5UW9KeHlPZmV1eDhRK01ORjF1OTFueTQ1YlNHOHRZRkVrY0lHNmFQdVZ6MGIxem42MVEwUFhOTzhHL3dCcE5ieXhheTkzYUNKRm1nWlkwY1NvNExEY004S2Z4cEFjZzZORzdLeWxXVTRLa1lJTlNRMmtzOFUwc2FibzRRR2tPZnVnbkEvV3ZRWXZpaXQxZmFlMS9HcnFMYWJ6N2o3TkdaVXVwUE8vZkx4eVFaRlAvQVJqR0JTeGVNdE1ENnJlUytUTnA4MS9ieng2TzBlR2tDdUdrWWdMdFVNQWNnSCtMcGltdDlRWjV4VDVZSklObm1Sdkh2WGV1NVNOeStvOVJ4WHBlb2ZFYlI3elVOVmxXQXcrZkJIR2swVm5IdWtDNzl5TXJaQURiMUJQK3lQUVZIYmZFbTNtdnZEOXplM054TDloc0dzNUVraFZ4RzJXdzZISTVJSUdlb29BODFvcnFQRXZpalR0VXM3aTF0Tk9DaHJ5U2VLNW1WQkxGR1hZaU1iRkdSZ2pPZWhIQUFwZEM4UzJXbmVGcjZ3a2paYnFTUXVHV0ZIRXE3UUFyTXd5b0I1NHJLcEtVVmVLdVZGSnZWbkxWYXY5SnZ0S01JdmJPNHN6UEdKb3Z0RVRKNWlIb3k1SElQcU9LNzNVL2lScDF2cVY3ZWFOWmlLU1ZubWkrMFc4YkJXZWZ6Q2hYa0ZRdnkrNHoyTmMxSmY2VHFWam9rVjNMY3cvWmkwVndzTVlPSXl4YmNwSjY4OURYUEN0VmxaeWhaZmU5amFWT0N1bEs1enRGZDlvUGpqU3RPOEo2ZnBrbHFJYnVHOVdlVzZTM1dSOW9rVnR5a25xQUNNRUVIUHBWeWY0aWFHNmVJVGI2VEhhTHFGdjVjRnY1S3VzQU1SVHkxSlBBVmp1RGRjODllYWw0aXFtMHFUKy93QTEvd0FQOHRRVk9EU2ZOL1g5Zm1lYTFORlpYRThzVVVjRXNrc296R2lvU3pqMkhmb2Z5cExhWllKZDd3cE91TWJIemo5SzNMWFZyR0piT1IzbDh4TFNXemtRSU1BT3NpN2djODQzaml2UVNPWm1DOEVrVXpRdkd5U3EyMHhzcERBOU1ZOWFzM09pNmhacEs5eFlYTUNSRUxJMHNMS0VKSkFCeU9NbFcvNzVQcFM2cGZMZWFsSmNSQW92eWhNOWZsQUFQMTR6WHBIdzM4VzNSdGRSL3RDVzN2WTd1N3QvdEszbDNiUm1TQmZOTWliWlhVblBtZFIrZFZGS1dobk9Vb3ROV3NlWkRUcnRtVlJhekZtaU02Z1JuSmpBSkxqL0FHUUZZazlPRDZWWHIzclRQRldwVzkzb004dXNRSjluMFc1MGk0Vk5Wc2o1WmVLVkVrWDk5ODJESWh4eDkybVdkMWE2Ym8ralF0Y2FWZlhVTjFGY1NPOTVZSFlWZVlzeHpLQ3pNSFFrWi9oSE5ieG9LWFczeU1mYnRkUHhQQ0sxTFB3eHFlb1gybFdjRnFYdXRWZFVzNDl5Z3lsbjJMMVBBTGNaT0IxcnZQRSttSFZiN3hCSlpYZGhEQmZQYm1PTjlTMDg3eWk0ZG1QbVpYbkpHM3JuNWlldFhMdXlhMzE3V2J1MXZOTGVPMDA1dEwwai9pYldtQ0N2a3RKZ3kvTGxHbWNkd3pqMHFGUzdsdXJwb2VhYVo0YjFiV29wSmRQMHU5djQ0bFpuZTJ0M2tDQlFDeEpVSEFBSUo5QWFxV1ZsY2FsZVFXbHBCTGRYVTdyRkZCQ2hkNUhZNFZWVWNra2tBQVY3U21vUnJwSGhpejh5eFZMRzRMenhwcWRpRmlWb1JFeFFpWExFbmMvUHJpdWY4RGFGQjRPOGI2QnJqWGRuZExwZXMyOTJVR3FXU2lTM2prVnlmOWR3eHdlT2xWT2tvdEpPNG8xcnB0bm50aG9XcGFyYlhkelphZmRYbHZacDVsek5id3M2UUovZWNnWVVjSGsrbFVxOTJzdGF0N1cxMWdSVyttV3YyeXdhM2p0NDlVc21TTm10SHR5cUV6WlFibkxsaHl3SkJ6M3cvR3VuV25pcDlLS3kyTUgyYXdramthTFVyQkFaUW43cFFCTDkzY0FDYzlDU0FPbE9WRkpYaTlSUnJYZG10RHl1V3ptaHRvYmgwS3d6YnZMYkkrYkJ3YWtzOUx1dFFndlpyZUl5UldVSW5uYklHeEM2cG5ucjh6cU9QWDYxNjc0WWd0ZEowL1JHdmIyeXVydXpTN2kyRytzV1czODZHUkk1RUptK1l4dXl5QUVkUnhnaXFPczJpelc5NjFrMmxJOS9xRU0wNkhWTElaaWlRQUhpWEFMdXpzVkhIVDBwUm8zYXU5UCtHSzlyMlBKdXRYTlYwWFVkQ3VFZzFLd3VkUG5lTlpVanU0V2laa2I3ckFNQVNEMlBRMTdUbzNpTm85UThSM1dwMmVnM0wzZ1ZMUW05c0NCRXJTbnltQWxIREIxQlBvZzlCZzhNNmhaNlhKcGwxZExwczExYjZML1pXSk5Sc3BGZ2RaeElKVnpNTTdsM3Bqakc0OVFTS0lVbEpLK2hNcXpUMFI0VlJYdkZocW1uV3VnV2R1dGxwRU4zSHE4ZCtjMzlnNlJLR2xMQmYzMzNjUEg4dit4MTZVbW9hbllTNlY0b3RMZXowbDVkU2t6RlBjYWpZc3hCZ1NQa2lVYmRyaHBCMTVJNzVKYm9XamUrb0t2ZVZySGlOMXAxelpRVzAwOFJqUzVReVJGaU1zdWNaeDF4a0hyMXhSZGFYZTJOdGEzRnphVDI5dmRxWHQ1WlltVkpsQndTaEl3d0I0eU85ZXgyMXhEcCt0NnNzZzB1OTArMXRVaTBaMTFheUpXNGdSbGdrTzZYSWpMdThySjNPQWF5dFcwVzMxblFQQ0duM2VyUXl0cDdTUjNqSFZMSWxJbmNIRVpNL08wREFCd0tYc3Q3ZjFxUDIycS9yb2VmV2ZoSFhkUjArTy90TkYxRzZzWkpsdGt1b2JXUjRtbFk0V01NQmdzU1FBdlVtcXVyYU5xR2dYejJXcDJOenAxNGdCYTN1NFdpa1VFWkdWWUFqTmVpNkZwRnZaK0VaZEt2cHJTVDdUZHhUVHh4YXJZRGFGY2ZPcitia255eTZoV3lNdG1vZkYraWp4SnJsN3FCdXJIenZzOFlqa0dxV0tDZVpTb0paQk5pTmRtY0JlQnRBd0JVdW5wZEZLcHJxY1d2Zy9XenFlbDZjK2xYY0Y1cWpSclpSWEVSaSswZVlRRUtsc0Fna2pucDcxVFRTTDE3cTB0dnMwaXpYZTM3T3JydDgwTWRxbFNlQ0NlTTlPSzlvMW0raHZKSmIrMGswK08raXNyb1FKTHF0bmdYRnkyMXovcmo5eU41Q0c0K1lJUU9LSXRRU1RSdkN0bTk3WjI4K21yRWp6cnFOaXhnQ2VjWENIenNzSlBNVUVIcHRyYVZDS255cDZkLzY3YW1TclM1YnRIaHJLVllxZUNEZzFadnRNdXROVzFhNWlNUXVZUlBGa2c3a0pJRGNkT1FldnBYclZ4RmJqVE5kMGVCOUtlenYya01VOHQvWXF5TTF4RElySDk2U05xckl2Qi9pUHFhMDdmVjdTSlBFRnZMYjZYTEhKTHQweWNhbllsa2lqakhraHN5OEV5UVc1YkhZeWV2TXhvSjJ2SzJuNDl0UHVLZGV6MFhYK21lSFhGbk5hckMwcUZGbVR6RU9SOHk1eG45RFNKYXpTVzh0d2tNalFSRlZrbFZTVlF0bmFDZWd6ZzQ5Y0d2YUxXZGRIMGxKTGEvc2J2V0JwUzJLeVRYMWhpRnhjd1NaQk14eUFpU0puSGYzclJnMXJUN2JUNWJXR0hUb2JadFZGMUhhcnFOZ1VpUVBNVmZtWDVtQWtUQ25qNU1kS0kwRTVXYnNEck5LNlI0RFZuVE5NdWRZdm9yT3ppTTF4Sm5hZ0lIQUJKSko0QUFCSko0QUJKcjNpMjEvUzdheDhTeHk2YnBON2QzOExSMnR6SnFOZ0NqL1p4RUpDQkx3U3hrYzQ3NDcxbitKN21EVUxuVmRWMDZiVFlOU2xzR3NJRkdwV1VRWHptSWxLaFpjQUNIZkhnbi9scnhqRlQ3TGY4QXE0ZTJ2MFBEcWtodFpyaEpuaWhrbFNGUThySXBJUlN3VUZ2UWJtVVpQY2dkNitodkRmaVRTTkQwUFJyVnJIUzVwN1VJc3JTYWhwN2tyNTF1MGk1TXZ6QmxqbEhUK1BIclZYVC9BQkJZVzlsSkhQYTZiS2tzOFVsemFycVduaExrQzd0NTJMTjV1UmxZblhIVGtWVG9KTzNOK0FsWGIreitKNFMrbFhzYlhLdFozQ3Rhb0pKd1ltQmhVa0tHZmo1UVN5ako3c1BXcEpORHY0dE5pMUJyV1Q3RktDeXpBWlhBYmFTY2RCdU9PZTlleGF2cUZqcUVHdFd4c2RObGsxQkhsbHZ2N1pzME05ejViQkpIajgwZ0FPNWJBUFU1NXBtalhrR2hhdDVja09rNmxwY05uYldzSWJWclBobGRaSGwybVhCWU51SURBZzRHUmpOSlVWeldiL3JYL0w4UnVzN1hzZU1XbG5jWDhwaXRvSkxpUUk4cFNKQ3hDSXBkMndPeXFyTVQyQUpQU29hOTY4SzZ0WjZBdG81RmlsMkxPV3psdUUxS3dKUW0xdTRWa0daZVN6WEtrZy8zTzlSejZ0Wk5vMnNXcWFmb3J5WFZ6SEptVFVMSE13VXhFc1Q1M3lFK1c1NEIrK1IzTkVhS2U3dC9TQjFyUFJIaGlRU3lSdTZSdTZKamV5cVNGeWNESjdWWjFUUnRRME9kSWRSc2JuVDVwSTFsU082aGFObVJ1VllCZ01nOWozcjJPLzFTNm1QaU8xdDlYdG9MVFVyWlFqcmY2ZWgzcXhJUmxXVURidE8zUFhpdWIxUHc1QnJkdjRmRnplV2tKdExNMmx3a1dxV1J4dDNGR1VtYm5KWUFqc0tsMHJMVGNwVmRkVHpTaXZhdEV1NExEd3BvV215d2FRazlsZlIzTnhJdW9XTHRJcXN4T0dNMzhRSVVnakdPdWNWZXZkYXNaUEQvQUlndGJldzBhRjc0U0dLSnIreGNJR2lDS29QblpIbGtaVTRKNEI2MVRvcTE3L2dMMjJ0cmZpZUhYV24zVmo1ZjJtMm10L01HNVBOaks3aDZqUFdvS3RYMnEzZXBpSVhWdzgvbEx0VGVmdWowSDVWVnJtZHVodEhtdDcrNFVVVVVpd29vb29BS0tLS0FDaWlpZ0Fvb29vQW52UDhBV2ovZHJXOEVhSlkrSS9FOWxwdW9YajJOdmNONWZtb2hadHg0VUFBSHFjVmszbit0SCs3VGJXN21zcFRKQklZbktzbTVldUdCQkg0Z2tmalFCcStLUERyZUZkZmswMjZXWUdFcUpDeTdTeC9pSzU3WnlCbjA1OUs2V2Y0YjJ1cTYvRnAraVhja1NQRlpuZnFSSHpTM0tJMGFEWUQzYkdUNlZ4bXI2emU2OWV0ZDZoY3ZkWExBQXlQMU9QOEFPZmNrbnZWdXg4VzZ4cHQ0MTFiWDhzTncwU1FtUmNaMm9vVk1laFVLTUVjakhCb0EyRjhBSmR5YUZEWmFrazgrbzJqWGNpbUp3SUZYZnV5UU9nMkhucDY0SE5NOFZlQzQvRE9sc1htZDlRdDc1N0s0QUlNVFlVTXJJZXVDQ090WlZuNHUxYXdqdEVndXlpMmdjUTVqVnRxc0NHVTVIS25KK1U1SEo0cEx2eFhxdC9EZXhYTjQxd2w1SUpaeEtxc1djY0JnU01nNEFHUmloZ1pORkZGQUhaK0lmQWx0cGZnM1RkZnNycWU5aHVnaVNFUkVKRkpqTEtTUjY1QTlkcHEzNGErR2NmaVR3Y05TaHVXWFVKYmhiYUNKcFl3ak8waUlxbGM3K2Q1TzREQTI4OWE1S2J4SHFWeHBuOW5TWGtqMk9WWVFIRzBGUVF1UFRxZnpKNjBsbjRoMUxUN2NRVzE3TEJFQVFGamJHTXNyY2Y4QUFrVS9VQ21yWDFGcWREZi9BQTFtMDZTODgzVjlQOGkzU00rY2pzNnN6NzlxZktEZy9JZXZxUFdybHI4SzU0UEVQaDNUcjYrdEMycnRFaXh3eTVkR2tWU2l0eGtaM3J6akhXdWZQanJYdnRWemNEVXBWbXVJeEhJVUFVRlJuR0FCaFR5M0l3ZVQ2bW5XdmozWHJLK3NMeUxVRyswMktoTGFSNDBjeGdZd1J1QjVHQUFUeU1EQjRxZFNpOW9mdzExSFhyU3l1b0o3ZU8zdWp0V1NWc0FFQnkvL0FIeXFFbjZpcmNmd3hlS1BWcExuVkxVeDJVVXJSbTNZeWVlNndpWEFJR0JnRUE1UEJ5TzFZSC9DWTZ5SGhaYjU0eERjTmRScEdxcWlTTU1Nd1VEQXlCZ2pHTWRxY2ZHdXRtSytqL3RHWHk3N0luVEF3NEs3Y0FZNEczQXdNY0FEc0tiMjBCYjZtcDRBOEZXdmpSZFRpZThrZ3ZMYUlUeFJSeGx0NkEvdkQweHd2VEpIT09hcStFZkJ6ZUtmRjMvQ1BscGJHN2xNc2NYbkovcTVGQk9KUi9DUGxJSjdkVHdEV1JwT3UzK2h5K1pZM0xXN2toaVZBTzdBSXdRUnlNTVFRZURubW1KcTk3SGNYYzYzTW5uM1NzczBwT1hjTWN0azllVDE5ZWZXbjFKNkhhNlY4TkxYWHJFUFlhaC9wZDVxNDB1d2d1V0ViY3NBR2xHRGc0YkpBNmMxbVh2dzhrc1B0NW0xZlQxUzFRT3IrWVNKV0tNNFFFQWdNZHBHRDNJSGVzZC9GV3J2ZEM2T29UQzVGMmI4U3EyMWhjZGZNQkg4V1JuTlJhajRnMURWVE45cXVXa0VySzdxRkNya0RBd0FBQmdkaFU2bGFYTmJ4ZjRPSGhPMTA4dGVKZFhNN1RKT2tZTzJKNDJBSzVJR1NDVGs5T09LcStDUERiZUxmRlduYVVFdUhTZVFtVVdrZm1UQ0pRWGtLTC9Fd1JXSUhjaXF1c2VJOVMxOUxaZFF1M3VoYktVaTNnRGFEalBRY2s0SEo1cW5hWDA5Zzd2Ynl0RTd4dkV6TDFLTXBWaDlDQ1IrTlUvSWxIWTNId24xUWFscVZ0YlBISXRuZlBZWmx6R1drRXlSb3VEM2J6RmI2WjlLSnZoZExiM04xSExybWx4eFFlU3YyaHBqNVphVXVGVXNCOHYrck9TY0FBZzF6a25pblZwWVpJbXY1dkxra2lsWlFjWmVOZHNiY2R3T00wYW40bzFYV1B0QXZMeDVsbktHUmNBQnRtN2J3QUFNYm02ZXBwZEJuVHI4SWRTRmxEZVRYdHJiMnoyeTNEdktIQmkzR01LcFhidXlUTW5icGs4OFp6L0VIdzd2ZkRlanZmM1YzYWZMY3RiL0FHZFpQM3JZWjEzaGU0eWgvVDFwdW0vRXp4RHAxM2FUaS9rbSt5cnNqamRtVlN1QUFDVUtrOEt2VS93ajBGWm1vK0s5VjFhMGt0cnE4ZVcza25hNGFNZ1lMc1NTZW1lcFBIUVpOTCt2Ni9FZWhvK0h2Q3RwcmZoM1Vyb1hNamFuYjdtanRJOW9KalZkek9RU0N3QXpuYmtxQVdJd0syejhGOVJHdVhPbi93QnFhY2tjRWp3UGVTeUdPSVNMS1l5cExBWUFZSG5wZ1pyajlQOEFFdXA2WFlUMlZyZVNRMms1ekpFcDRQR0Q3akk0T09vNFBGYXVvL0V2eEZxUGlDNzFsOVFhSzl1V2RtTUtLcXJ1Y3Y4QUt1TUFoamtIcUR6blBOSFh5RjBMYi9ESzZ0N0N6dkxuVXJHQ0dlQTNFaStZV2VCTnFsU3lnRTg3MUF4M1AxckI4VmFPbmg3eFJyR2xSeUdhT3h2SnJWWkdHQzRSeW9KK3VLbmc4YTYzYkpacEhmdUV0RlpJVktxUUZZWUlJSStZWTQ1eldYZjMxeHFsOWNYbDFLMDkxY1NOTkxLL1YzWTVaajdra21yZHVndGY2L3IxSUIxcnZwdkJHajNWM2F3NmRjWGVaOUV1ZFcyM2hVSE1jVXNtMEZSNlJFODllbGNEVzNwWGpYV2RFdUVuczd3Sktsc2JSV2VKSk1Ra01DZzNLZUNHWUgxREVWRHZjWjB1aWZCclZOZTBxeXZyZStzZ2x4RzB6STdNclJJc2MwaEo0eDkyQisvcDYxeHV0NlMraDZyYzJNazBOdzBMWTgyQnc2TnhrRUVleC9DdEMyOGQ2OVpwR2tHcHl4Um9mbFJRQXVNT01ZeGdxUkk0S25naGlDTUdzZTh2SnRRdXBibTRrTXMwamJtYzl6L250UjE4Z0lhM2ZCbWs2ZnJXc1NXMnBQY3h3TGEzRTRhMTI3c3h4TkpqNXVNRUlSK05ZVlRXbDVOWVRHVzNrTVVoUjR5eS93QjFsS3NQeFZpUHhxNDJUVnhNNnpSL0FTZUk5Tmh1ckc2V0dPUzR2RkxYQk9ZNDRMY3puY0FPVHNVOU85V2RUK0VHcDZWYmF6UE5mV0FUVEpKSVd6TnQ4MTBUYzRUY0JrNHpqMVBBNmlzS3k4ZGEzcDJqL3dCbDIxNkliSEVnOHRZWTgvdkVNYi9OdDNmTWpGVHowTlIzUGpUWEx5TytqbjFLYVZMMWk4NGJIenNlcDZjRTlEakdSd2VLaDM2RGp2cVl0RkZGTUNheUVMWGtBdWZNK3psd0pQS3h2MjU1eG5qT1BXdXUxUHdicHk2aDRzZzA2ZWRrMFdJTXYyb2dPNSswUndzM3lqR1AzZzQ5L2F1TEJ3UVIxRmJsaDQxMW5USDFGN2U3VVBxSUl1bWtoamtNb0pEWU81VDNBUEhjQTlxZWx2TVd0enJybjRGNnBhNmtiU1RWZE5qUmNxOXhKSVVqUnZNTWVDU0IzREhQb0RYbXJEYXhIcHh4WFJmOExEOFIvYTJ1anEweG5JWUZ5Rko1YmNUMDY3dVFlb1BJeFhPOWFRem85TDhPV2Q3b3NNc2s4NjZqZVQrVGFxaUF4WjNJcDNucVB2SGtlbnZWai9oWHM4Vm5OYzNPbzJkbWlSQ1JQT1poNWpFU2JVQnh3VDVURG51UjYxaTJuaUxVckRUSjlPdDd5U0d6bllOSkVwd0dJSUk1NjlWVTQvMlI2Q242dDRvMVhYV2xOL2V5WFBtRlN3ZkdEdHp0NEgrODM1bW0ycmFmMXQvd1JMei9BSy9yUTZlMCtFdDNlVG1KTlgwNFBGYXJkM0N0SVZhQkdFVzNJSTV5WmtHUngxOUtocy9obEk0dG51ZFZzNG9udkV0SmZLTFNGTnp1Z2NFRERBbEQwUGNHdWZ0ZkZXcldlb3RmUlhycmRQRXNEdVFHRHhnS0FyS1JnZ2JWeGtkVkI2Z1ZHM2lMVTNoTVRYc3hRdXJuTGM3bEpZSFBYSUxNYys5TldUMTJFNzIwM0lkWHNvdE8xTzV0b2JnWFVjVGxCS0ZLaHNleHFwVm5VdFN1Tlh2WmJ1NmRaTGlVNWRsUlVCUHJoUUJWYW9SYnRmUUtLS0tZZ29vb29BS0tLS0FDaWlpZ0Fvb29vQUtLS0tBQ2lpaWdBb29vb0FLS0tLQUNpaWlnQW9vb29BbnZQOWFQOTJvSzNkQzhOM0hpM3hEYWFWYXoyMXZjWEJWRWU3bEVhYmljQVo2a2trREFCUDYxYzAzNGRhbHFtbld0N0ZQYUpITURJeVNTTUdpaUc4bVYvbHh0L2RTZENXK1U4Y2pJQnkxRlh0YjBlYlFkU2tzNTNqbFpWUjFsaEpLU0k2aDBZWkFPQ3JBOGdIbmtBMVJvQUtLNmF5OEEzbDVjNkRDTDJ5VTYxbGJjcTd6Ylh5QUVZUkl4M0VsUmdBbkp3Y2MwL1ZmaDFxR2xhTmU2cDlxc3J1eXRicDdVeTIwak1zaFZ0cGRHS2dGYzlPY2tjNHh6UUJ5MUZGZFludzIxQTZqRmF2ZmFjaXZhSmVHNUU1ZUZWWjlnVXNxbkozL0w4dVIzemptZ0RrNks2TFhQQW1wZUh0TVM4dkRBcDM3SkxkWEpraE9XQTNjWTVLTmpCUFRuSEZjN1N2Y0FvclUwYnc5UHJkcnFNOE05dEV0akFiaDBtbEN1NEhVSXZWajM5QjNQSXp1US9ESzl1Wk5KV0RVckNiKzBMVnJ0ZGduSmlqWGdsbDhyY2VjajVBMmNISEFKcGdjZlJWblZkTm4wYlU3eXd1UXEzTnJNOEVvVmd3RHF4VTRJNjhnODFXb0FLSzNQQ3ZoQzg4WFhiVzlwTGJ3TnZTSld1WEtxOHJuYkhHQ0FlV1BBSndCM0lGWWZTZ0Fvb29vQUs2VDRmMzlucDNpRnByMmVHMWpObGVSeHpYRVpkRW1hMmtXSWtCV1AzeXZPRGpyVlh4TjRTdS9DendMZFMyOHBsM3FmSVl0NWNpSER4dGtENWxQQnhrZWhOWXREN0FlaWFucTJnYXRjM2NNMTNBbGdtb3d6RVF3RkdtajJnVG1MQ2NaSVpnRzI5UndPbGEybUo4UEpkWXV6cVZ4WXh3UGFvbitpSmNlVXNoTW05bzl5bHNoUkg5NGRTYThvaGlhZWFPSlNvWjJDZ3V3VlFTZTVPQUI3bml1dWkrRm1yVGExZGFYSGNXTWx6Q1lFalpKaVV1SkprRHhSeG5ieVdCNm5DK3BIRko3RFQxSi9HOTE0ZFBoN1NyZlJYdFdsVW84b2hqa0VvSmhqMytZemdBbnpOLzNUakZjOTRTbXRJTmVnTjg4Y1ZxNlN4TkpLcFpJeThiS3JFQUU0QllIZ0U4Y0NwZGY4SDN2aHl6dExpNWtna1NjTGxZV0pNVE1pdUViSUF6dFpUeGtjOWM1RllkQzBkMERQV3I2THdzZkRXbzZpR3NaSlZLMjBGd2lTckk4c2RsRnQ4b1lBeDV3Sll1QmtaNzFYdHIzd2hxUGpaYjNVN213bDArNGdzUktKSXBsVkFJNDF1Y0JFSDczSVlxZVZ6a2sxNWJSVDYzWk50TEhxRVgvQ0NSYURvdmxUV2NtcnBGSVp6ZEpQNVJjb3BVU2hWendTNEczUElYUEZjUjQwdXJLKzhZNjljNmFVT25UWDg4bHNZMDJMNVJrWXBoY0RBd1J4Z1V1citFN3ZSZEtzNythYTNkTGdnR0tOeVpJaVZEcUhCQUhLc0NNRTlmWGlzV3FiOGhKZFFyMUxTOWY4TmEzcXVpZjI3UGFQYnhXZHZGZEdlR1JWR1ptOC9IbExreWJDdTBuaXZOTGZUN203Z3Vab0xlV2FLMlFTVHVpRXJFcFlLR1k5aHVZREo3a1ZCVTIxVEs4ajA3UXRXOEozMmorRmJYVll0THRoYUc2TjY0Z204K1FoV2FFT3lnZ3F6YlFjY2pqb00xaytLTG5RNWJiV3JMU2IyQVdVVjFIUFpvOGI1ZFNuenFoMlo0YnMyT0FLNCtYVGJ1Q3hndkpMYVpMU2RtV0tka0lTUXI5NEszUWtaR2FyMU52NitkeHAyQ3VzK0cycTJlazZ4ZHlYa3RuQWtscVkxbHZJMmNLM21SbktZUjhOZ0hrcVFSdUhldVRxenB1bDNtc1hhMnRoYXpYbHl5c3l3d1JsM0lWU3pFQWM4S0NUN0ExVjdhaXRjOU9odFBBMXRCWU5mU1c3eFMzeXVzZ1NWWnBJTjB3TE9BQ3FweEZrTDh3R2NBMVV2NzN3TjVlcVIyOXRhanpwWjJna0huTVlndG9HaUNFZ2NOY0FxY2pveDZEbXZNNnN3YWJkM1ZuYzNjTnROTGEydTN6NWtRbEl0eHd1NDlCa2pBejFvZTF0Z1c5enBmaWJxMmw2MXJ0dmM2UkJwMXZhbXp0d1k5UGlrakFrRUtCd3dmdUdEY2pnOWNrODF5TkdLS1NWbFlEWDhIM05wWmVMdEV1TlFLQ3dpdm9KTGd5THVVUmlSUzJSZzVHTThZcnB2RHNQaEt4MHZ4Q21yWEZ0cUY4MEQvWW5qTXlydU1iN2R2N3Y3d2ZiOTRBZE9lcEhCQUVrQURKUEZXTlEwNjYwbTltczcyMmx0THVGdGtzRTZGSFEraEI1QnFyNldGYlc1Nk5INHk4T1QzYXdSYVJwa05zTks4aEcxRVN5eHBOa01mdUFNQ2VSbkI3Y2dacnpGdVdQVDhLc1dPblhXcFN2RmFXOHR6SWtUek1rU0ZpcUlwWjJJSFpWQkpQWUExWG9lcnYvQUZ1TmJXL3JaSG9IZ203MG1id3pQcGw5Y1dpVFQzVVcyRm9TWnBjelJmTHUyRUJkb1k1REtSZ2puUE8zZWo0Zld5YTVHNjJqM2d0R2pnV0F6ckdKZ3NtQ2hLazd0d2p6bkFQcmpKSGtsRk51NnRiK3RCSldmOWVaNnpKSjhQQkRaaTAreXJkSnB5L3ZMenp6RWJrbUhmNWlxbWNnR2ZCR1JrTG12T3ZGZHhhM25paldKN0VxYktXOG1lQW91MWZMTGtyZ1lHQmpIRmFsdjhQcnljUU9iL1RvN2VTMCsyU1hCbUx4d3B2V01CeWlzZDI5MFhDZzRMYzR3Y1ZkYjhGYWo0ZjB6N1pldGJKaTlsc0h0MG1EeXh5eDQzQmdNZ0Ruam5uNlZuMXY2bFhzckdEUlJSVkNDaWlpZ0Fvb29vQUtLS0tBQ2lpaWdBb29vb0FLS0tLQUNpaWlnQW9vb29BS0tLS0FDaWlpZ0Fvb29vQTZIdzE0Z2k4SytLZFAxZVN4WFVHczNTZU9GNURHTjZ0bFNTT2VvNlZ0MmZ4WXV0T3NyZXp0YkZZcldGbVVSbWR6KzVQbUR5eDZIRXpqZU9lbnBVZnd2MEwvQUlTVDRqYUxwN2FOSnJzTTgwYVRXMGF1MjJNdUE3a0p6aFFTYzlCM3JyOUI4QWFaSG9PbWpVdEtlTFVRN295VHhNcnlYYWlmL1JpQ3d5MlVoSGxBQnZuSFB6Q21JOHI4UzY5TDRsMW1mVUprOHRwRlJBdTRzUXFJcUxsanlUaFJrbnFjbXN5dW04ZGFiYTZWNHp1TFcyaEVFU2lBeVc1R3p5NUdpUXlJUVNkaERsZ1ZKeXVNRThWNnJZK0N0RXYvQUJ4Y0pmNkpCWjIwc2FNdW1ReEZYdFlXbVlOSy93QzhQeUJNTVpzN1FDR3hqbXA2RFBMajR4c0RwdWkyYmFERTY2ZjVtOW11WHpOdkEzSC9BR1RrQWdqcFZyWFBpbHFHdjZQZldFOXZHb3U1bWxaMWRzQUZnMzNTY0ZzZ2ZPZWV2clRmQUhobjdUNGkwNDZoWW03dGJxQzRrdFlGRzlycVJFYllpb0NDeExoUnQ0SjZDdTM4YWVIUENPbStHdGJqc3RPeHFjUWtsZ21Ea2lPUHowR0Q4eCtjQmlwSElHRHljVU1hUjR0WGVRZkZHT3h1ck9TeTBaTGFLQ3grd1BHdDFKbVJONWNIZHdSeVNDTzRKRmNIWHRsdDhPMGgxdlRmdHZoSzRzSHVkRlc0aDArNHQ1VDVzZ2xLczIxaXBZaE1NU0Q4b083R0JWRXM4LzhBRXZ4SDFEeFJvc1ZoZHhxR0Voa2tsVjJ3NTNNd3d2UmVYT2NkZVBTdVRyMC80ZytGdEMwandqYlhXbVJxVWFjckJlakpGd044Z1lCOXhENEFUZ0FZeU91YWc4RWVIN0xXdkNvTjFaV2x2QXQ3RXMrcTNXUU5yVFJyNWZtQjhSbmF6TnlweXFzUjBOVEZKN0RrN2JuS2VGZkVWcDRlTitiblMxMUw3VmJ0YmpkTzBld04xUEhYdFd0WWZFbVRUa3M0WU5Pamh0WW9YaWtqaG5kR2N0dDNNcjV6R1RzR2R2cWZXcmZ4TThLeDIvaUtWZEkweVd4amdzQmQzVnJLbmxTUUR6Q3VXakxFcVNER2NaUDNnZWhydEovQzNoRFNyQzJ2TDdUR2F6WFNCSkkwZVE4ck45blV6eC9OaHdIa2tHZUJrWXhrVTFycUQwUEdkYTFXYlhkWXZ0U3VBcXozazczRWdRWVVNekZqajhUVk90cnh2YXdXUGpMWGJlMWhXM3RvcjZaSW9VenRSUTVBVVo1d0JXTFJzQjB2Z2Z4emRlQjcxN20yaFdkaXlTcXJPeVlrUWtvVHQ2amtncjBJT0RYTkU1T1RYb1h3YzhQYWI0aDFpYUxVTFVYaUNTRlpFSUo4dUJtSW1sT0dHMEtNWmM4SURrZzRyejA0eWNjaW0rZ2wxQ2lpaWtNNlB4bDQzdWZHYjJyWEVRaU1BZGppUm4zTzdibkl6OTBFOGhSd00xemxkLzhBRm53L3AyZ3phYUxDMUZxc2dsMjRVcjUwSWZFVXZMSGNHWG5lTUJ1dzRybi9BQURwc21yK01OTHRJdElrMTU1SlFQc0VTTzVrR01rbFUrWWdENWpqc0QwcXJOeXNLOWxjdzRXUkpvMmtUekl3d0xKbkc0ZHhudFhaM254UXVScTkvZmFYYUhTVGQyQ1dEUlJYTHNxaFl4RUg1NnQ1WUlIb1dKSE5iK3ErQ0xUU1BDdmlwcnJTcExTOXNwNUYzVHhPajI3K2ZHSTR5U1J0M1JzeENrRXNBU09GcUg0YStDYks0dWRVdGRmc3g1c0xXcG0zZk45bXRaTXRKT1NyQUlGUXEyODVDOEFqbXMyL2R2NWZtVmIzcmZJNWJ4VjQ3dlBGZW4yRnJjUkxHdHFpZ2tPemJpcUxHQ0FmdWphbzRIR2NudlhNMTZkOFR0SThOMlBoYlNwTkcwODJ0OHNxUjNrck1TSFkyMFQ0VVpQR1NUbjFZMTVqUkZwclFIZE96Q2lpaXFFZEhyL2pXNTEvUXRPMDJXRUlsb2NseEl6YnlFVkJoVHd2eXF2VHFSbXNTUFViaUszV0JKU0lsa0VvWEE0WWREWGJlTjlBMC9UZkJlZzNkcmFpR1NjZ0xjYlNQdEMrVWpNMlN4RFljdXVRQmpHT1RYT2VCckN4MVR4cm9GbnFiS21uWEYvQkZjczhnalVSTklvYkxIaFJnbm50VlN1bTdpV3lLWDlxZWQ5dWU2Z1M3dUxtTUtzemtneE1HVTdnQndUaFN2UFpqU3BydCtraVNMY0VPa2ZrcWRvNFQwNmUxZFo0MDhMMjl0cWQvd0NScDgxdExhMk1kemRXNnI1QXRKRE1FSWtqY2xsNFpQa3lTQzRQU3ZRclB3Qm9FbXU2ZEQvWkt2SElNTkdZMithejh3ajdWOS83dXdJVE5rS29ZdHR3dEVZOHlDVDVUeEJOVEZ2YjJndDdkSUxxQm1ZM1NrbHBNOUFRZU9QNjFFZFR1V2huaU1wTWM3NzVGd1BtYk9jMTJmdys4TFdlcGF2bzdYdG5QTkZkSmVtSU5oMHVaWTRIYUtOSXdRek1aQWk3TWd1U0ZISnJYOFErR3JHMzhQZUpXdE5OdDRZN1B5WGU4ZEM1am1Zd2g3WlczL3UyRFBKOHJBbkNONkVpRTAzWXBxeDVuYlgwOW1zeXd5RkJLaFJ3QU9WUFVWYXRkWUszTUQzc0NhaERERThTUVNrcW95cEFPVndmbEpERDNGWjFlc2VKdkEra20zMEJMR3dtZVM0dGpLRnRXQ1BjUnJacks4Z1p5VmNMSjVnSkdQdWxjWkZKeXNDVnp6R0xWTHFDQ0tGSmlzY1VnbFJjRGh4M3FRNm1Kb0wzN1JicGNYVnd5TXR5eElhUEdjNEE0NTQ2K2xlbCtHdkNXa1huaERUTHFYVDFubWtuQWlsWU1CY3orWE1SYjd0Mkd5NndydEFCRzhjL01LNTd4bjRZdGJQVy9FQnRyR2VLQ3lhMkJDWWpTM2VSUnVWMFlsbE9kdzI1SlVnZ25pdEpSNVZka3AzZGpsVzF1OWQ1SE01TFNSK1M1MmpsUFRwVmEwdTVyRzRTZUIvTGxUTzFnQWNaR08vMXIzclYvQk9oV3VvNnJZV0dpMnhrZG1WTHE0alpvN08xRHlLbHl5ZVlENWJMc1l6OHJnQnNmTUFmQmJXS09lZFVsbVczUTV6SXdKQTQ5QnpXYWx6Rk5XSkgxSzRrZ2FGNUMwVFNlYXlFRGx2V3A3bldHTjNmUFpRcHA5dGRFZzIwUjNLcS93QjBFNU9LZ050RUlpeTNLU09KTmdpQ3NDdy92QWtZcS9yV2pSYVpyR3AyY2hrMDlyUnlpMjkwUThoSS9oTElOdWZmcFRFUVFheVRPcjNzS1g2SmJ5UVJ4eUVxRUxJVlZ1TWNxU0dIdW96VU1lclhjSzI2cE1WVzNZdEVNRDVTYXU2Vm9pYWplTkRDWk5RWVdjOXl5V3hDR1B5NG1rSkpjWUlVS1NjY2tBZ2M0cWpIYXdPc0JhOGpReU1RNEtNZkxIcWVPZndxaEZlV1Y1NVhra081M0paajZrMDJwNG9kMThrVWFHOHpJRlZJd2N5ODRBQTY4L256WHN1cS9ESzZzZFg4VXlTK0I3MjMwdTEwdU80WkJhenRMYlNQYTVUWU93RW9MTzdmS0ZSZ2NFZ0V0cGNMNjJPSTAvNGtmMkkraXk2WHB2Mkc0MDJOMExpNmRoY0Z1UVhYb1FIQWZiME9BS3k3cnhYRmQrRWhvOGxodnVqZU5lUHFEVHNYZDJBRFpYcHlBSzF2aDk0ZGhrMTIzaDFlMFVyZldqUzJUM0NtU0JRSEJlV1VLd0lSWWxtSlBZZ0U4Q3RueGZaZUZGOEZQTG8rblBCZWZKTEhOS1NXTUxUU0JTVG5HN2JnRVkvaEZDVjdoZlZIbDlGRkZJWVVVVVVBRkZGRkFCUlJSUUFVVVVVQUZGRkZBQlJSUlFBVVVVVUFGRkZGQUJSUlJRQVVVVVVBRkZGRkFHakZwVjdyRjU1RmhaM0Y5TUUzbU8yaWFSZ3VldUFEeHlQenBiL3d6ckdsMnJYTjdwTjlaMjZ5dEEwMDlzNklKRkpESVNSamNDQ0NPdkJxOW8zaUFlSDU5UVkyNjNCdXJJMnlxNHlxa3VyWkk3L2RxL3J2am1QeEQ0Y052ZlJ6M1dydk41clhjaklGWEx1emJRQURnbGh3Y2dZT01ab0E1MjMwTFVyelRwOVFnMCs2bnNMZi9YWFVjTE5GSDArOHdHQjFIWDFGUjIybVhOM2JYVThNUmVLMVFTVEhJeXFrZ0E0NmtaSUhIcUs2UFF2R0ZycFBoVzkwMlMybWt1cFJLSXBGY0JCNWlCVHVHTW5BQjZVelQvRkZ2L3drQ3pYa2wxTnA5eFpMcDkwWk5yU0JQS0NaVURBT3dxcktEL2NHVDNvWUhOeTJrOXUwYXl3eVJtUlE2QjFJM0tlaEhxRDYxSHNiMFBYSFN1MHNmR3RoWmFscGQrc0Y0bHphMkRXYlBGSXFzamVXeXJMR2NjTUN3SStsYk1ueFYweWE2dG5mVDd0YmFQVVJlU1dxU29JNXdIVnR6amIvQUt6NWVvOVQyb0E4NlRUTHlTem11MHRKMnRJV0NTVGlOaWlNZWdac1lCUHZUOUswVFVkZHVHZzAyd3V0UW5VYmpIYXd0S3dHUU00VUU5U0IrSXJzUEZIeEJzUEUxL3JFNzJNMEExQzJnUWxIQmJ6WS93Q05zNXpuNjU5NnAybXQ2VDRRRitOSXU1dFhlOHRSRHV2TEpZVmlZU280TzNlKzc3bnRRSG9jbkxiVFFTdEZMRThjcXNVWkhVZ2hnY0VFZXRQaHNaWjRKNWxDQ09FQXZ2a1ZUeWNjQW5MSDJHYTd5SDR1M3N0NXA3M2ozTXNjRnRNanVqZ1NMY1A1eCswUm5IeXNES0RrYy9MOU1XSWZpRmJwSHFsNUpkR2F5dWRRZ3VVOFB5Tkl3ZnkzRE04ZzIrWGxnTUVnNUpKNHhRdk1PaDVyc1lFamFjanJ4MHFhZXh1YmJ5dk90NVl2TlFTUjcwSTNyMllaNmpnOCsxZWthcjhYTGJWTlMxUzZOcmRXN1hjTWNRa2dkQTdCZCtVa0pCM0syNWNnOWxIb01RV3Z4ZnVsMUhRYnk1dWRTdVpOTnNHczlzdHlYQVB6WWVQSnlwd1FPRG5qcmlnRHpjZ2pxTVZMOWtuK3pDNDhtVDdPVzJDWGFkdTdHY1o2Wnh6aXVoOFMrTFlOWXRaN1Mzc1JGQzE1TGN4eXpzSGxqUm1ZaU1NQU9BRHo3OWhWcnc5NDdpMFR3ZnFHaW14RWsxekkwaVhpdGg0c2hSZ2V4MmtONmdrVmpWbE9NVTRSdTlQNitSY1VtL2VkamxFdEo1STVKRWhrZU9QRzkxVWtMbnBrOXFqQ01jWVVuUFRqclhxOXQ4WXRPdGZFY2wvSHA5NGxzOTBidDRWbVRjKzZjeXZFeDI0S01Ec0l4eUNjOWNWUkh4WHRqcGVqMmFXVTFrMWhhdEF0eGFPRWxqY3FCNWtiSDdwSkdUMCs4ZS9OY1N4R0plOUg4ZkovMTh6ZDA2VjlKL2g2ZjE4anorMzBtK3UwamVDenVKa2trOHBHamlaZ3o0enRHQnljZHFodXJXYXl1WmJlNGllM3VJWE1ja1VxbFhSZ2NGU0R5Q0R4ZzExMm8vRUtlKzhMM3VpaTUxQmJhWFVudlVpTS93QzZLc2M3WFFBRE9SbmdBWjdWaStNZFl0L0VYaW5WZFZ0b3BJSTc2Nmx1akZLd1lvWGNzUmtkY1pycHB6cXlsYWNiTFg5TGZmcjl4bEtNRXZkZjlhbVFFWW5HMDU5TVVCR09QbFBQVGpyWHFXa2ZHVzEwN1hrMUE2VVRtek1Ua09OLzJoMlJwWmdlUHZiRHgvdG5xT0tvMm54ZXVMYlZkSW1XSm83S3hpY0MzUURDeU41M3p4aitEL1dqN3VEOG93UVFNZGxsM01MdnNjQ3RsSzFwSmMvSUlvM0NObVJRMlRuR0Z6a2pqcUJnZDZoOHR1ZmxQSFhqcFhmcjhSYkVRNnBHOXJkendYV3B3YWtscFBNR2l6R1dMQmhqa3Z1T1QvT3RCZmpCRERleU9zRjdjUlRHMlM2YTVuQmt1b28ybDNwSVFNTUdXUUxnOWxIdFNkclhHcjNzZVgwZGFuc3JvV2MvbUdDSzRHQ05rd0pYOUNLdDZYcTZXTWx2dnRveUkzTEdWQmlYa0VjRThjWnlPT29GQXlrTFNjMjdYSGt5ZVFyQkRMdE8wTWVnSjZaNE5KTkE4RW14c0ZzQnZsWU53Um5xUHIrRmFzK3R4WEVHb3hTQ2VRM0xST3Nyc0MyNUZJK2Jqbk9hMUxIeHBGWmFvOTYwVTExSzhLUnRKT3daempyblBVRWRRYWRsM0Zkbkt4d1NUTnRqaloyd1RoUVNjQVpKL0ttZEs2YTE4YVRXZ3RSRzA4UGtncHVoazJzRU1ZUWdFZTQzZlhGYzVjU21lZVNSbmVSbllzWGtPV2JKNms5elEwbHNDR1VVVVZJd29vb29BS0tLS0FDaWlpZ0Fvb29vQUtLS0tBQ2lpaWdBb29vb0FLS0tLQUNpaWlnQW9vb29BS0tLS0FDaWlpZ0Fvb29vQUtLS0tBQ2lpaWdBb29vb0FLS0tLQUNpaWlnQW9vb29BS0tLS0FPaDBQUjdYVnJ1OWU4TTMyZXpzMnVXUzNJRHZobFVBRWdnY3RucDJxOWMrR3RKdDIwdWN5WDhGcFBmVFc4NHVJZ1pFVkdHUGtCR0dJT0NNOEhOWUVXcFhlbFh5M0ZsY1MyczZwanpJV0t0ZzlSa2RxY25pTFZZQ3dGL2NBbVl6dHVrSnpJZXJuUDhSOWFmVVhRNjZUNFR5dkg0a3VQN1NzclNQUzcrU3lTS2VaRWFZbytEdERNR1BIUUFObnZpcHBmaGZwZW02aHEwR29hL01JYk8ybGxTZTFzdDVkNDV4RTRLbHh4azVCenlEMjZWeDB2aXZXWnhkNzlVdTJGMjIrNHpNMkpXOVc5VHhVVWZpTFZJcnI3UXVvWEFud3dNbm1ISjNITGZtZVRVbGRTYnd4b3llSU5WTmlXZFpaSVptZ0NESmVWWTJaRXgvdEZRdjFJcnVtK0NMVDNFS3c2M1p4TE5xeTZVaVRUUithemVZc1R5QkEyOWdISlBDNHdPdGViV2QzYzZiZHdYZHRMSmJYRVRpU0thTWxXVmdjaGdmVUdyY0hpYlY3YUZJb3RUdTQ0a21Gd3FMTXdBbEJ6djY5Yzg1cGlONjE4QlcycFdPcTNWanJjRjBsbmJpNFNKVUFsa0cwc3dNWmJjTm9VNUtoc2RUZ1pJdGY4QUN2YlcrMUd6UzN2ekJZeWFkRmVOY1BBeGJjMG5sWTJiai9INzlPZmF1U3N0WTFEVDdhZUMwdTU3ZUM0QldXT0p5cXVDQ0NDQjE0SkgwTlcxOFk2NUhjUXpwcTE0azBLZVZISWt4REltYzdRUjJ5QWZyVEViMnFmRFZkRmgwOTd6Vm9vaExPa1YyVmdaeGFxenN1NFl5WHhzWTRBejB4MXJrN0cwaHV0VnQ3YVc1VzN0NUpsamU1WlNSR3BiQmNqcndPY1ZOYjY3cWtVOXUwTjljck5DNlBDVWtiY2pLY3FWOUNDU1I5YW9TTzByczdzV2RpU1dKeVNhbGVZMzVIYVRmRDVOSHVOVXNOVmxtVFZyV3dlNkVFQUcySjFZZ3BJVDdBSGorOEt3L0NXbFdPcTY5YVcrclhFdGpwanNQdEY1R2pONUNaQUxrQldKQXo2ZFNPbFJSK0tkWGl1cm01WFVya1hGeW9TYVV5RXRJb0dBR1BjWUdLanR2RU9wMmN0dkxCcUZ6RkpieG1HSmtsSU1hRWtsUjZESlBIdlRXNFBZM2ZFL2hHMTBUU0pwVSsxSmYyMnF6NmRjUXpGR1ZOblFBcjFQWW5vZXdwbWllQUwzV1BCK3NhOGtVeGdzVHR5aUVvdU9XTHRqNWVDQUFjWko5cXlaZkVXc1Myb2prdjdwNFBPKzBBTklTUE56bmZuKzludjFxbzJvM2tzOXpPMXhNMHR4dU04aGNreWJqbHR4NzVQWE5IUUZ1VnFLVlZMWndDY2M4VWxBQlJSUlFBVVVVVUFGRkZGQUJSUlJRQVVVVVVBRkZGRkFCUlJSUUFVVVVVQUZGRkZBQlJSUlFBVVVVVUFGRkZGQUJSUlJRQVVVVVVBRkZGRkFCUlJSUUFVVVVVQUZGRkZBQlJSUlFBVVVVVUFGRkZGQUJSUlJRQVVVVVVBRkZGRkFCUlJSUUFVVVVVQUZGRkZBSForQk5jMGpRTmN1cmpXN2I3Yll2YUJEYTg1bVBteHR0QkhUaFc2OGNZNzF1dHFIZzZXK1c3dkx5MDFLNmx1aUo1WmJlZFJKKzhtTFRzQW5Dc0dqNEdXRzAvTDY4Wm8vaHlYeExmend4WE1Gb3R2Ym00a2xuRWhVS0dDOUVWbUp5dzZDcmZpZjRlMy9BSVN0WG12cnF6THJjU1cva1JNNVlsSFpDd0pRS1JsVHhuY09NZ1pvN0NYVTNielYvRFMydmlTd3RYc1BzOGswRXR0Szl0S0drVUxpUklqcytVNUp3WENnOWVPbGIxcnEvd0FPSU5mdUhuaDArZXpabDJGTFc0OHNKNWpuR0NBMjRMc0RIb2V4UFd2TzlNOEczV3ErSHJ2Vm9ycTFSTGZkL28waGNTeUJRR1lyaFN2QU9lV0hUak5SUStGTHBvOVFFMytqM05yYUplaUJoa3lSTnRPUVFmN3JxMlBUUFRGR3c5enI3Y2VGN2h2Q2d1OWQwd1FRR1lYa1RXOTIzbHA5NUZZZVZqSjVYS1pBSnpnZ1ZYOFEzL2hPWHdyZXJhUTJBMWw3eDJYN0lrNFZVTFpYeXk2RDVBdVJoaUc5cTVZZUZOUmwxQ3lzb0kxdUxpN3R4Y3hxallBUWdzU3hiQVhBQkpKNEFIV3BtOENhK2lGbTB1Y1l1UHN1MDQzR1RPTUFaeWVTQm5weU9hVnVnNzlUVDhIZUlkUDBydzVyc040NFc5RVROcDZGQ3dlU1JHaGZrRGpDUHVCT09WOWEzZGIxcndSYlgwOCtsV05sY1JKWk45bmhsaW1JYVV5eDdWa0JWZm5FWWt5UVN2OEF0SGl1UHZQQmQvcDFucU10MjhOdFBZbVB6TFZpeGtaWCs2NnNvS012dnVwbmhYd3BQNHN1Ym1LRzZ0N1FXOFFsZVM0V1JoZ3VxQUFSbzdFNVlkcXJka3ZZN1hTTlU4SkxKNFh1NDdqVDlJdkliMFMzUWFLNWJ5b3c3TmxtVkNjZ1lDbENlUUNkdFJhTEo0SnNSTkZmM05qZW90OHA4MUlMZ3RKRVpvanVRbEJoQkdKUXdZQmlTTUE5YTV5NitHWGlTMHVVaGJUaTVlU1NKWFNWQ2gyRmd6RTV3cWpZNTNIQXdwT2VLZ2o4RGFxYlMrbGt0MlNXMW1XM051ckswcGxaZ29YWUczYzU0T0NEU1hkZjFzRFdqVC9yY3VhdGZhSmV5UE5hSlkyak5waER4ZVJMdCswZWFlRTlHMmJUdVB5OWU5WjNnMGFQTHJhMit2Uy9adE51STNpZTZDTTV0MnhsWENya25EQUE0QjRKcVdUNGZlSVlycTV0MjB1WHpiZUlUU0FNcEcwNXh0SU9HSjJ0Z0xrL0tlT0RWaTYrR212VzArblFpRzJua3Y3YjdWRUlieUpnc2ZQTG5kaE9uZkE3ZGFGb042bXhyL2lUU2RiOEpMYXgzb3N2OU4zVzJteCtkc3RvbWR5UzR3VWJBWmNFRXQxeVBYUDB1OThQMkhoM3hEcHN0MUxKZVNGdnM5MUZDZkx1RlEvdXh6aGxCT1d3UjZaeGl1ZHY5QjFIVElSTmRXYzBNSmRvdk1aZmwzcWNNdWVtUVIwNjExM2cvVDdHNHZmQTF2UFlXOXdtbzZwNUZ5WkZKTG9abzF4blBveC9PamRCc0h3NnZkTzhOZUkzdXBQRVZuYndSUVJ6Z1QyODVpdXBPRyt6dnRpZGdnSklmakRCY0E4NXJnajFvb29BS0tLS0FDaWlpZ0Fvb29vQUtLS0tBQ2lpaWdBb29vb0FLS0tLQUNpaWlnQW9vb29BS0tLS0FDaWlpZ0Fvb29vQUtLS0tBQ2lpaWdBb29vb0FLS0tLQUNpaWlnQW9vb29BS0tLS0FDaWlpZ0Fvb29vQUtLS0tBQ2lpaWdBb29vb0FLS0tLQUNpaWlnQW9vb29BMkxIWDd6UUxpNWV5bGFHVzR0amJ0SWhLc3FsZ1Rnam9mbEZQbDhXWFVuaHM2TjVVS3dOSXNra29CM3lFRmlDZWNaK1k4OWVsWmQ1L3JSL3UxQlFCdmFaNHd1dEs4UDNlbFJRd2xMZ3QrK1lFdWdZQU1COVFNVkhwZmlRYVpydHZmcFp3ckVrWGtUVzBlVldXTXgrWElEN3NwYko5VG1zV2lnRHBvdkhNMFQyTWdzTFZwYmExYXpaMkRmdm9TaklWYm4wWThpcmpmRkhVWkx5MnVwTE94bHVMYTYrMHd1OFdkZ3lEc0F6OTM1UitWY2JSUjVnZFZxdnhEdnRhdXI2YTlnaG5GM2J4MjdvKzQ0Q2ZjYk9jNUh2MXF1dmkxZE5XNkdpV2phU2JxMyt6ek1sdzdNVjNxM0JKNCs2SzUyaWdEb0xQeHJmV2x4WnliWTVZN2V6ZXhNTGc3SkltOHdFTU05Y1NOelY2RHgvSmJTM3VvUndzbXMzRnpET3N3WWVURUltRElGVEdlQ0ZISjZDdVJvbzYzRHBZNisrK0ptb2FsUGV5WFZ0YjNLM0tJdmx6N25DRk4yMWdTYzhiMjQ2VldzZkh0M1kzR216cGJ3K2ZZMnh0VmtCWlM4WkpPRGc5dHhybWFLQU5uVi9GbC9yRVZ6Qy9sVzl0Y1hEWFVrRnRHSTBhUm1KeVFQVGNRQjBBcnFQQnR4YngzWGdlN2t2TFdHRFROVDgrNzg2NWpSbzBFMGJidHBJWnVGSjRCNlY1OVJRQVVVVVVBRkZGRkFCUlJSUUFVVVVVQUZGRkZBQlJSUlFBVVVVVUFGRkZGQUJSUlJRQVVVVVVBRkZGRkFCUlJSUUFVVVVVQUZGRkZBQlJSUlFBVVVVVUFGRkZGQUJSUlJRQVVVVVVBRkZGRkFCUlJSUUFVVVVVQUZGRkZBQlJSUlFBVVVVVUFGRkZGQUJSUlJRQVVVVVVBZi9aIiBoZWlnaHQ9IjE0MiIgd2lkdGg9IjYxOSIvPjxjbGlwUGF0aCBpZD0iY2xpcDMiPjxyZWN0IGhlaWdodD0iMTIwMDE1MCIgd2lkdGg9IjUyMzE2NDAiIHk9IjAiIHg9IjAiLz48L2NsaXBQYXRoPjwvZGVmcz48ZyBjbGlwLXBhdGg9InVybCgjY2xpcDApIj48ZyB0cmFuc2Zvcm09InNjYWxlKDAuMDAwMTA0OTg3IDAuMDAwMTA0OTg3KSIgY2xpcC1wYXRoPSJ1cmwoI2NsaXAxKSI+PGcgdHJhbnNmb3JtPSJzY2FsZSgxLjAwNSAxKSIgY2xpcC1wYXRoPSJ1cmwoI2NsaXAzKSI+PHVzZSB0cmFuc2Zvcm09InNjYWxlKDg0NTEuNzYgODQ1MS43NikiIHhsaW5rOmhyZWY9IiNpbWcyIiBoZWlnaHQ9IjEwMCUiIHdpZHRoPSIxMDAlIi8+PC9nPjwvZz48L2c+PC9zdmc+;" vertex="1" parent="1">
          <mxGeometry x="-107" y="137" width="657.11" height="150" as="geometry" />
        </mxCell>
      </root>
    </mxGraphModel>
  </diagram>
  <diagram id="5Lsl8RKcXt91UzQLJ0aa" name="Network">
    <mxGraphModel dx="745" dy="518" grid="0" gridSize="10" guides="1" tooltips="1" connect="1" arrows="1" fold="1" page="0" pageScale="1" pageWidth="1100" pageHeight="850" math="0" shadow="0">
      <root>
        <mxCell id="0" />
        <mxCell id="1" parent="0" />
      </root>
    </mxGraphModel>
  </diagram>
</mxfile>
